SplineFontDB: 3.0
FontName: Oxygen
FullName: Oxygen
FamilyName: Oxygen
Weight: Book
Copyright: Copyright (c) 2011-12 by vernon adams. All rights reserved.
Version: Release 0.2.2 webfont
ItalicAngle: 0
UnderlinePosition: 0
UnderlineWidth: 0
Ascent: 1638
Descent: 410
sfntRevision: 0x00003333
LayerCount: 2
Layer: 0 1 "Back"  1
Layer: 1 1 "Fore"  0
NeedsXUIDChange: 1
XUID: [1021 14 500265001 11824345]
FSType: 0
OS2Version: 3
OS2_WeightWidthSlopeOnly: 0
OS2_UseTypoMetrics: 1
CreationTime: 1335862711
ModificationTime: 1337208570
PfmFamily: 17
TTFWeight: 400
TTFWidth: 5
LineGap: 0
VLineGap: 0
Panose: 2 0 5 3 0 0 0 0 0 0
OS2TypoAscent: 263
OS2TypoAOffset: 1
OS2TypoDescent: -73
OS2TypoDOffset: 1
OS2TypoLinegap: 0
OS2WinAscent: -134
OS2WinAOffset: 1
OS2WinDescent: -189
OS2WinDOffset: 1
HheadAscent: -134
HheadAOffset: 1
HheadDescent: 189
HheadDOffset: 1
OS2SubXSize: 1331
OS2SubYSize: 1433
OS2SubXOff: 0
OS2SubYOff: 286
OS2SupXSize: 1331
OS2SupYSize: 1433
OS2SupXOff: 0
OS2SupYOff: 983
OS2StrikeYSize: 102
OS2StrikeYPos: 530
OS2Vendor: 'newt'
OS2CodePages: 20000093.00000000
OS2UnicodeRanges: a00000ef.4000204b.00000000.00000000
Lookup: 4 0 1 "'liga' Standard Ligatures lookup 0"  {"'liga' Standard Ligatures lookup 0 subtable"  } ['liga' ('DFLT' <'dflt' > 'grek' <'dflt' > 'latn' <'dflt' > ) ]
Lookup: 258 0 0 "'kern' Horizontal Kerning in Latin lookup 0"  {"'kern' Horizontal Kerning in Latin lookup 0 per glyph data 0"  "'kern' Horizontal Kerning in Latin lookup 0 kerning class 1"  } ['kern' ('DFLT' <'dflt' > 'latn' <'dflt' > ) ]
MarkAttachClasses: 1
DEI: 91125
KernClass2: 24 23 "'kern' Horizontal Kerning in Latin lookup 0 kerning class 1" 
 89 A Agrave Aacute Acircumflex Atilde Adieresis Aring Amacron Abreve Aogonek uni0200 uni0202
 1 B
 118 D O Q Eth Ograve Oacute Ocircumflex Otilde Odieresis Oslash Dcaron Omacron Obreve Ohungarumlaut uni020C uni020E Dcroat
 1 F
 1 K
 21 L Lacute Lcommaaccent
 1 P
 16 T Tcaron uni021A

StartChar: .notdef
Encoding: 65536 -1 0
Width: 748
Flags: HW
LayerCount: 2
Fore
SplineSet
136 68 m 1,0,-1
 544 68 l 1,1,-1
 544 1297 l 1,2,-1
 136 1297 l 1,3,-1
 136 68 l 1,0,-1
68 0 m 1,4,-1
 68 1365 l 1,5,-1
 612 1365 l 1,6,-1
 612 0 l 1,7,-1
 68 0 l 1,4,-1
EndSplineSet
EndChar

StartChar: exclam
Encoding: 33 33 4
Width: 586
GlyphClass: 2
Flags: HW
LayerCount: 2
Fore
SplineSet
391 1496 m 1,0,-1
 391 1354 l 1,1,-1
 335 435 l 1,2,-1
 256 435 l 1,3,-1
 194 1354 l 1,4,-1
 194 1496 l 1,5,-1
 391 1496 l 1,0,-1
196 27.5 m 128,-1,7
 160 67 160 67 160 119.5 c 128,-1,8
 160 172 160 172 196 212 c 128,-1,9
 232 252 232 252 294 252 c 128,-1,10
 356 252 356 252 391 213 c 128,-1,11
 426 174 426 174 426 120 c 128,-1,12
 426 66 426 66 391 27 c 128,-1,13
 356 -12 356 -12 294 -12 c 128,-1,6
 232 -12 232 -12 196 27.5 c 128,-1,7
EndSplineSet
EndChar

StartChar: quotedbl
Encoding: 34 34 5
Width: 710
GlyphClass: 2
Flags: HW
LayerCount: 2
Fore
SplineSet
160 1016 m 1,0,-1
 139 1510 l 1,1,-1
 290 1510 l 1,2,-1
 261 1016 l 1,3,-1
 160 1016 l 1,0,-1
446 1016 m 1,4,-1
 425 1510 l 1,5,-1
 576 1510 l 1,6,-1
 547 1016 l 1,7,-1
 446 1016 l 1,4,-1
EndSplineSet
EndChar

StartChar: numbersign
Encoding: 35 35 6
Width: 1134
GlyphClass: 2
Flags: HW
LayerCount: 2
Fore
SplineSet
737 931 m 1,0,-1
 502 931 l 1,1,-1
 422 536 l 1,2,-1
 658 536 l 1,3,-1
 737 931 l 1,0,-1
1032 1055 m 1,4,-1
 1018 931 l 1,5,-1
 871 931 l 1,6,-1
 804 536 l 1,7,-1
 951 536 l 1,8,-1
 941 410 l 1,9,-1
 786 410 l 1,10,-1
 700 -23 l 1,11,-1
 549 -23 l 1,12,-1
 633 410 l 1,13,-1
 398 410 l 1,14,-1
 318 -23 l 1,15,-1
 189 -23 l 1,16,-1
 262 410 l 1,17,-1
 91 410 l 1,18,-1
 101 536 l 1,19,-1
 284 536 l 1,20,-1
 345 930 l 1,21,-1
 168 930 l 1,22,-1
 177 1055 l 1,23,-1
 370 1055 l 1,24,-1
 453 1462 l 1,25,-1
 606 1462 l 1,26,-1
 527 1055 l 1,27,-1
 761 1055 l 1,28,-1
 832 1462 l 1,29,-1
 960 1462 l 1,30,-1
 894 1055 l 1,31,-1
 1032 1055 l 1,4,-1
EndSplineSet
EndChar

StartChar: dollar
Encoding: 36 36 7
Width: 1241
GlyphClass: 2
Flags: HW
LayerCount: 2
Fore
SplineSet
675 688 m 1,0,-1
 675 131 l 1,1,2
 966 146 966 146 966 426 c 0,3,4
 966 522 966 522 914.5 581.5 c 128,-1,5
 863 641 863 641 727 675 c 2,6,-1
 675 688 l 1,0,-1
580 886 m 1,7,-1
 580 1370 l 1,8,9
 276 1352 276 1352 276 1121 c 0,10,11
 276 1036 276 1036 331.5 984.5 c 128,-1,12
 387 933 387 933 498 906 c 2,13,-1
 580 886 l 1,7,-1
580 1693 m 1,14,-1
 675 1693 l 1,15,-1
 675 1525 l 1,16,17
 930 1517 930 1517 1089 1418 c 1,18,-1
 1039 1277 l 1,19,20
 978 1311 978 1311 878.5 1338.5 c 128,-1,21
 779 1366 779 1366 675 1371 c 1,22,-1
 675 863 l 1,23,-1
 779 838 l 2,24,25
 959 795 959 795 1052 700.5 c 128,-1,26
 1145 606 1145 606 1145 432 c 0,27,28
 1145 217 1145 217 1019.5 103 c 128,-1,29
 894 -11 894 -11 675 -22 c 1,30,-1
 675 -195 l 1,31,-1
 580 -195 l 1,32,-1
 580 -22 l 1,33,34
 420 -17 420 -17 294.5 18.5 c 128,-1,35
 169 54 169 54 94 100 c 1,36,-1
 146 244 l 1,37,38
 348 145 348 145 580 132 c 1,39,-1
 580 712 l 1,40,-1
 433 749 l 2,41,42
 96 834 96 834 96 1109 c 0,43,44
 96 1306 96 1306 224 1408.5 c 128,-1,45
 352 1511 352 1511 580 1523 c 1,46,-1
 580 1693 l 1,14,-1
EndSplineSet
EndChar

StartChar: percent
Encoding: 37 37 8
Width: 1877
GlyphClass: 2
Flags: HW
LayerCount: 2
Fore
SplineSet
560 1298.5 m 128,-1,1
 509 1378 509 1378 419.5 1378 c 128,-1,2
 330 1378 330 1378 280 1298 c 128,-1,3
 230 1218 230 1218 230 1103.5 c 128,-1,4
 230 989 230 989 279.5 916.5 c 128,-1,5
 329 844 329 844 420 844 c 128,-1,6
 511 844 511 844 561 918.5 c 128,-1,7
 611 993 611 993 611 1106 c 128,-1,0
 611 1219 611 1219 560 1298.5 c 128,-1,1
189.5 1380 m 128,-1,9
 276 1489 276 1489 420.5 1489 c 128,-1,10
 565 1489 565 1489 652.5 1380.5 c 128,-1,11
 740 1272 740 1272 740 1106 c 128,-1,12
 740 940 740 940 652 834 c 128,-1,13
 564 728 564 728 419.5 728 c 128,-1,14
 275 728 275 728 189 833.5 c 128,-1,15
 103 939 103 939 103 1105 c 128,-1,8
 103 1271 103 1271 189.5 1380 c 128,-1,9
401 -4 m 1,16,-1
 1196 1462 l 1,17,-1
 1358 1462 l 1,18,-1
 536 -4 l 1,19,-1
 401 -4 l 1,16,-1
1431 640 m 128,-1,21
 1324 640 1324 640 1264.5 561 c 128,-1,22
 1205 482 1205 482 1205 368 c 128,-1,23
 1205 254 1205 254 1264.5 176 c 128,-1,24
 1324 98 1324 98 1431 98 c 128,-1,25
 1538 98 1538 98 1597.5 177 c 128,-1,26
 1657 256 1657 256 1657 370 c 128,-1,27
 1657 484 1657 484 1597.5 562 c 128,-1,20
 1538 640 1538 640 1431 640 c 128,-1,21
1172 646 m 128,-1,29
 1265 754 1265 754 1432.5 754 c 128,-1,30
 1600 754 1600 754 1692 647.5 c 128,-1,31
 1784 541 1784 541 1784 371 c 128,-1,32
 1784 201 1784 201 1690.5 93 c 128,-1,33
 1597 -15 1597 -15 1430 -15 c 128,-1,34
 1263 -15 1263 -15 1171 92.5 c 128,-1,35
 1079 200 1079 200 1079 369 c 128,-1,28
 1079 538 1079 538 1172 646 c 128,-1,29
EndSplineSet
EndChar

StartChar: ampersand
Encoding: 38 38 9
Width: 1477
GlyphClass: 2
Flags: HW
LayerCount: 2
Fore
SplineSet
801 1299.5 m 128,-1,1
 744 1345 744 1345 655.5 1345 c 128,-1,2
 567 1345 567 1345 511 1297.5 c 128,-1,3
 455 1250 455 1250 455 1173.5 c 128,-1,4
 455 1097 455 1097 491.5 1040.5 c 128,-1,5
 528 984 528 984 605 910 c 1,6,7
 800 1006 800 1006 840 1087 c 0,8,9
 858 1125 858 1125 858 1171 c 0,10,0
 858 1254 858 1254 801 1299.5 c 128,-1,1
985 259 m 1,11,-1
 544 726 l 1,12,13
 418 662 418 662 349.5 586 c 128,-1,14
 281 510 281 510 281 393.5 c 128,-1,15
 281 277 281 277 373 204.5 c 128,-1,16
 465 132 465 132 645 132 c 128,-1,17
 825 132 825 132 985 259 c 1,11,-1
441 839 m 1,18,19
 348 940 348 940 308 1008 c 128,-1,20
 268 1076 268 1076 268 1165 c 0,21,22
 268 1314 268 1314 373.5 1401.5 c 128,-1,23
 479 1489 479 1489 657 1489 c 0,24,25
 884 1488 884 1488 990 1352 c 0,26,27
 1046 1280 1046 1280 1046 1199 c 0,28,29
 1046 1057 1046 1057 950 964.5 c 128,-1,30
 854 872 854 872 707 804 c 1,31,-1
 1108 375 l 1,32,33
 1188 459 1188 459 1250 599 c 1,34,-1
 1371 507 l 1,35,36
 1309 371 1309 371 1212 257 c 1,37,-1
 1393 41 l 1,38,39
 1319 13 1319 13 1236 -11 c 1,40,-1
 1100 143 l 1,41,42
 894 -23 894 -23 630.5 -23 c 128,-1,43
 367 -23 367 -23 235.5 87.5 c 128,-1,44
 104 198 104 198 104 395 c 0,45,46
 104 548 104 548 190.5 652 c 128,-1,47
 277 756 277 756 441 839 c 1,18,19
EndSplineSet
EndChar

StartChar: quotesingle
Encoding: 39 39 10
Width: 423
GlyphClass: 2
Flags: HW
LayerCount: 2
Fore
SplineSet
283 1486 m 1,0,-1
 263 975 l 1,1,-1
 148 975 l 1,2,-1
 127 1486 l 1,3,-1
 283 1486 l 1,0,-1
EndSplineSet
EndChar

StartChar: parenleft
Encoding: 40 40 11
Width: 609
GlyphClass: 2
Flags: HW
LayerCount: 2
Fore
SplineSet
103 598 m 0,0,1
 103 1088 103 1088 376 1486 c 1,2,-1
 531 1486 l 1,3,4
 273 1084 273 1084 273 602 c 0,5,6
 273 376 273 376 341 146 c 128,-1,7
 409 -84 409 -84 531 -271 c 1,8,-1
 378 -271 l 1,9,10
 249 -92 249 -92 176 132.5 c 128,-1,11
 103 357 103 357 103 598 c 0,0,1
EndSplineSet
EndChar

StartChar: parenright
Encoding: 41 41 12
Width: 609
GlyphClass: 2
Flags: HW
LayerCount: 2
Fore
SplineSet
506 598 m 0,0,1
 506 357 506 357 433 133 c 128,-1,2
 360 -91 360 -91 230 -271 c 1,3,-1
 78 -271 l 1,4,5
 200 -84 200 -84 268 146 c 128,-1,6
 336 376 336 376 336 602 c 0,7,8
 336 1082 336 1082 77 1486 c 1,9,-1
 232 1486 l 1,10,11
 506 1082 506 1082 506 598 c 0,0,1
EndSplineSet
EndChar

StartChar: asterisk
Encoding: 42 42 13
Width: 1105
GlyphClass: 2
Flags: HW
LayerCount: 2
Fore
SplineSet
901 675 m 1,0,-1
 747 581 l 1,1,-1
 547 943 l 1,2,-1
 358 581 l 1,3,-1
 202 675 l 1,4,-1
 450 1008 l 1,5,-1
 87 1091 l 1,6,-1
 137 1262 l 1,7,-1
 494 1111 l 1,8,-1
 457 1522 l 1,9,-1
 643 1522 l 1,10,-1
 607 1111 l 1,11,-1
 966 1262 l 1,12,-1
 1016 1091 l 1,13,-1
 649 1008 l 1,14,-1
 901 675 l 1,0,-1
EndSplineSet
EndChar

StartChar: plus
Encoding: 43 43 14
Width: 1126
GlyphClass: 2
Flags: HW
LayerCount: 2
Fore
SplineSet
637 718 m 1,0,-1
 1027 718 l 1,1,-1
 1027 582 l 1,2,-1
 636 582 l 1,3,-1
 636 153 l 1,4,-1
 499 153 l 1,5,-1
 499 582 l 1,6,-1
 102 582 l 1,7,-1
 102 718 l 1,8,-1
 500 718 l 1,9,-1
 500 1142 l 1,10,-1
 637 1142 l 1,11,-1
 637 718 l 1,0,-1
EndSplineSet
EndChar

StartChar: comma
Encoding: 44 44 15
Width: 505
GlyphClass: 2
Flags: HW
LayerCount: 2
Fore
SplineSet
109 -278 m 1,0,1
 112 -248 112 -248 132 -74 c 128,-1,2
 152 100 152 100 161 234 c 1,3,-1
 358 234 l 1,4,-1
 358 190 l 1,5,6
 309 -8 309 -8 214 -278 c 1,7,-1
 109 -278 l 1,0,1
EndSplineSet
EndChar

StartChar: hyphen
Encoding: 45 45 16
Width: 672
GlyphClass: 2
Flags: HW
LayerCount: 2
Fore
SplineSet
86 497 m 1,0,-1
 86 644 l 1,1,-1
 586 644 l 1,2,-1
 586 497 l 1,3,-1
 86 497 l 1,0,-1
EndSplineSet
EndChar

StartChar: period
Encoding: 46 46 17
Width: 494
GlyphClass: 2
Flags: HW
LayerCount: 2
Fore
SplineSet
359 27 m 128,-1,1
 324 -12 324 -12 261.5 -12 c 128,-1,2
 199 -12 199 -12 163.5 27.5 c 128,-1,3
 128 67 128 67 128 120.5 c 128,-1,4
 128 174 128 174 163 213 c 128,-1,5
 198 252 198 252 261 252 c 128,-1,6
 324 252 324 252 359 213 c 128,-1,7
 394 174 394 174 394 120 c 128,-1,0
 394 66 394 66 359 27 c 128,-1,1
EndSplineSet
EndChar

StartChar: slash
Encoding: 47 47 18
Width: 952
GlyphClass: 2
Flags: HW
LayerCount: 2
Fore
SplineSet
194 -218 m 1,0,-1
 50 -218 l 1,1,-1
 726 1466 l 1,2,-1
 872 1466 l 1,3,-1
 194 -218 l 1,0,-1
EndSplineSet
EndChar

StartChar: zero
Encoding: 48 48 19
Width: 1241
GlyphClass: 2
Flags: HW
LayerCount: 2
Fore
SplineSet
622 1353 m 128,-1,1
 520 1353 520 1353 447 1274 c 0,2,3
 301 1116 301 1116 301 744 c 128,-1,4
 301 372 301 372 447 210 c 0,5,6
 520 130 520 130 622 130 c 128,-1,7
 724 130 724 130 797 210 c 0,8,9
 943 371 943 371 943 743.5 c 128,-1,10
 943 1116 943 1116 797 1274 c 0,11,0
 724 1353 724 1353 622 1353 c 128,-1,1
622 -23 m 0,12,13
 489 -23 489 -23 388.5 35.5 c 128,-1,14
 288 94 288 94 228 198 c 0,15,16
 109 402 109 402 109 735 c 0,17,18
 109 738 109 738 109 741 c 0,19,20
 109 1218 109 1218 335 1406 c 0,21,22
 452 1504 452 1504 622 1504 c 0,23,24
 924 1504 924 1504 1052 1205 c 0,25,26
 1132 1019 1132 1019 1132 711 c 128,-1,27
 1132 403 1132 403 1010 190 c 128,-1,28
 888 -23 888 -23 622 -23 c 0,12,13
EndSplineSet
EndChar

StartChar: one
Encoding: 49 49 20
Width: 626
GlyphClass: 2
Flags: HW
LayerCount: 2
Fore
SplineSet
302 1479 m 1,0,-1
 461 1479 l 1,1,-1
 461 0 l 1,2,-1
 284 0 l 1,3,-1
 284 1294 l 1,4,5
 183 1228 183 1228 37 1181 c 1,6,-1
 37 1348 l 1,7,8
 52 1355 52 1355 102 1376 c 0,9,10
 236 1433 236 1433 302 1479 c 1,0,-1
EndSplineSet
EndChar

StartChar: two
Encoding: 50 50 21
Width: 1116
GlyphClass: 2
Flags: HW
LayerCount: 2
Fore
SplineSet
536 1353 m 0,0,1
 324 1353 324 1353 202 1225 c 1,2,-1
 144 1375 l 1,3,4
 282 1504 282 1504 548 1504 c 0,5,6
 752 1504 752 1504 873 1393.5 c 128,-1,7
 994 1283 994 1283 994 1099 c 0,8,9
 994 977 994 977 926 860 c 128,-1,10
 858 743 858 743 728 605 c 2,11,-1
 306 154 l 1,12,-1
 999 154 l 1,13,-1
 988 0 l 1,14,-1
 113 0 l 1,15,-1
 90 164 l 1,16,-1
 607 738 l 2,17,18
 740 886 740 886 759 929 c 0,19,20
 801 1020 801 1020 801 1087 c 0,21,22
 801 1213 801 1213 732 1283 c 128,-1,23
 663 1353 663 1353 536 1353 c 0,0,1
EndSplineSet
EndChar

StartChar: three
Encoding: 51 51 22
Width: 1103
GlyphClass: 2
Flags: HW
LayerCount: 2
Fore
SplineSet
491 1352 m 0,0,1
 291 1352 291 1352 159 1248 c 1,2,-1
 104 1393 l 1,3,4
 251 1504 251 1504 529 1504 c 0,5,6
 697 1504 697 1504 823 1410 c 0,7,8
 883 1366 883 1366 918 1295.5 c 128,-1,9
 953 1225 953 1225 953 1139 c 0,10,11
 953 1001 953 1001 885 911.5 c 128,-1,12
 817 822 817 822 693 784 c 1,13,14
 831 754 831 754 910 655.5 c 128,-1,15
 989 557 989 557 989 416.5 c 128,-1,16
 989 276 989 276 924.5 178 c 128,-1,17
 860 80 860 80 747.5 28.5 c 128,-1,18
 635 -23 635 -23 496.5 -23 c 128,-1,19
 358 -23 358 -23 255 12 c 128,-1,20
 152 47 152 47 104 92 c 1,21,-1
 159 238 l 1,22,23
 299 128 299 128 492 128 c 0,24,25
 640 128 640 128 728 201.5 c 128,-1,26
 816 275 816 275 816 408 c 0,27,28
 816 614 816 614 648 674 c 0,29,30
 547 710 547 710 379 710 c 2,31,-1
 320 710 l 1,32,-1
 320 857 l 1,33,-1
 369 857 l 1,34,35
 600 864 600 864 682 929 c 128,-1,36
 764 994 764 994 763 1117 c 1,37,38
 763 1352 763 1352 491 1352 c 0,0,1
EndSplineSet
EndChar

StartChar: four
Encoding: 52 52 23
Width: 1211
GlyphClass: 2
Flags: HW
LayerCount: 2
Fore
SplineSet
784 1272 m 1,0,-1
 284 516 l 1,1,-1
 784 516 l 1,2,-1
 784 1272 l 1,0,-1
1122 371 m 1,3,-1
 952 371 l 1,4,-1
 952 0 l 1,5,-1
 784 0 l 1,6,-1
 784 371 l 1,7,-1
 108 371 l 1,8,-1
 108 524 l 1,9,-1
 765 1479 l 1,10,-1
 952 1479 l 1,11,-1
 952 516 l 1,12,-1
 1136 516 l 1,13,-1
 1122 371 l 1,3,-1
EndSplineSet
EndChar

StartChar: five
Encoding: 53 53 24
Width: 1177
GlyphClass: 2
Flags: HW
LayerCount: 2
Fore
SplineSet
1004 1479 m 1,0,-1
 990 1315 l 1,1,-1
 379 1315 l 1,2,3
 369 1031 369 1031 364 861 c 1,4,5
 476 934 476 934 598 934 c 0,6,7
 600 934 600 934 602 934 c 0,8,9
 830 934 830 934 946 804 c 0,10,11
 1064 673 1064 673 1064 461.5 c 128,-1,12
 1064 250 1064 250 918.5 113.5 c 128,-1,13
 773 -23 773 -23 522.5 -23 c 128,-1,14
 272 -23 272 -23 121 114 c 1,15,-1
 186 255 l 1,16,17
 334 139 334 139 513.5 139 c 128,-1,18
 693 139 693 139 788 232 c 128,-1,19
 883 325 883 325 883 467 c 128,-1,20
 883 609 883 609 803 692.5 c 128,-1,21
 723 776 723 776 575 776 c 128,-1,22
 427 776 427 776 337 677 c 1,23,-1
 198 696 l 1,24,-1
 237 1479 l 1,25,-1
 1004 1479 l 1,0,-1
EndSplineSet
EndChar

StartChar: six
Encoding: 54 54 25
Width: 1199
GlyphClass: 2
Flags: HW
LayerCount: 2
Fore
SplineSet
292 453 m 0,0,1
 292 262 292 262 430 174 c 0,2,3
 500 129 500 129 597 129 c 0,4,5
 599 129 599 129 601 129 c 0,6,7
 749 129 749 129 833.5 220 c 128,-1,8
 918 311 918 311 918 449.5 c 128,-1,9
 918 588 918 588 833.5 679.5 c 128,-1,10
 749 771 749 771 596.5 771 c 128,-1,11
 444 771 444 771 368 682 c 128,-1,12
 292 593 292 593 292 453 c 0,0,1
412 861 m 1,13,14
 525 921 525 921 644 921 c 128,-1,15
 763 921 763 921 870 861.5 c 128,-1,16
 977 802 977 802 1042 692.5 c 128,-1,17
 1107 583 1107 583 1107 449 c 0,18,19
 1107 245 1107 245 969.5 111 c 128,-1,20
 832 -23 832 -23 607 -23 c 0,21,22
 604 -23 604 -23 601 -23 c 0,23,24
 487 -23 487 -23 393 16 c 0,25,26
 296 56 296 56 234 124 c 0,27,28
 103 265 103 265 103 469 c 0,29,30
 103 635 103 635 162.5 763.5 c 128,-1,31
 222 892 222 892 352.5 1055 c 128,-1,32
 483 1218 483 1218 644 1405 c 1,33,-1
 707 1479 l 1,34,-1
 938 1479 l 1,35,-1
 412 861 l 1,13,14
EndSplineSet
EndChar

StartChar: seven
Encoding: 55 55 26
Width: 1052
GlyphClass: 2
Flags: HW
LayerCount: 2
Fore
SplineSet
261 0 m 1,0,-1
 775 1324 l 1,1,-1
 100 1324 l 1,2,-1
 111 1479 l 1,3,-1
 978 1479 l 1,4,-1
 978 1343 l 1,5,-1
 443 0 l 1,6,-1
 261 0 l 1,0,-1
EndSplineSet
EndChar

StartChar: eight
Encoding: 56 56 27
Width: 1182
GlyphClass: 2
Flags: HW
LayerCount: 2
Fore
SplineSet
792 1296.5 m 128,-1,1
 711 1353 711 1353 593.5 1353 c 128,-1,2
 476 1353 476 1353 393.5 1296.5 c 128,-1,3
 311 1240 311 1240 311 1140 c 0,4,5
 311 905 311 905 594 842 c 1,6,7
 873 905 873 905 873 1140 c 0,8,0
 873 1240 873 1240 792 1296.5 c 128,-1,1
594 692 m 1,9,10
 451 660 451 660 365 585.5 c 128,-1,11
 279 511 279 511 279 392.5 c 128,-1,12
 279 274 279 274 368 201.5 c 128,-1,13
 457 129 457 129 594 129 c 128,-1,14
 731 129 731 129 817.5 201.5 c 128,-1,15
 904 274 904 274 904 392.5 c 128,-1,16
 904 511 904 511 820 585.5 c 128,-1,17
 736 660 736 660 594 692 c 1,9,10
1049 1136 m 0,18,19
 1049 879 1049 879 791 777 c 1,20,21
 926 730 926 730 1003 627 c 128,-1,22
 1080 524 1080 524 1080 385 c 0,23,24
 1080 193 1080 193 941.5 85 c 128,-1,25
 803 -23 803 -23 594 -23 c 0,26,27
 305 -23 305 -23 171 162 c 0,28,29
 103 256 103 256 103 390.5 c 128,-1,30
 103 525 103 525 185 627.5 c 128,-1,31
 267 730 267 730 414 777 c 1,32,33
 134 876 134 876 134 1136 c 0,34,35
 134 1308 134 1308 262 1406 c 128,-1,36
 390 1504 390 1504 593.5 1504 c 128,-1,37
 797 1504 797 1504 923 1406.5 c 128,-1,38
 1049 1309 1049 1309 1049 1136 c 0,18,19
EndSplineSet
EndChar

StartChar: nine
Encoding: 57 57 28
Width: 1165
GlyphClass: 2
Flags: HW
LayerCount: 2
Fore
SplineSet
825.5 815 m 128,-1,1
 901 902 901 902 901 1040 c 128,-1,2
 901 1178 901 1178 823.5 1265.5 c 128,-1,3
 746 1353 746 1353 597.5 1353 c 128,-1,4
 449 1353 449 1353 362 1261.5 c 128,-1,5
 275 1170 275 1170 275 1033 c 128,-1,6
 275 896 275 896 359 812 c 128,-1,7
 443 728 443 728 596.5 728 c 128,-1,0
 750 728 750 728 825.5 815 c 128,-1,1
781 638 m 1,8,9
 668 578 668 578 548.5 578 c 128,-1,10
 429 578 429 578 322.5 633.5 c 128,-1,11
 216 689 216 689 151 794 c 128,-1,12
 86 899 86 899 86 1033 c 0,13,14
 86 1236 86 1236 226 1370 c 128,-1,15
 366 1504 366 1504 592 1504 c 0,16,17
 748 1504 748 1504 862 1439 c 0,18,19
 1090 1310 1090 1310 1090 1022 c 0,20,21
 1090 879 1090 879 1041 763 c 128,-1,22
 992 647 992 647 872 484 c 1,23,24
 776 361 776 361 549 94 c 1,25,-1
 470 0 l 1,26,-1
 250 0 l 1,27,-1
 781 638 l 1,8,9
EndSplineSet
EndChar

StartChar: colon
Encoding: 58 58 29
Width: 494
GlyphClass: 2
Flags: HW
LayerCount: 2
Fore
SplineSet
146 -25 m 1,0,-1
 146 208 l 1,1,-1
 352 208 l 1,2,-1
 352 -25 l 1,3,-1
 146 -25 l 1,0,-1
146 893 m 1,4,-1
 146 1124 l 1,5,-1
 352 1124 l 1,6,-1
 352 893 l 1,7,-1
 146 893 l 1,4,-1
EndSplineSet
EndChar

StartChar: semicolon
Encoding: 59 59 30
Width: 518
GlyphClass: 2
Flags: HW
LayerCount: 2
Fore
SplineSet
376 197 m 1,0,-1
 251 -310 l 1,1,-1
 138 -310 l 1,2,-1
 194 197 l 1,3,-1
 376 197 l 1,0,-1
174 893 m 1,4,-1
 174 1124 l 1,5,-1
 380 1124 l 1,6,-1
 380 893 l 1,7,-1
 174 893 l 1,4,-1
EndSplineSet
EndChar

StartChar: less
Encoding: 60 60 31
Width: 1175
GlyphClass: 2
Flags: HW
LayerCount: 2
Fore
SplineSet
1061 146 m 1,0,-1
 103 605 l 1,1,-1
 103 702 l 1,2,-1
 1063 1195 l 1,3,-1
 1063 1037 l 1,4,-1
 288 658 l 1,5,-1
 1061 304 l 1,6,-1
 1061 146 l 1,0,-1
EndSplineSet
EndChar

StartChar: equal
Encoding: 61 61 32
Width: 1228
GlyphClass: 2
Flags: HW
LayerCount: 2
Fore
SplineSet
131 799 m 1,0,-1
 131 943 l 1,1,-1
 1097 943 l 1,2,-1
 1097 799 l 1,3,-1
 131 799 l 1,0,-1
132 377 m 1,4,-1
 132 519 l 1,5,-1
 1097 519 l 1,6,-1
 1097 377 l 1,7,-1
 132 377 l 1,4,-1
EndSplineSet
EndChar

StartChar: greater
Encoding: 62 62 33
Width: 1176
GlyphClass: 2
Flags: HW
LayerCount: 2
Fore
SplineSet
115 311 m 1,0,-1
 889 658 l 1,1,-1
 117 1044 l 1,2,-1
 117 1200 l 1,3,-1
 1075 701 l 1,4,-1
 1075 604 l 1,5,-1
 115 152 l 1,6,-1
 115 311 l 1,0,-1
EndSplineSet
EndChar

StartChar: question
Encoding: 63 63 34
Width: 865
GlyphClass: 2
Flags: HW
LayerCount: 2
Fore
SplineSet
242 120 m 128,-1,1
 242 173 242 173 277.5 212.5 c 128,-1,2
 313 252 313 252 375.5 252 c 128,-1,3
 438 252 438 252 473 213 c 128,-1,4
 508 174 508 174 508 120 c 128,-1,5
 508 66 508 66 473 27 c 128,-1,6
 438 -12 438 -12 375.5 -12 c 128,-1,7
 313 -12 313 -12 277.5 27.5 c 128,-1,0
 242 67 242 67 242 120 c 128,-1,1
602 1185 m 0,8,9
 602 1373 602 1373 364 1373 c 0,10,11
 248 1373 248 1373 118 1292 c 1,12,-1
 73 1427 l 1,13,14
 196 1524 196 1524 381 1524 c 128,-1,15
 566 1524 566 1524 665.5 1438.5 c 128,-1,16
 765 1353 765 1353 765 1204.5 c 128,-1,17
 765 1056 765 1056 680 908 c 0,18,19
 640 838 640 838 556 712 c 128,-1,20
 472 586 472 586 404 435 c 1,21,-1
 317 435 l 1,22,23
 317 552 317 552 418 744 c 0,24,25
 460 824 460 824 502 902 c 0,26,27
 602 1090 602 1090 602 1185 c 0,8,9
EndSplineSet
EndChar

StartChar: at
Encoding: 64 64 35
Width: 1814
GlyphClass: 2
Flags: HW
LayerCount: 2
Fore
SplineSet
854 396 m 0,0,1
 1035 396 1035 396 1077 730 c 0,2,3
 1086 801 1086 801 1103 958 c 1,4,5
 1046 978 1046 978 955.5 978 c 0,6,7
 866 978 866 978 802 927 c 0,8,9
 680 829 680 829 680 612.5 c 128,-1,10
 680 396 680 396 854 396 c 0,0,1
1703 784 m 0,11,12
 1703 667 1703 667 1667.5 566 c 128,-1,13
 1632 465 1632 465 1574 399 c 0,14,15
 1450 259 1450 259 1290 259 c 0,16,17
 1209 259 1209 259 1155 304 c 128,-1,18
 1101 349 1101 349 1090 430 c 1,19,20
 1045 366 1045 366 977 317 c 128,-1,21
 909 268 909 268 822 268 c 0,22,23
 692 268 692 268 615 361.5 c 128,-1,24
 538 455 538 455 538 616 c 0,25,26
 538 823 538 823 649.5 961 c 128,-1,27
 761 1099 761 1099 956 1099 c 0,28,29
 1099 1099 1099 1099 1260 1044 c 1,30,31
 1252 994 1252 994 1238 900 c 0,32,33
 1193 609 1193 609 1195 523 c 1,34,35
 1195 381 1195 381 1306 381 c 0,36,37
 1407 381 1407 381 1489.5 501.5 c 128,-1,38
 1572 622 1572 622 1572 791 c 0,39,40
 1572 1056 1572 1056 1396.5 1212 c 128,-1,41
 1221 1368 1221 1368 942 1368 c 0,42,43
 741 1368 741 1368 581.5 1275 c 128,-1,44
 422 1182 422 1182 333.5 1018 c 128,-1,45
 245 854 245 854 245 649 c 0,46,47
 245 343 245 343 419.5 169 c 128,-1,48
 594 -5 594 -5 886 -5 c 0,49,50
 1135 -5 1135 -5 1332 108 c 1,51,-1
 1367 -3 l 1,52,53
 1177 -131 1177 -131 885 -131 c 0,54,55
 535 -131 535 -131 323 78 c 128,-1,56
 111 287 111 287 111 645 c 0,57,58
 111 823 111 823 173.5 980 c 128,-1,59
 236 1137 236 1137 345.5 1249.5 c 128,-1,60
 455 1362 455 1362 612 1427 c 128,-1,61
 769 1492 769 1492 967 1492 c 128,-1,62
 1165 1492 1165 1492 1335 1406 c 128,-1,63
 1505 1320 1505 1320 1604 1158 c 128,-1,64
 1703 996 1703 996 1703 784 c 0,11,12
EndSplineSet
EndChar

StartChar: A
Encoding: 65 65 36
Width: 1302
GlyphClass: 2
Flags: HW
LayerCount: 2
Fore
SplineSet
1121 0 m 1,0,-1
 948 469 l 1,1,-1
 358 469 l 1,2,-1
 179 0 l 1,3,-1
 3 0 l 1,4,-1
 571 1479 l 1,5,-1
 748 1479 l 1,6,-1
 1299 0 l 1,7,-1
 1121 0 l 1,0,-1
892 614 m 1,8,9
 681 1227 681 1227 659 1303 c 1,10,-1
 416 614 l 1,11,-1
 892 614 l 1,8,9
EndSplineSet
EndChar

StartChar: B
Encoding: 66 66 37
Width: 1286
GlyphClass: 2
Flags: HW
LayerCount: 2
Fore
SplineSet
174 1479 m 1,0,-1
 598 1479 l 2,1,2
 883 1479 883 1479 1020.5 1392 c 128,-1,3
 1158 1305 1158 1305 1158 1121.5 c 128,-1,4
 1158 938 1158 938 1024 840 c 0,5,6
 976 804 976 804 910 783 c 1,7,8
 1059 755 1059 755 1136 657 c 128,-1,9
 1213 559 1213 559 1213 421 c 0,10,11
 1213 220 1213 220 1081.5 110 c 128,-1,12
 950 0 950 0 690 0 c 2,13,-1
 174 0 l 1,14,-1
 174 1479 l 1,0,-1
347 843 m 1,15,-1
 664 843 l 2,16,17
 819 843 819 843 898 897 c 128,-1,18
 977 951 977 951 977 1089.5 c 128,-1,19
 977 1228 977 1228 882.5 1280.5 c 128,-1,20
 788 1333 788 1333 589 1333 c 2,21,-1
 347 1333 l 1,22,-1
 347 843 l 1,15,-1
347 704 m 1,23,-1
 347 142 l 1,24,-1
 656 142 l 2,25,26
 844 142 844 142 938 211.5 c 128,-1,27
 1032 281 1032 281 1032 431 c 128,-1,28
 1032 581 1032 581 930.5 642.5 c 128,-1,29
 829 704 829 704 614 704 c 2,30,-1
 347 704 l 1,23,-1
EndSplineSet
EndChar

StartChar: C
Encoding: 67 67 38
Width: 1290
GlyphClass: 2
Flags: HW
LayerCount: 2
Fore
SplineSet
1173 1253 m 1,0,1
 1009 1352 1009 1352 832.5 1352 c 128,-1,2
 656 1352 656 1352 536 1271 c 0,3,4
 298 1111 298 1111 297 738 c 0,5,6
 297 468 297 468 428.5 299.5 c 128,-1,7
 560 131 560 131 827 130 c 0,8,9
 998 130 998 130 1181 219 c 1,10,-1
 1210 72 l 1,11,12
 1061 -22 1061 -22 807 -22 c 0,13,14
 470 -22 470 -22 291 187.5 c 128,-1,15
 112 397 112 397 112 739.5 c 128,-1,16
 112 1082 112 1082 300 1292 c 0,17,18
 390 1392 390 1392 523.5 1448 c 128,-1,19
 657 1504 657 1504 821 1504 c 0,20,21
 1070 1504 1070 1504 1241 1394 c 1,22,-1
 1173 1253 l 1,0,1
EndSplineSet
EndChar

StartChar: D
Encoding: 68 68 39
Width: 1502
GlyphClass: 2
Flags: HW
LayerCount: 2
Fore
SplineSet
1185 190 m 128,-1,1
 980 0 980 0 613 0 c 2,2,-1
 174 0 l 1,3,-1
 174 1479 l 1,4,-1
 584 1479 l 2,5,6
 586 1479 586 1479 588 1479 c 0,7,8
 955 1479 955 1479 1172 1301 c 0,9,10
 1390 1122 1390 1122 1390 751 c 128,-1,0
 1390 380 1390 380 1185 190 c 128,-1,1
1052.5 298.5 m 128,-1,12
 1205 446 1205 446 1205 746 c 128,-1,13
 1205 1046 1205 1046 1045 1187 c 128,-1,14
 885 1328 885 1328 579 1328 c 2,15,-1
 347 1328 l 1,16,-1
 347 151 l 1,17,-1
 608 151 l 2,18,11
 900 151 900 151 1052.5 298.5 c 128,-1,12
EndSplineSet
EndChar

StartChar: E
Encoding: 69 69 40
Width: 1143
GlyphClass: 2
Flags: HW
LayerCount: 2
Fore
SplineSet
174 0 m 1,0,-1
 174 1479 l 1,1,-1
 1022 1479 l 1,2,-1
 1015 1326 l 1,3,-1
 347 1326 l 1,4,-1
 347 842 l 1,5,-1
 982 842 l 1,6,-1
 982 691 l 1,7,-1
 347 691 l 1,8,-1
 347 153 l 1,9,-1
 1037 153 l 1,10,-1
 1029 0 l 1,11,-1
 174 0 l 1,0,-1
EndSplineSet
EndChar

StartChar: F
Encoding: 70 70 41
Width: 1041
GlyphClass: 2
Flags: HW
LayerCount: 2
Fore
SplineSet
347 0 m 1,0,-1
 174 0 l 1,1,-1
 174 1479 l 1,2,-1
 995 1479 l 1,3,-1
 988 1326 l 1,4,-1
 347 1326 l 1,5,-1
 347 807 l 1,6,-1
 958 807 l 1,7,-1
 958 660 l 1,8,-1
 347 660 l 1,9,-1
 347 0 l 1,0,-1
EndSplineSet
EndChar

StartChar: G
Encoding: 71 71 42
Width: 1461
GlyphClass: 2
Flags: HW
LayerCount: 2
Fore
SplineSet
1087.5 3.5 m 128,-1,1
 970 -22 970 -22 810 -22 c 128,-1,2
 650 -22 650 -22 516 34 c 128,-1,3
 382 90 382 90 294 192 c 0,4,5
 114 401 114 401 113 738 c 0,6,7
 113 962 113 962 198 1134 c 128,-1,8
 283 1306 283 1306 451 1405 c 128,-1,9
 619 1504 619 1504 861.5 1504 c 128,-1,10
 1104 1504 1104 1504 1297 1388 c 1,11,-1
 1231 1245 l 1,12,13
 1045 1352 1045 1352 851 1352 c 0,14,15
 580 1352 580 1352 439 1180 c 0,16,17
 297 1007 297 1007 297 730 c 0,18,19
 298 456 298 456 438 292 c 0,20,21
 578 128 578 128 852 129 c 0,22,23
 1008 129 1008 129 1169 192 c 1,24,-1
 1169 614 l 1,25,-1
 820 614 l 1,26,-1
 826 765 l 1,27,-1
 1331 765 l 1,28,-1
 1331 89 l 1,29,0
 1205 29 1205 29 1087.5 3.5 c 128,-1,1
EndSplineSet
EndChar

StartChar: H
Encoding: 72 72 43
Width: 1488
GlyphClass: 2
Flags: HW
LayerCount: 2
Fore
SplineSet
1314 0 m 1,0,-1
 1141 0 l 1,1,-1
 1141 692 l 1,2,-1
 347 692 l 1,3,-1
 347 0 l 1,4,-1
 174 0 l 1,5,-1
 174 1479 l 1,6,-1
 347 1479 l 1,7,-1
 347 844 l 1,8,-1
 1141 844 l 1,9,-1
 1141 1479 l 1,10,-1
 1314 1479 l 1,11,-1
 1314 0 l 1,0,-1
EndSplineSet
EndChar

StartChar: I
Encoding: 73 73 44
Width: 540
GlyphClass: 2
Flags: HW
LayerCount: 2
Fore
SplineSet
355 0 m 1,0,-1
 182 0 l 1,1,-1
 182 1479 l 1,2,-1
 355 1479 l 1,3,-1
 355 0 l 1,0,-1
EndSplineSet
EndChar

StartChar: J
Encoding: 74 74 45
Width: 550
GlyphClass: 2
Flags: HW
LayerCount: 2
Fore
SplineSet
226 181 m 2,0,-1
 226 1479 l 1,1,-1
 403 1479 l 1,2,-1
 403 241 l 2,3,4
 403 236 403 236 403 231 c 0,5,6
 403 9 403 9 361 -70 c 0,7,8
 318 -150 318 -150 237.5 -182 c 128,-1,9
 157 -214 157 -214 16 -214 c 2,10,-1
 -19 -214 l 1,11,-1
 -40 -72 l 1,12,-1
 34 -72 l 2,13,14
 180 -72 180 -72 210 29 c 0,15,16
 226 82 226 82 226 181 c 2,0,-1
EndSplineSet
EndChar

StartChar: K
Encoding: 75 75 46
Width: 1242
GlyphClass: 2
Flags: HW
LayerCount: 2
Fore
SplineSet
1260 0 m 1,0,-1
 1048 0 l 1,1,-1
 482 706 l 1,2,-1
 347 587 l 1,3,-1
 347 0 l 1,4,-1
 173 0 l 1,5,-1
 173 1479 l 1,6,-1
 347 1479 l 1,7,-1
 347 753 l 1,8,-1
 997 1479 l 1,9,-1
 1214 1479 l 1,10,-1
 614 813 l 1,11,-1
 1260 0 l 1,0,-1
EndSplineSet
EndChar

StartChar: L
Encoding: 76 76 47
Width: 1021
GlyphClass: 2
Flags: HW
LayerCount: 2
Fore
SplineSet
174 0 m 1,0,-1
 174 1479 l 1,1,-1
 348 1479 l 1,2,-1
 348 154 l 1,3,-1
 999 154 l 1,4,-1
 993 0 l 1,5,-1
 174 0 l 1,0,-1
EndSplineSet
EndChar

StartChar: M
Encoding: 77 77 48
Width: 1817
GlyphClass: 2
Flags: HW
LayerCount: 2
Fore
SplineSet
822 91 m 1,0,-1
 368 1147 l 1,1,-1
 330 1248 l 1,2,-1
 337 886 l 1,3,-1
 337 0 l 1,4,-1
 175 0 l 1,5,-1
 175 1479 l 1,6,-1
 399 1479 l 1,7,-1
 914 301 l 1,8,-1
 1424 1479 l 1,9,-1
 1642 1479 l 1,10,-1
 1642 0 l 1,11,-1
 1474 0 l 1,12,-1
 1474 890 l 1,13,-1
 1481 1244 l 1,14,-1
 1444 1143 l 1,15,-1
 991 91 l 1,16,-1
 822 91 l 1,0,-1
EndSplineSet
EndChar

StartChar: N
Encoding: 78 78 49
Width: 1516
GlyphClass: 2
Flags: HW
LayerCount: 2
Fore
SplineSet
1342 0 m 1,0,-1
 1146 0 l 1,1,-1
 378 1164 l 1,2,-1
 328 1233 l 1,3,4
 336 1023 336 1023 336 858 c 2,5,-1
 336 0 l 1,6,-1
 174 0 l 1,7,-1
 174 1479 l 1,8,-1
 367 1479 l 1,9,-1
 1137 315 l 1,10,-1
 1188 246 l 1,11,12
 1181 565 1181 565 1181 615 c 2,13,-1
 1181 1479 l 1,14,-1
 1342 1479 l 1,15,-1
 1342 0 l 1,0,-1
EndSplineSet
EndChar

StartChar: O
Encoding: 79 79 50
Width: 1626
GlyphClass: 2
Flags: HW
LayerCount: 2
Fore
SplineSet
1334 190 m 0,0,1
 1246 90 1246 90 1113 34 c 128,-1,2
 980 -22 980 -22 814 -22 c 0,3,4
 590 -22 590 -22 430 74 c 0,5,6
 112 265 112 265 112 740 c 0,7,8
 112 1095 112 1095 297 1299.5 c 128,-1,9
 482 1504 482 1504 812.5 1504 c 128,-1,10
 1143 1504 1143 1504 1328.5 1298 c 128,-1,11
 1514 1092 1514 1092 1514 744.5 c 128,-1,12
 1514 397 1514 397 1334 190 c 0,0,1
429 1192 m 128,-1,14
 296 1031 296 1031 296 742.5 c 128,-1,15
 296 454 296 454 427 291.5 c 128,-1,16
 558 129 558 129 814 129 c 128,-1,17
 1070 129 1070 129 1199.5 291 c 128,-1,18
 1329 453 1329 453 1329 742 c 128,-1,19
 1329 1031 1329 1031 1198.5 1192 c 128,-1,20
 1068 1353 1068 1353 815 1353 c 128,-1,13
 562 1353 562 1353 429 1192 c 128,-1,14
EndSplineSet
EndChar

StartChar: P
Encoding: 80 80 51
Width: 1159
GlyphClass: 2
Flags: HW
LayerCount: 2
Fore
SplineSet
323 780 m 1,0,1
 516 778 516 778 599 778 c 0,2,3
 769 778 769 778 860 840 c 1,4,5
 896 868 896 868 923 920 c 128,-1,6
 950 972 950 972 950 1086 c 128,-1,7
 950 1200 950 1200 864.5 1260 c 128,-1,8
 779 1320 779 1320 632 1320 c 2,9,-1
 323 1320 l 1,10,-1
 323 780 l 1,0,1
323 0 m 1,11,-1
 146 0 l 1,12,-1
 146 1479 l 1,13,-1
 628 1479 l 2,14,15
 848 1479 848 1479 989 1383 c 128,-1,16
 1130 1287 1130 1287 1130 1076 c 0,17,18
 1130 810 1130 810 957 706 c 0,19,20
 823 625 823 625 567 625 c 0,21,22
 464 625 464 625 323 638 c 1,23,-1
 323 0 l 1,11,-1
EndSplineSet
EndChar

StartChar: Q
Encoding: 81 81 52
Width: 1626
GlyphClass: 2
Flags: HW
LayerCount: 2
Fore
SplineSet
814 129 m 128,-1,1
 1070 129 1070 129 1199.5 291 c 128,-1,2
 1329 453 1329 453 1329 742 c 128,-1,3
 1329 1031 1329 1031 1198.5 1192 c 128,-1,4
 1068 1353 1068 1353 815 1353 c 128,-1,5
 562 1353 562 1353 429 1192 c 128,-1,6
 296 1031 296 1031 296 742.5 c 128,-1,7
 296 454 296 454 427 291.5 c 128,-1,0
 558 129 558 129 814 129 c 128,-1,1
1267 -470 m 1,8,9
 1219 -422 1219 -422 1108 -274.5 c 128,-1,10
 997 -127 997 -127 942 -13 c 1,11,12
 880 -22 880 -22 814 -22 c 0,13,14
 590 -22 590 -22 430 74 c 0,15,16
 112 265 112 265 112 740 c 0,17,18
 112 1095 112 1095 297 1299.5 c 128,-1,19
 482 1504 482 1504 812.5 1504 c 128,-1,20
 1143 1504 1143 1504 1328.5 1298 c 128,-1,21
 1514 1092 1514 1092 1514 739 c 0,22,23
 1514 482 1514 482 1409 296.5 c 128,-1,24
 1304 111 1304 111 1108 31 c 1,25,26
 1160 -61 1160 -61 1243.5 -177 c 128,-1,27
 1327 -293 1327 -293 1385 -350 c 1,28,-1
 1267 -470 l 1,8,9
EndSplineSet
EndChar

StartChar: R
Encoding: 82 82 53
Width: 1339
GlyphClass: 2
Flags: HW
LayerCount: 2
Fore
SplineSet
1272 0 m 1,0,-1
 1072 0 l 1,1,-1
 868 464 l 2,2,3
 785 651 785 651 762 689 c 1,4,5
 689 684 689 684 589 684 c 1,6,-1
 324 692 l 1,7,-1
 324 0 l 1,8,-1
 147 0 l 1,9,-1
 146 1479 l 1,10,-1
 619 1479 l 2,11,12
 625 1479 625 1479 630 1479 c 0,13,14
 882 1479 882 1479 991 1435 c 0,15,16
 1102 1390 1102 1390 1151 1308 c 0,17,18
 1201 1225 1201 1225 1201 1088 c 0,19,20
 1201 954 1201 954 1128 858 c 0,21,22
 1055 762 1055 762 920 724 c 1,23,24
 920 722 920 722 962 650.5 c 128,-1,25
 1004 579 1004 579 1030 522 c 2,26,-1
 1272 0 l 1,0,-1
324 841 m 1,27,-1
 692 837 l 2,28,29
 694 837 694 837 696 837 c 0,30,31
 940 837 940 837 1002 946 c 0,32,33
 1032 998 1032 998 1032 1102 c 0,34,35
 1032 1324 1032 1324 719 1324 c 2,36,-1
 323 1324 l 1,37,-1
 324 841 l 1,27,-1
EndSplineSet
EndChar

StartChar: S
Encoding: 83 83 54
Width: 1227
GlyphClass: 2
Flags: HW
LayerCount: 2
Fore
SplineSet
146 244 m 1,0,1
 377 130 377 130 641 130 c 0,2,3
 966 130 966 130 966 417 c 0,4,5
 966 513 966 513 914.5 572.5 c 128,-1,6
 863 632 863 632 727 666 c 2,7,-1
 433 740 l 2,8,9
 96 825 96 825 96 1100 c 0,10,11
 96 1305 96 1305 241 1404.5 c 128,-1,12
 386 1504 386 1504 652 1504 c 128,-1,13
 918 1504 918 1504 1089 1398 c 1,14,-1
 1039 1257 l 1,15,16
 971 1295 971 1295 860.5 1324 c 128,-1,17
 750 1353 750 1353 638 1353 c 0,18,19
 276 1353 276 1353 276 1112 c 0,20,21
 276 1027 276 1027 331.5 975.5 c 128,-1,22
 387 924 387 924 498 897 c 2,23,-1
 779 829 l 2,24,25
 959 786 959 786 1052 691.5 c 128,-1,26
 1145 597 1145 597 1145 423 c 0,27,28
 1145 201 1145 201 1006.5 89 c 128,-1,29
 868 -23 868 -23 630 -23 c 0,30,31
 452 -23 452 -23 313.5 13.5 c 128,-1,32
 175 50 175 50 94 100 c 1,33,-1
 146 244 l 1,0,1
EndSplineSet
EndChar

StartChar: T
Encoding: 84 84 55
Width: 1099
GlyphClass: 2
Flags: HW
LayerCount: 2
Fore
SplineSet
636 0 m 1,0,-1
 462 0 l 1,1,-1
 462 1326 l 1,2,-1
 7 1326 l 1,3,-1
 7 1479 l 1,4,-1
 1091 1479 l 1,5,-1
 1091 1326 l 1,6,-1
 636 1326 l 1,7,-1
 636 0 l 1,0,-1
EndSplineSet
EndChar

StartChar: U
Encoding: 85 85 56
Width: 1438
GlyphClass: 2
Flags: HW
LayerCount: 2
Fore
SplineSet
1277 1479 m 1,0,-1
 1277 519 l 2,1,2
 1277 264 1277 264 1137.5 121 c 128,-1,3
 998 -22 998 -22 713 -22 c 128,-1,4
 428 -22 428 -22 292 121 c 128,-1,5
 156 264 156 264 156 521 c 2,6,-1
 156 1479 l 1,7,-1
 330 1479 l 1,8,-1
 330 518 l 2,9,10
 330 317 330 317 425 222 c 128,-1,11
 520 127 520 127 716 127 c 128,-1,12
 912 127 912 127 1008 223 c 128,-1,13
 1104 319 1104 319 1104 519 c 2,14,-1
 1104 1479 l 1,15,-1
 1277 1479 l 1,0,-1
EndSplineSet
EndChar

StartChar: V
Encoding: 86 86 57
Width: 1242
GlyphClass: 2
Flags: HW
LayerCount: 2
Fore
SplineSet
620 196 m 1,0,1
 640 295 640 295 1062 1479 c 1,2,-1
 1247 1479 l 1,3,-1
 710 0 l 1,4,-1
 530 0 l 1,5,-1
 -5 1479 l 1,6,-1
 180 1479 l 1,7,-1
 509 541 l 2,8,9
 573 358 573 358 620 196 c 1,0,1
EndSplineSet
EndChar

StartChar: W
Encoding: 87 87 58
Width: 2013
GlyphClass: 2
Flags: HW
LayerCount: 2
Fore
SplineSet
446 0 m 1,0,-1
 0 1479 l 1,1,-1
 181 1479 l 1,2,-1
 547 206 l 1,3,-1
 913 1452 l 1,4,-1
 1108 1452 l 1,5,-1
 1463 205 l 1,6,-1
 1832 1479 l 1,7,-1
 2013 1479 l 1,8,-1
 1561 0 l 1,9,-1
 1372 0 l 1,10,-1
 1012 1243 l 1,11,-1
 634 0 l 1,12,-1
 446 0 l 1,0,-1
EndSplineSet
EndChar

StartChar: X
Encoding: 88 88 59
Width: 1240
GlyphClass: 2
Flags: HW
LayerCount: 2
Fore
SplineSet
1231 0 m 1,0,-1
 1032 0 l 1,1,-1
 620 661 l 1,2,-1
 197 0 l 1,3,-1
 9 0 l 1,4,-1
 515 772 l 1,5,-1
 42 1479 l 1,6,-1
 243 1479 l 1,7,-1
 626 887 l 1,8,-1
 1024 1479 l 1,9,-1
 1209 1479 l 1,10,-1
 733 775 l 1,11,-1
 1231 0 l 1,0,-1
EndSplineSet
EndChar

StartChar: Y
Encoding: 89 89 60
Width: 1194
GlyphClass: 2
Flags: HW
LayerCount: 2
Fore
SplineSet
591 754 m 1,0,-1
 1007 1479 l 1,1,-1
 1195 1479 l 1,2,-1
 673 590 l 1,3,-1
 673 0 l 1,4,-1
 498 0 l 1,5,-1
 498 586 l 1,6,-1
 -1 1479 l 1,7,-1
 186 1479 l 1,8,-1
 591 754 l 1,0,-1
EndSplineSet
EndChar

StartChar: Z
Encoding: 90 90 61
Width: 1184
GlyphClass: 2
Flags: HW
LayerCount: 2
Fore
SplineSet
86 0 m 1,0,-1
 86 136 l 1,1,-1
 890 1325 l 1,2,-1
 115 1325 l 1,3,-1
 115 1479 l 1,4,-1
 1111 1479 l 1,5,-1
 1111 1350 l 1,6,-1
 302 154 l 1,7,-1
 1118 154 l 1,8,-1
 1112 0 l 1,9,-1
 86 0 l 1,0,-1
EndSplineSet
EndChar

StartChar: bracketleft
Encoding: 91 91 62
Width: 676
GlyphClass: 2
Flags: HW
LayerCount: 2
Fore
SplineSet
596 -293 m 1,0,-1
 143 -293 l 1,1,-1
 143 1483 l 1,2,-1
 596 1483 l 1,3,-1
 596 1351 l 1,4,-1
 316 1351 l 1,5,-1
 316 -161 l 1,6,-1
 596 -161 l 1,7,-1
 596 -293 l 1,0,-1
EndSplineSet
EndChar

StartChar: backslash
Encoding: 92 92 63
Width: 843
GlyphClass: 2
Flags: HW
LayerCount: 2
Fore
SplineSet
208 1464 m 1,0,-1
 807 -60 l 1,1,-1
 651 -60 l 1,2,-1
 52 1464 l 1,3,-1
 208 1464 l 1,0,-1
EndSplineSet
EndChar

StartChar: bracketright
Encoding: 93 93 64
Width: 676
GlyphClass: 2
Flags: HW
LayerCount: 2
Fore
SplineSet
80 -161 m 1,0,-1
 360 -161 l 1,1,-1
 360 1351 l 1,2,-1
 80 1351 l 1,3,-1
 80 1483 l 1,4,-1
 533 1483 l 1,5,-1
 533 -293 l 1,6,-1
 80 -293 l 1,7,-1
 80 -161 l 1,0,-1
EndSplineSet
EndChar

StartChar: asciicircum
Encoding: 94 94 65
Width: 1157
GlyphClass: 2
Flags: HW
LayerCount: 2
Fore
SplineSet
69 589 m 1,0,-1
 514 1516 l 1,1,-1
 616 1516 l 1,2,-1
 1086 589 l 1,3,-1
 943 589 l 1,4,-1
 565 1335 l 1,5,-1
 214 589 l 1,6,-1
 69 589 l 1,0,-1
EndSplineSet
EndChar

StartChar: underscore
Encoding: 95 95 66
Width: 1085
GlyphClass: 2
Flags: HW
LayerCount: 2
Fore
SplineSet
1012 -304 m 1,0,-1
 73 -304 l 1,1,-1
 73 -170 l 1,2,-1
 1012 -170 l 1,3,-1
 1012 -304 l 1,0,-1
EndSplineSet
EndChar

StartChar: grave
Encoding: 96 96 67
Width: 643
GlyphClass: 2
Flags: HW
LayerCount: 2
Fore
SplineSet
408 1251 m 1,0,-1
 85 1638 l 1,1,-1
 335 1638 l 1,2,-1
 520 1251 l 1,3,-1
 408 1251 l 1,0,-1
EndSplineSet
EndChar

StartChar: a
Encoding: 97 97 68
Width: 1098
GlyphClass: 2
Flags: HW
LayerCount: 2
Fore
SplineSet
189 1030 m 1,0,1
 349 1120 349 1120 560.5 1120 c 128,-1,2
 772 1120 772 1120 862.5 1030.5 c 128,-1,3
 953 941 953 941 953 726 c 2,4,-1
 953 0 l 1,5,-1
 823 0 l 1,6,7
 808 64 808 64 794 138 c 1,8,9
 703 47 703 47 623 12 c 128,-1,10
 543 -23 543 -23 435 -23 c 0,11,12
 281 -23 281 -23 187.5 57.5 c 128,-1,13
 94 138 94 138 94 297.5 c 128,-1,14
 94 457 94 457 221.5 538 c 128,-1,15
 349 619 349 619 589 639 c 0,16,17
 622 642 622 642 688.5 647.5 c 128,-1,18
 755 653 755 653 788 656 c 1,19,-1
 788 753 l 2,20,21
 788 869 788 869 734 925 c 128,-1,22
 680 981 680 981 541 981 c 128,-1,23
 402 981 402 981 237 901 c 1,24,-1
 189 1030 l 1,0,1
265 290 m 0,25,26
 265 112 265 112 474 112 c 0,27,28
 579 112 579 112 669.5 177.5 c 128,-1,29
 760 243 760 243 786 354 c 1,30,-1
 786 539 l 1,31,32
 781 539 781 539 725.5 534 c 128,-1,33
 670 529 670 529 653 528 c 0,34,35
 436 509 436 509 350.5 457 c 128,-1,36
 265 405 265 405 265 290 c 0,25,26
EndSplineSet
EndChar

StartChar: b
Encoding: 98 98 69
Width: 1215
GlyphClass: 2
Flags: HW
LayerCount: 2
Fore
SplineSet
311 940 m 1,0,1
 438 1120 438 1120 680 1120 c 0,2,3
 806 1120 806 1120 911 1046 c 0,4,5
 1124 898 1124 898 1124 547 c 0,6,7
 1124 199 1124 199 912 52 c 0,8,9
 806 -22 806 -22 676 -23 c 1,10,11
 437 -23 437 -23 308 152 c 1,12,-1
 291 0 l 1,13,-1
 148 0 l 1,14,-1
 148 1523 l 1,15,-1
 315 1533 l 1,16,-1
 315 1170 l 2,17,18
 315 1036 315 1036 311 940 c 1,0,1
642 981 m 0,19,20
 483 981 483 981 398.5 871.5 c 128,-1,21
 314 762 314 762 314 550 c 0,22,23
 314 116 314 116 641 116 c 0,24,25
 874 116 874 116 934 380 c 0,26,27
 952 454 952 454 952 560 c 0,28,29
 952 564 952 564 952 566 c 0,30,31
 952 676 952 676 922 769.5 c 128,-1,32
 892 863 892 863 821 922 c 128,-1,33
 750 981 750 981 642 981 c 0,19,20
EndSplineSet
EndChar

StartChar: c
Encoding: 99 99 70
Width: 968
GlyphClass: 2
Flags: HW
LayerCount: 2
Fore
SplineSet
607 -23 m 0,0,1
 364 -23 364 -23 228 133.5 c 128,-1,2
 92 290 92 290 92 545 c 128,-1,3
 92 800 92 800 231 960 c 128,-1,4
 370 1120 370 1120 611 1120 c 0,5,6
 696 1120 696 1120 775.5 1099 c 128,-1,7
 855 1078 855 1078 901 1044 c 1,8,-1
 855 914 l 1,9,10
 738 977 738 977 593.5 977 c 128,-1,11
 449 977 449 977 356.5 861 c 128,-1,12
 264 745 264 745 264 546.5 c 128,-1,13
 264 348 264 348 355.5 233.5 c 128,-1,14
 447 119 447 119 609 119 c 0,15,16
 738 119 738 119 873 189 c 1,17,-1
 894 56 l 1,18,19
 785 -23 785 -23 607 -23 c 0,0,1
EndSplineSet
EndChar

StartChar: d
Encoding: 100 100 71
Width: 1211
GlyphClass: 2
Flags: HW
LayerCount: 2
Fore
SplineSet
900 159 m 1,0,1
 846 76 846 76 756 27 c 128,-1,2
 666 -22 666 -22 555 -22 c 0,3,4
 338 -22 338 -22 215 132.5 c 128,-1,5
 92 287 92 287 92 547 c 128,-1,6
 92 807 92 807 217 963.5 c 128,-1,7
 342 1120 342 1120 552 1120 c 0,8,9
 661 1120 661 1120 757.5 1072.5 c 128,-1,10
 854 1025 854 1025 902 945 c 1,11,-1
 899 1040 l 1,12,-1
 899 1523 l 1,13,-1
 1064 1533 l 1,14,-1
 1064 0 l 1,15,-1
 922 0 l 1,16,-1
 900 159 l 1,0,1
571 121 m 0,17,18
 897 121 897 121 897 530 c 0,19,20
 897 752 897 752 819.5 864.5 c 128,-1,21
 742 977 742 977 569 977 c 0,22,23
 346 976 346 976 284 716 c 0,24,25
 265 638 265 638 265 527 c 0,26,27
 264 419 264 419 296 327 c 0,28,29
 328 233 328 233 398 177 c 128,-1,30
 468 121 468 121 571 121 c 0,17,18
EndSplineSet
EndChar

StartChar: e
Encoding: 101 101 72
Width: 1108
GlyphClass: 2
Flags: HW
LayerCount: 2
Fore
SplineSet
1019 608 m 1,0,-1
 1018 518 l 1,1,-1
 265 518 l 1,2,3
 268 331 268 331 361.5 226.5 c 128,-1,4
 455 122 455 122 621 122 c 128,-1,5
 787 122 787 122 962 214 c 1,6,-1
 988 79 l 1,7,8
 821 -23 821 -23 594.5 -23 c 128,-1,9
 368 -23 368 -23 230.5 129 c 128,-1,10
 93 281 93 281 93 540.5 c 128,-1,11
 93 800 93 800 226 958 c 0,12,13
 360 1116 360 1116 570 1118 c 1,14,-1
 574 1119 l 1,15,16
 782 1118 782 1118 901 979 c 128,-1,17
 1020 840 1020 840 1019 608 c 1,0,-1
574 982 m 128,-1,19
 446 982 446 982 365 891.5 c 128,-1,20
 284 801 284 801 270 644 c 1,21,-1
 849 644 l 1,22,23
 849 807 849 807 775.5 894.5 c 128,-1,18
 702 982 702 982 574 982 c 128,-1,19
EndSplineSet
EndChar

StartChar: f
Encoding: 102 102 73
Width: 669
GlyphClass: 2
Flags: HW
LayerCount: 2
Fore
SplineSet
560 1416 m 0,0,1
 456 1416 456 1416 417.5 1356 c 128,-1,2
 379 1296 379 1296 379 1148 c 2,3,-1
 379 1097 l 1,4,-1
 643 1097 l 1,5,-1
 643 973 l 1,6,-1
 379 973 l 1,7,-1
 379 0 l 1,8,-1
 212 0 l 1,9,-1
 212 973 l 1,10,-1
 34 973 l 1,11,-1
 48 1083 l 1,12,-1
 212 1097 l 1,13,-1
 212 1146 l 1,14,15
 214 1358 214 1358 291.5 1453.5 c 128,-1,16
 369 1549 369 1549 542 1549 c 0,17,18
 609 1549 609 1549 706 1534 c 1,19,-1
 695 1403 l 1,20,21
 606 1416 606 1416 560 1416 c 0,0,1
EndSplineSet
EndChar

StartChar: g
Encoding: 103 103 74
Width: 1187
GlyphClass: 2
Flags: HW
LayerCount: 2
Fore
SplineSet
884 180 m 1,0,1
 759 1 759 1 558 1 c 0,2,3
 275 1 275 1 144 245 c 1,4,5
 70 381 70 381 70 523 c 128,-1,6
 70 665 70 665 99.5 767 c 128,-1,7
 129 869 129 869 187 949 c 128,-1,8
 245 1029 245 1029 339.5 1074.5 c 128,-1,9
 434 1120 434 1120 556 1120 c 0,10,11
 763 1120 763 1120 889 951 c 1,12,-1
 889 1097 l 1,13,-1
 1052 1097 l 1,14,-1
 1052 79 l 2,15,16
 1052 -156 1052 -156 995 -271 c 128,-1,17
 938 -386 938 -386 820 -444 c 128,-1,18
 702 -502 702 -502 497 -502 c 2,19,-1
 312 -502 l 1,20,-1
 297 -351 l 1,21,-1
 501 -351 l 2,22,23
 504 -351 504 -351 507 -351 c 0,24,25
 676 -351 676 -351 756 -299 c 0,26,27
 838 -246 838 -246 861 -154.5 c 128,-1,28
 884 -63 884 -63 884 83 c 2,29,-1
 884 180 l 1,0,1
578 143 m 0,30,31
 654 143 654 143 718 173 c 128,-1,32
 782 203 782 203 818 256 c 0,33,34
 889 361 889 361 889 516 c 2,35,-1
 889 597 l 1,36,37
 890 762 890 762 813 871 c 0,38,39
 737 979 737 979 573 979 c 0,40,41
 571 979 571 979 570 979 c 0,42,43
 569 979 569 979 568 979 c 0,44,45
 378 979 378 979 290 786 c 0,46,47
 242 681 242 681 242 554 c 0,48,49
 242 358 242 358 355 234 c 0,50,51
 437 144 437 144 578 143 c 0,30,31
EndSplineSet
EndChar

StartChar: h
Encoding: 104 104 75
Width: 1112
GlyphClass: 2
Flags: HW
LayerCount: 2
Fore
SplineSet
882 0 m 1,0,-1
 882 663 l 2,1,2
 882 828 882 828 830 903 c 1,3,4
 776 978 776 978 648 978 c 128,-1,5
 520 978 520 978 433.5 915 c 128,-1,6
 347 852 347 852 321 752 c 1,7,8
 312 677 312 677 312 585 c 2,9,-1
 312 0 l 1,10,-1
 145 0 l 1,11,-1
 145 1523 l 1,12,-1
 312 1533 l 1,13,-1
 312 1087 l 2,14,15
 312 1030 312 1030 308 946 c 1,16,17
 449 1120 449 1120 682 1120 c 0,18,19
 1049 1120 1049 1120 1049 689 c 2,20,-1
 1049 0 l 1,21,-1
 882 0 l 1,0,-1
EndSplineSet
EndChar

StartChar: i
Encoding: 105 105 76
Width: 466
GlyphClass: 2
Flags: HW
LayerCount: 2
Fore
SplineSet
327 1496 m 1,0,-1
 327 1298 l 1,1,-1
 159 1298 l 1,2,-1
 159 1496 l 1,3,-1
 327 1496 l 1,0,-1
327 1097 m 1,4,-1
 327 0 l 1,5,-1
 159 0 l 1,6,-1
 159 1097 l 1,7,-1
 327 1097 l 1,4,-1
EndSplineSet
EndChar

StartChar: j
Encoding: 106 106 77
Width: 445
GlyphClass: 2
Flags: HW
LayerCount: 2
Fore
SplineSet
330 1496 m 1,0,-1
 330 1298 l 1,1,-1
 162 1298 l 1,2,-1
 162 1496 l 1,3,-1
 330 1496 l 1,0,-1
330 1097 m 1,4,-1
 330 -139 l 2,5,6
 330 -245 330 -245 316.5 -310 c 128,-1,7
 303 -375 303 -375 265.5 -420.5 c 128,-1,8
 228 -466 228 -466 164 -484 c 128,-1,9
 100 -502 100 -502 -3 -502 c 2,10,-1
 -55 -502 l 1,11,-1
 -77 -351 l 1,12,-1
 -25 -351 l 2,13,14
 93 -351 93 -351 122.5 -315 c 128,-1,15
 152 -279 152 -279 157 -235.5 c 128,-1,16
 162 -192 162 -192 162 -121 c 2,17,-1
 162 1097 l 1,18,-1
 330 1097 l 1,4,-1
EndSplineSet
EndChar

StartChar: k
Encoding: 107 107 78
Width: 1041
GlyphClass: 2
Flags: HW
LayerCount: 2
Fore
SplineSet
145 0 m 1,0,-1
 145 1523 l 1,1,-1
 311 1533 l 1,2,-1
 311 596 l 1,3,4
 317 602 317 602 352 643 c 128,-1,5
 387 684 387 684 798 1097 c 1,6,-1
 1010 1097 l 1,7,-1
 554 635 l 1,8,-1
 1042 0 l 1,9,-1
 834 0 l 1,10,-1
 433 540 l 1,11,-1
 311 435 l 1,12,-1
 311 0 l 1,13,-1
 145 0 l 1,0,-1
EndSplineSet
EndChar

StartChar: l
Encoding: 108 108 79
Width: 569
GlyphClass: 2
Flags: HW
LayerCount: 2
Fore
SplineSet
438 -20 m 0,0,1
 278 -20 278 -20 211.5 66 c 128,-1,2
 145 152 145 152 145 365 c 2,3,-1
 145 1523 l 1,4,-1
 311 1533 l 1,5,-1
 311 431 l 2,6,7
 311 232 311 232 335.5 183 c 128,-1,8
 360 134 360 134 410 124 c 0,9,10
 436 118 436 118 472 118 c 128,-1,11
 508 118 508 118 602 130 c 1,12,-1
 611 -3 l 1,13,14
 508 -20 508 -20 438 -20 c 0,0,1
EndSplineSet
EndChar

StartChar: m
Encoding: 109 109 80
Width: 1773
GlyphClass: 2
Flags: HW
LayerCount: 2
Fore
SplineSet
1536 0 m 1,0,-1
 1536 571 l 2,1,2
 1536 826 1536 826 1484 902 c 0,3,4
 1432 978 1432 978 1323 978 c 0,5,6
 1322 978 l 0,7,8
 1213 978 1213 978 1135.5 918.5 c 128,-1,9
 1058 859 1058 859 1025 752 c 1,10,11
 1016 680 1016 680 1016 598 c 2,12,-1
 1016 0 l 1,13,-1
 849 0 l 1,14,-1
 849 589 l 2,15,16
 849 593 849 593 849 597 c 0,17,18
 850 824 850 824 794 900 c 0,19,20
 738 977 738 977 625 977 c 128,-1,21
 512 977 512 977 430.5 916 c 128,-1,22
 349 855 349 855 321 754 c 1,23,24
 312 677 312 677 312 587 c 2,25,-1
 312 0 l 1,26,-1
 145 0 l 1,27,28
 143 1029 143 1029 143 1097 c 1,29,-1
 283 1097 l 1,30,-1
 304 940 l 1,31,32
 354 1016 354 1016 446 1068 c 128,-1,33
 538 1120 538 1120 655 1120 c 0,34,35
 824 1120 824 1120 915 1030 c 0,36,37
 960 986 960 986 982 925 c 1,38,39
 1102 1120 1102 1120 1349 1120 c 0,40,41
 1532 1120 1532 1120 1617.5 1015.5 c 128,-1,42
 1703 911 1703 911 1703 706 c 2,43,-1
 1703 0 l 1,44,-1
 1536 0 l 1,0,-1
EndSplineSet
EndChar

StartChar: n
Encoding: 110 110 81
Width: 1184
GlyphClass: 2
Flags: HW
LayerCount: 2
Fore
SplineSet
143 0 m 1,0,-1
 143 1097 l 1,1,-1
 283 1097 l 1,2,-1
 304 940 l 1,3,4
 369 1021 369 1021 466.5 1070.5 c 128,-1,5
 564 1120 564 1120 677 1120 c 0,6,7
 867 1120 867 1120 958 1013.5 c 128,-1,8
 1049 907 1049 907 1049 686 c 2,9,-1
 1049 0 l 1,10,-1
 882 0 l 1,11,12
 882 660 882 660 881 707 c 0,13,14
 877 847 877 847 824.5 912 c 128,-1,15
 772 977 772 977 646 977 c 128,-1,16
 520 977 520 977 434 915 c 128,-1,17
 348 853 348 853 322 754 c 1,18,19
 312 687 312 687 312 600 c 2,20,-1
 312 0 l 1,21,-1
 143 0 l 1,0,-1
EndSplineSet
EndChar

StartChar: o
Encoding: 111 111 82
Width: 1201
GlyphClass: 2
Flags: HW
LayerCount: 2
Fore
SplineSet
974 961.5 m 128,-1,1
 1108 803 1108 803 1108 548.5 c 128,-1,2
 1108 294 1108 294 972 135.5 c 128,-1,3
 836 -23 836 -23 600.5 -23 c 128,-1,4
 365 -23 365 -23 228.5 137 c 128,-1,5
 92 297 92 297 92 550.5 c 128,-1,6
 92 804 92 804 229 962 c 128,-1,7
 366 1120 366 1120 603 1120 c 128,-1,0
 840 1120 840 1120 974 961.5 c 128,-1,1
351 862 m 128,-1,9
 265 744 265 744 265 547.5 c 128,-1,10
 265 351 265 351 351.5 233.5 c 128,-1,11
 438 116 438 116 603 116 c 128,-1,12
 768 116 768 116 851.5 233 c 128,-1,13
 935 350 935 350 935 549.5 c 128,-1,14
 935 749 935 749 852.5 864.5 c 128,-1,15
 770 980 770 980 603.5 980 c 128,-1,8
 437 980 437 980 351 862 c 128,-1,9
EndSplineSet
EndChar

StartChar: p
Encoding: 112 112 83
Width: 1201
GlyphClass: 2
Flags: HW
LayerCount: 2
Fore
SplineSet
937 553 m 128,-1,1
 937 737 937 737 858 857.5 c 128,-1,2
 779 978 779 978 627 978 c 0,3,4
 309 978 309 978 309 567 c 0,5,6
 309 344 309 344 383.5 231 c 128,-1,7
 458 118 458 118 620 118 c 128,-1,8
 782 118 782 118 859.5 243.5 c 128,-1,0
 937 369 937 369 937 553 c 128,-1,1
143 -476 m 1,9,-1
 143 1097 l 1,10,-1
 290 1097 l 1,11,-1
 306 948 l 1,12,13
 450 1120 450 1120 652 1120 c 0,14,15
 802 1120 802 1120 906 1045 c 0,16,17
 1109 899 1109 899 1109 543 c 0,18,19
 1109 379 1109 379 1055 251.5 c 128,-1,20
 1001 124 1001 124 896.5 50.5 c 128,-1,21
 792 -23 792 -23 669 -23 c 128,-1,22
 546 -23 546 -23 453 24.5 c 128,-1,23
 360 72 360 72 304 150 c 1,24,25
 310 42 310 42 310 -60 c 2,26,-1
 310 -465 l 1,27,-1
 143 -476 l 1,9,-1
EndSplineSet
EndChar

StartChar: q
Encoding: 113 113 84
Width: 1204
GlyphClass: 2
Flags: HW
LayerCount: 2
Fore
SplineSet
574 120 m 0,0,1
 736 121 736 121 814 225.5 c 128,-1,2
 892 330 892 330 894 540 c 1,3,-1
 894 545 l 2,4,5
 894 752 894 752 817.5 864 c 128,-1,6
 741 976 741 976 569 976 c 0,7,8
 464 976 464 976 394 916 c 0,9,10
 264 806 264 806 264 547 c 0,11,12
 264 360 264 360 338 240 c 0,13,14
 411 120 411 120 572 120 c 0,15,16
 573 120 573 120 574 120 c 0,0,1
899 159 m 1,17,18
 778 -23 778 -23 533 -23 c 0,19,20
 404 -23 404 -23 300 51 c 0,21,22
 92 199 92 199 92 547.5 c 128,-1,23
 92 896 92 896 302 1045 c 0,24,25
 408 1120 408 1120 556 1120 c 0,26,27
 761 1120 761 1120 901 942 c 1,28,-1
 913 1097 l 1,29,-1
 1061 1097 l 1,30,-1
 1061 -466 l 1,31,-1
 894 -476 l 1,32,-1
 894 11 l 2,33,34
 894 84 894 84 899 159 c 1,17,18
EndSplineSet
EndChar

StartChar: r
Encoding: 114 114 85
Width: 743
GlyphClass: 2
Flags: HW
LayerCount: 2
Fore
SplineSet
630 1107 m 0,0,1
 675 1107 675 1107 712 1101 c 1,2,-1
 706 947 l 1,3,4
 660 955 660 955 626 955 c 0,5,6
 486 955 486 955 398.5 857.5 c 128,-1,7
 311 760 311 760 311 616 c 2,8,-1
 311 0 l 1,9,-1
 144 0 l 1,10,11
 143 1010 143 1010 143 1097 c 1,12,-1
 282 1097 l 1,13,-1
 298 900 l 1,14,15
 355 993 355 993 443 1050 c 128,-1,16
 531 1107 531 1107 630 1107 c 0,0,1
EndSplineSet
EndChar

StartChar: s
Encoding: 115 115 86
Width: 953
GlyphClass: 2
Flags: HW
LayerCount: 2
Fore
SplineSet
110 63 m 1,0,-1
 131 204 l 1,1,2
 298 115 298 115 459 115 c 0,3,4
 703 115 703 115 710 287 c 1,5,6
 710 360 710 360 658 402 c 128,-1,7
 606 444 606 444 454 496 c 1,8,-1
 371 525 l 1,9,10
 228 572 228 572 166 644 c 0,11,12
 103 717 103 717 103 836 c 0,13,14
 103 952 103 952 206 1036 c 0,15,16
 310 1120 310 1120 493 1120 c 128,-1,17
 676 1120 676 1120 829 1048 c 1,18,-1
 780 920 l 1,19,20
 625 984 625 984 505 984 c 128,-1,21
 385 984 385 984 325.5 942.5 c 128,-1,22
 266 901 266 901 266 831.5 c 128,-1,23
 266 762 266 762 309 728 c 128,-1,24
 352 694 352 694 433 666 c 128,-1,25
 514 638 514 638 564 622 c 0,26,27
 730 568 730 568 798.5 495 c 128,-1,28
 867 422 867 422 867 283 c 0,29,30
 868 144 868 144 760 60 c 0,31,32
 653 -24 653 -24 450 -24 c 0,33,34
 449 -24 449 -24 448 -24 c 0,35,36
 244 -23 244 -23 110 63 c 1,0,-1
EndSplineSet
EndChar

StartChar: t
Encoding: 116 116 87
Width: 710
GlyphClass: 2
Flags: HW
LayerCount: 2
Fore
SplineSet
493 -20 m 0,0,1
 331 -20 331 -20 263 59 c 128,-1,2
 195 138 195 138 191 314 c 1,3,-1
 191 973 l 1,4,-1
 28 973 l 1,5,-1
 35 1083 l 1,6,-1
 190 1097 l 1,7,-1
 247 1348 l 1,8,-1
 357 1352 l 1,9,-1
 357 1097 l 1,10,-1
 662 1097 l 1,11,-1
 662 973 l 1,12,-1
 357 973 l 1,13,-1
 357 344 l 2,14,15
 357 219 357 219 395 168 c 128,-1,16
 433 117 433 117 525 117 c 0,17,18
 558 117 558 117 668 133 c 1,19,-1
 675 1 l 1,20,21
 556 -20 556 -20 493 -20 c 0,0,1
EndSplineSet
EndChar

StartChar: u
Encoding: 117 117 88
Width: 1100
GlyphClass: 2
Flags: HW
LayerCount: 2
Fore
SplineSet
105 366 m 1,0,-1
 105 1097 l 1,1,-1
 273 1097 l 1,2,-1
 273 364 l 1,3,4
 272 220 272 220 348 166 c 0,5,6
 423 112 423 112 550 112 c 0,7,8
 550 112 550 112 552 112 c 0,9,10
 680 113 680 113 753 170 c 128,-1,11
 826 227 826 227 826 364 c 2,12,-1
 826 1097 l 1,13,-1
 994 1097 l 1,14,-1
 994 366 l 2,15,16
 994 125 994 125 808 30 c 0,17,18
 700 -25 700 -25 551 -25 c 0,19,20
 549 -25 549 -25 547 -25 c 0,21,22
 313 -25 313 -25 194 104 c 1,23,24
 104 200 104 200 105 366 c 1,0,-1
EndSplineSet
EndChar

StartChar: v
Encoding: 118 118 89
Width: 1031
GlyphClass: 2
Flags: HW
LayerCount: 2
Fore
SplineSet
520 167 m 1,0,1
 572 332 572 332 850 1097 c 1,2,-1
 1028 1097 l 1,3,-1
 606 0 l 1,4,-1
 424 0 l 1,5,-1
 -1 1097 l 1,6,-1
 178 1097 l 1,7,-1
 420 445 l 1,8,-1
 520 167 l 1,0,1
EndSplineSet
EndChar

StartChar: w
Encoding: 119 119 90
Width: 1606
GlyphClass: 2
Flags: HW
LayerCount: 2
Fore
SplineSet
1090 0 m 1,0,1
 859 738 859 738 804 919 c 1,2,3
 745 710 745 710 641 393.5 c 128,-1,4
 537 77 537 77 512 0 c 1,5,-1
 332 0 l 1,6,-1
 19 1097 l 1,7,-1
 192 1097 l 1,8,-1
 427 199 l 1,9,10
 476 359 476 359 715 1097 c 1,11,-1
 904 1097 l 1,12,13
 1142 343 1142 343 1184 202 c 1,14,-1
 1416 1097 l 1,15,-1
 1587 1097 l 1,16,-1
 1271 0 l 1,17,-1
 1090 0 l 1,0,1
EndSplineSet
EndChar

StartChar: x
Encoding: 120 120 91
Width: 1057
GlyphClass: 2
Flags: HW
LayerCount: 2
Fore
SplineSet
433 558 m 1,0,-1
 46 1097 l 1,1,-1
 237 1097 l 1,2,-1
 530 679 l 1,3,-1
 824 1097 l 1,4,-1
 1015 1097 l 1,5,-1
 627 556 l 1,6,-1
 1025 0 l 1,7,-1
 840 0 l 1,8,-1
 531 441 l 1,9,-1
 222 0 l 1,10,-1
 31 0 l 1,11,-1
 433 558 l 1,0,-1
EndSplineSet
EndChar

StartChar: y
Encoding: 121 121 92
Width: 1022
GlyphClass: 2
Flags: HW
LayerCount: 2
Fore
SplineSet
3 1097 m 1,0,-1
 180 1097 l 1,1,-1
 526 184 l 1,2,-1
 834 1097 l 1,3,-1
 1011 1097 l 1,4,5
 567 -125 567 -125 552 -163 c 0,6,7
 483 -336 483 -336 385 -416.5 c 128,-1,8
 287 -497 287 -497 127 -497 c 0,9,10
 79 -497 79 -497 26 -489 c 1,11,-1
 16 -347 l 1,12,13
 72 -351 72 -351 100 -351 c 0,14,15
 213 -351 213 -351 271.5 -309.5 c 128,-1,16
 330 -268 330 -268 374 -158 c 128,-1,17
 418 -48 418 -48 437 8 c 1,18,-1
 3 1097 l 1,0,-1
EndSplineSet
EndChar

StartChar: z
Encoding: 122 122 93
Width: 912
GlyphClass: 2
Flags: HW
LayerCount: 2
Fore
SplineSet
849 0 m 1,0,-1
 83 0 l 1,1,-1
 83 126 l 1,2,-1
 644 965 l 1,3,-1
 98 965 l 1,4,-1
 98 1097 l 1,5,-1
 831 1097 l 1,6,-1
 831 965 l 1,7,-1
 271 132 l 1,8,-1
 849 132 l 1,9,-1
 849 0 l 1,0,-1
EndSplineSet
EndChar

StartChar: braceleft
Encoding: 123 123 94
Width: 733
GlyphClass: 2
Flags: HW
LayerCount: 2
Fore
SplineSet
454 84 m 2,0,1
 454 -44 454 -44 493 -93 c 128,-1,2
 532 -142 532 -142 641 -143 c 1,3,-1
 641 -281 l 1,4,5
 454 -280 454 -280 371.5 -197 c 128,-1,6
 289 -114 289 -114 289 62 c 2,7,-1
 289 269 l 2,8,9
 289 406 289 406 259.5 461.5 c 128,-1,10
 230 517 230 517 186.5 536.5 c 128,-1,11
 143 556 143 556 75 556 c 1,12,-1
 75 701 l 1,13,14
 142 701 142 701 170.5 711.5 c 128,-1,15
 199 722 199 722 214.5 729 c 128,-1,16
 230 736 230 736 241.5 750 c 128,-1,17
 253 764 253 764 261 775 c 0,18,19
 284 807 284 807 286.5 874 c 128,-1,20
 289 941 289 941 289 987 c 2,21,-1
 289 1230 l 2,22,23
 289 1539 289 1539 641 1539 c 1,24,-1
 641 1401 l 1,25,26
 532 1400 532 1400 493 1350 c 128,-1,27
 454 1300 454 1300 454 1173 c 2,28,-1
 454 908 l 2,29,30
 454 817 454 817 409.5 750.5 c 128,-1,31
 365 684 365 684 269 626 c 1,32,33
 364 596 364 596 409 521 c 128,-1,34
 454 446 454 446 454 349 c 2,35,-1
 454 84 l 2,0,1
EndSplineSet
EndChar

StartChar: bar
Encoding: 124 124 95
Width: 799
GlyphClass: 2
Flags: HW
LayerCount: 2
Fore
SplineSet
327 1579 m 1,0,-1
 472 1579 l 1,1,-1
 472 -400 l 1,2,-1
 327 -400 l 1,3,-1
 327 1579 l 1,0,-1
EndSplineSet
EndChar

StartChar: braceright
Encoding: 125 125 96
Width: 738
GlyphClass: 2
Flags: HW
LayerCount: 2
Fore
SplineSet
466 632 m 1,0,1
 371 662 371 662 326.5 736.5 c 128,-1,2
 282 811 282 811 282 908 c 2,3,-1
 282 1173 l 2,4,5
 282 1299 282 1299 242.5 1349.5 c 128,-1,6
 203 1400 203 1400 95 1401 c 1,7,-1
 95 1539 l 1,8,9
 279 1539 279 1539 363 1455 c 128,-1,10
 447 1371 447 1371 447 1195 c 2,11,-1
 447 987 l 2,12,13
 447 806 447 806 500.5 754 c 128,-1,14
 554 702 554 702 662 701 c 1,15,-1
 662 556 l 1,16,17
 507 556 507 556 469 444 c 0,18,19
 447 379 447 379 447 269 c 2,20,-1
 447 27 l 2,21,22
 447 -279 447 -279 95 -281 c 1,23,-1
 95 -143 l 1,24,25
 203 -142 203 -142 242.5 -93 c 128,-1,26
 282 -44 282 -44 282 84 c 2,27,-1
 282 349 l 2,28,29
 282 444 282 444 321 502.5 c 128,-1,30
 360 561 360 561 466 632 c 1,0,1
EndSplineSet
EndChar

StartChar: asciitilde
Encoding: 126 126 97
Width: 1255
GlyphClass: 2
Flags: HW
LayerCount: 2
Fore
SplineSet
1137 719 m 1,0,1
 1054 517 1054 517 868 517 c 0,2,3
 779 517 779 517 673.5 565 c 128,-1,4
 568 613 568 613 508.5 638 c 128,-1,5
 449 663 449 663 386 663 c 128,-1,6
 323 663 323 663 266 618 c 128,-1,7
 209 573 209 573 172 503 c 1,8,-1
 120 608 l 1,9,10
 158 697 158 697 226.5 751.5 c 128,-1,11
 295 806 295 806 372 806 c 128,-1,12
 449 806 449 806 503 790.5 c 128,-1,13
 557 775 557 775 602 755 c 128,-1,14
 647 735 647 735 672.5 724 c 128,-1,15
 698 713 698 713 707.5 708.5 c 128,-1,16
 717 704 717 704 738 695.5 c 0,17,18
 760 687 760 687 770 683 c 0,19,20
 827 661 827 661 879 660 c 0,21,22
 880 660 880 660 882 660 c 0,23,24
 934 660 934 660 988 703 c 0,25,26
 1044 747 1044 747 1081 815 c 1,27,-1
 1137 719 l 1,0,1
EndSplineSet
EndChar

StartChar: cent
Encoding: 162 162 100
Width: 1102
GlyphClass: 2
Flags: HW
LayerCount: 2
Fore
SplineSet
547 310 m 1,0,-1
 547 1174 l 1,1,2
 413 1154 413 1154 327 1032 c 128,-1,3
 241 910 241 910 241 738 c 128,-1,4
 241 566 241 566 324.5 449 c 128,-1,5
 408 332 408 332 547 310 c 1,0,-1
547 1496 m 1,6,-1
 642 1496 l 1,7,-1
 642 1314 l 1,8,9
 809 1303 809 1303 896 1221 c 1,10,-1
 854 1102 l 1,11,12
 759 1166 759 1166 642 1176 c 1,13,-1
 642 307 l 1,14,15
 755 318 755 318 855 388 c 1,16,-1
 897 268 l 1,17,18
 803 182 803 182 642 170 c 1,19,-1
 642 1 l 1,20,-1
 547 1 l 1,21,-1
 547 170 l 1,22,23
 398 183 398 183 288 265 c 128,-1,24
 178 347 178 347 124 470.5 c 128,-1,25
 70 594 70 594 70 721 c 128,-1,26
 70 848 70 848 103.5 948 c 128,-1,27
 137 1048 137 1048 197 1126 c 128,-1,28
 257 1204 257 1204 348 1254.5 c 128,-1,29
 439 1305 439 1305 547 1314 c 1,30,-1
 547 1496 l 1,6,-1
EndSplineSet
EndChar

StartChar: sterling
Encoding: 163 163 101
Width: 1132
GlyphClass: 2
Flags: HW
LayerCount: 2
Fore
SplineSet
696 1503 m 0,0,1
 899 1503 899 1503 1053 1373 c 1,2,-1
 975 1253 l 1,3,4
 838 1357 838 1357 698 1357 c 128,-1,5
 558 1357 558 1357 499.5 1263.5 c 128,-1,6
 441 1170 441 1170 441 993 c 2,7,-1
 441 815 l 1,8,-1
 851 815 l 1,9,-1
 851 681 l 1,10,-1
 441 681 l 1,11,-1
 441 519 l 2,12,13
 441 382 441 382 416.5 295.5 c 128,-1,14
 392 209 392 209 319 153 c 1,15,16
 401 158 401 158 413 158 c 2,17,-1
 1068 158 l 1,18,-1
 1068 0 l 1,19,-1
 96 0 l 1,20,-1
 85 139 l 1,21,22
 184 176 184 176 226.5 251 c 128,-1,23
 269 326 269 326 269 449 c 2,24,-1
 269 681 l 1,25,-1
 83 681 l 1,26,-1
 83 815 l 1,27,-1
 269 815 l 1,28,-1
 269 911 l 2,29,30
 269 1316 269 1316 455 1440 c 0,31,32
 549 1503 549 1503 692 1503 c 0,33,34
 694 1503 694 1503 696 1503 c 0,0,1
EndSplineSet
EndChar

StartChar: currency
Encoding: 164 164 102
Width: 1151
GlyphClass: 2
Flags: HW
LayerCount: 2
Fore
SplineSet
241 482 m 1,0,1
 158 595 158 595 158 731 c 128,-1,2
 158 867 158 867 241 981 c 1,3,-1
 55 1160 l 1,4,-1
 129 1232 l 1,5,-1
 313 1057 l 1,6,7
 426 1150 426 1150 575 1150 c 128,-1,8
 724 1150 724 1150 838 1056 c 1,9,-1
 1025 1232 l 1,10,-1
 1095 1158 l 1,11,-1
 911 981 l 1,12,13
 994 864 994 864 994 728 c 128,-1,14
 994 592 994 592 912 482 c 1,15,-1
 1094 306 l 1,16,-1
 1025 232 l 1,17,-1
 838 408 l 1,18,19
 723 315 723 315 574 315 c 128,-1,20
 425 315 425 315 313 408 c 1,21,-1
 129 233 l 1,22,-1
 56 305 l 1,23,-1
 241 482 l 1,0,1
267 732 m 128,-1,25
 267 604 267 604 357.5 513.5 c 128,-1,26
 448 423 448 423 576.5 423 c 128,-1,27
 705 423 705 423 795.5 513.5 c 128,-1,28
 886 604 886 604 886 732 c 128,-1,29
 886 860 886 860 795 951 c 128,-1,30
 704 1042 704 1042 576 1042 c 128,-1,31
 448 1042 448 1042 357.5 951 c 128,-1,24
 267 860 267 860 267 732 c 128,-1,25
EndSplineSet
EndChar

StartChar: yen
Encoding: 165 165 103
Width: 1135
GlyphClass: 2
Flags: HW
LayerCount: 2
Fore
SplineSet
567 805 m 1,0,-1
 936 1479 l 1,1,-1
 1108 1479 l 1,2,-1
 685 729 l 1,3,-1
 991 729 l 1,4,-1
 991 605 l 1,5,-1
 645 605 l 1,6,-1
 645 423 l 1,7,-1
 992 423 l 1,8,-1
 992 299 l 1,9,-1
 645 299 l 1,10,-1
 645 0 l 1,11,-1
 487 0 l 1,12,-1
 487 299 l 1,13,-1
 134 299 l 1,14,-1
 134 423 l 1,15,-1
 487 423 l 1,16,-1
 487 605 l 1,17,-1
 135 605 l 1,18,-1
 135 729 l 1,19,-1
 439 729 l 1,20,-1
 25 1479 l 1,21,-1
 203 1479 l 1,22,-1
 567 805 l 1,0,-1
EndSplineSet
EndChar

StartChar: brokenbar
Encoding: 166 166 104
Width: 788
GlyphClass: 2
Flags: HW
LayerCount: 2
Fore
SplineSet
322 1579 m 1,0,-1
 468 1579 l 1,1,-1
 468 872 l 1,2,-1
 322 872 l 1,3,-1
 322 1579 l 1,0,-1
322 310 m 1,4,-1
 468 310 l 1,5,-1
 468 -399 l 1,6,-1
 322 -399 l 1,7,-1
 322 310 l 1,4,-1
EndSplineSet
EndChar

StartChar: section
Encoding: 167 167 105
Width: 1017
GlyphClass: 2
Flags: HW
LayerCount: 2
Fore
SplineSet
437 995 m 1,0,1
 292 932 292 932 292 808 c 0,2,3
 292 743 292 743 345 698 c 128,-1,4
 398 653 398 653 527 602 c 1,5,-1
 584 578 l 1,6,7
 727 665 727 665 727 764 c 128,-1,8
 727 863 727 863 610 923 c 0,9,10
 542 958 542 958 437 995 c 1,0,1
216 602 m 128,-1,12
 140 676 140 676 141 780 c 1,13,14
 141 971 141 971 307 1059 c 1,15,16
 233 1106 233 1106 196.5 1164 c 128,-1,17
 160 1222 160 1222 160 1307 c 0,18,19
 160 1429 160 1429 248 1500 c 128,-1,20
 336 1571 336 1571 497 1582 c 1,21,22
 536 1586 536 1586 582 1586 c 0,23,24
 695 1586 695 1586 836 1530 c 1,25,26
 822 1460 822 1460 810 1385 c 1,27,28
 675 1446 675 1446 546 1446 c 0,29,30
 318 1446 318 1446 318 1311 c 0,31,32
 318 1249 318 1249 371.5 1206 c 128,-1,33
 425 1163 425 1163 577.5 1101.5 c 128,-1,34
 730 1040 730 1040 804.5 967.5 c 128,-1,35
 879 895 879 895 879 799 c 0,36,37
 879 615 879 615 719 514 c 1,38,39
 868 429 868 429 868 281 c 128,-1,40
 868 133 868 133 753 52 c 128,-1,41
 638 -29 638 -29 449 -29 c 128,-1,42
 260 -29 260 -29 145 30 c 1,43,-1
 145 185 l 1,44,45
 292 109 292 109 431.5 109 c 128,-1,46
 571 109 571 109 640 151.5 c 128,-1,47
 709 194 709 194 709 255 c 128,-1,48
 709 316 709 316 688 338 c 0,49,50
 652 376 652 376 603.5 400.5 c 128,-1,51
 555 425 555 425 464 462 c 1,52,11
 292 528 292 528 216 602 c 128,-1,12
EndSplineSet
EndChar

StartChar: dieresis
Encoding: 168 168 106
Width: 770
GlyphClass: 2
Flags: HW
LayerCount: 2
Fore
SplineSet
272 1254 m 1,0,-1
 118 1254 l 1,1,-1
 118 1466 l 1,2,-1
 272 1466 l 1,3,-1
 272 1254 l 1,0,-1
663 1254 m 1,4,-1
 508 1254 l 1,5,-1
 508 1466 l 1,6,-1
 663 1466 l 1,7,-1
 663 1254 l 1,4,-1
EndSplineSet
EndChar

StartChar: copyright
Encoding: 169 169 107
Width: 1841
GlyphClass: 2
Flags: HW
LayerCount: 2
Fore
SplineSet
1167 1114 m 1,0,1
 1071 1182 1071 1182 905.5 1182 c 128,-1,2
 740 1182 740 1182 655 1067 c 128,-1,3
 570 952 570 952 570 781 c 128,-1,4
 570 610 570 610 661 498.5 c 128,-1,5
 752 387 752 387 929 387 c 0,6,7
 997 387 997 387 1072.5 408 c 128,-1,8
 1148 429 1148 429 1191 459 c 1,9,-1
 1230 352 l 1,10,11
 1175 317 1175 317 1087 293.5 c 128,-1,12
 999 270 999 270 909 270 c 0,13,14
 703 270 703 270 568.5 416 c 128,-1,15
 434 562 434 562 434 786 c 128,-1,16
 434 1010 434 1010 568 1155.5 c 128,-1,17
 702 1301 702 1301 919 1301 c 0,18,19
 1098 1301 1098 1301 1227 1211 c 1,20,-1
 1167 1114 l 1,0,1
615 123.5 m 128,-1,22
 744 67 744 67 905.5 67 c 128,-1,23
 1067 67 1067 67 1199 123 c 128,-1,24
 1331 179 1331 179 1415 276.5 c 128,-1,25
 1499 374 1499 374 1543.5 502 c 128,-1,26
 1588 630 1588 630 1588 778 c 128,-1,27
 1588 926 1588 926 1543 1054.5 c 128,-1,28
 1498 1183 1498 1183 1413 1281.5 c 128,-1,29
 1328 1380 1328 1380 1195 1436.5 c 128,-1,30
 1062 1493 1062 1493 901 1493 c 128,-1,31
 740 1493 740 1493 612.5 1436.5 c 128,-1,32
 485 1380 485 1380 402 1282 c 0,33,34
 230 1080 230 1080 230 781 c 128,-1,35
 230 482 230 482 403 278 c 0,36,21
 486 180 486 180 615 123.5 c 128,-1,22
1657 1070 m 0,37,38
 1701 938 1701 938 1701 781 c 0,39,40
 1702 624 1702 624 1658 491 c 0,41,42
 1576 241 1576 241 1370 107.5 c 128,-1,43
 1164 -26 1164 -26 908 -26 c 128,-1,44
 652 -26 652 -26 446.5 110 c 128,-1,45
 241 246 241 246 161 490 c 0,46,47
 117 624 117 624 117 780.5 c 0,48,49
 116 937 116 937 160 1070 c 0,50,51
 241 1317 241 1317 444.5 1451.5 c 128,-1,52
 648 1586 648 1586 903 1586 c 128,-1,53
 1158 1586 1158 1586 1367 1452 c 128,-1,54
 1576 1318 1576 1318 1657 1070 c 0,37,38
EndSplineSet
EndChar

StartChar: ordfeminine
Encoding: 170 170 108
Width: 807
GlyphClass: 2
Flags: HW
LayerCount: 2
Fore
SplineSet
350 826 m 0,0,1
 253 826 253 826 190.5 887.5 c 128,-1,2
 128 949 128 949 128 1052.5 c 128,-1,3
 128 1156 128 1156 207.5 1214.5 c 128,-1,4
 287 1273 287 1273 543 1289 c 1,5,-1
 543 1307 l 1,6,7
 541 1397 541 1397 513 1435 c 128,-1,8
 485 1473 485 1473 415 1473 c 128,-1,9
 345 1473 345 1473 296 1456.5 c 128,-1,10
 247 1440 247 1440 198 1385 c 1,11,-1
 137 1463 l 1,12,13
 234 1590 234 1590 419 1590 c 0,14,15
 525 1590 525 1590 592.5 1526 c 128,-1,16
 660 1462 660 1462 660 1330 c 2,17,-1
 658 982 l 2,18,19
 658 956 658 956 664 847 c 1,20,-1
 546 847 l 1,21,-1
 543 926 l 1,22,23
 476 826 476 826 350 826 c 0,0,1
369 937 m 0,24,25
 453 937 453 937 496 1002.5 c 128,-1,26
 539 1068 539 1068 543 1168 c 1,27,-1
 543 1195 l 1,28,29
 528 1193 528 1193 495.5 1190.5 c 128,-1,30
 463 1188 463 1188 444 1186 c 0,31,32
 426 1184 426 1184 396 1180 c 0,33,34
 305 1166 305 1166 276 1131 c 128,-1,35
 247 1096 247 1096 247 1048 c 0,36,37
 247 937 247 937 369 937 c 0,24,25
134 741 m 1,38,-1
 679 741 l 1,39,-1
 679 635 l 1,40,-1
 134 635 l 1,41,-1
 134 741 l 1,38,-1
EndSplineSet
EndChar

StartChar: guillemotleft
Encoding: 171 171 109
Width: 1000
GlyphClass: 2
Flags: HW
LayerCount: 2
Fore
SplineSet
771 149 m 1,0,1
 689 259 689 259 524 490 c 2,2,-1
 469 567 l 1,3,-1
 773 970 l 1,4,-1
 901 935 l 1,5,-1
 642 561 l 1,6,-1
 898 185 l 1,7,-1
 771 149 l 1,0,1
390 149 m 1,8,-1
 120 520 l 1,9,-1
 100 567 l 1,10,-1
 393 970 l 1,11,-1
 536 935 l 1,12,-1
 262 561 l 1,13,-1
 531 185 l 1,14,-1
 390 149 l 1,8,-1
EndSplineSet
EndChar

StartChar: logicalnot
Encoding: 172 172 110
Width: 1225
GlyphClass: 2
Flags: HW
LayerCount: 2
Fore
SplineSet
1100 825 m 1,0,-1
 1100 260 l 1,1,-1
 965 260 l 1,2,-1
 965 681 l 1,3,-1
 109 681 l 1,4,-1
 109 825 l 1,5,-1
 1100 825 l 1,0,-1
EndSplineSet
EndChar

StartChar: uni00AD
Encoding: 173 173 111
Width: 946
GlyphClass: 2
Flags: HW
LayerCount: 2
Fore
SplineSet
108 236 m 1,0,-1
 108 386 l 1,1,-1
 843 386 l 1,2,-1
 843 236 l 1,3,-1
 108 236 l 1,0,-1
EndSplineSet
EndChar

StartChar: registered
Encoding: 174 174 112
Width: 1824
GlyphClass: 2
Flags: HW
LayerCount: 2
Fore
SplineSet
914 716 m 1,0,-1
 731 716 l 1,1,-1
 731 301 l 1,2,-1
 599 301 l 1,3,-1
 599 1277 l 1,4,-1
 857 1277 l 2,5,6
 1300 1277 1300 1277 1300 1007 c 0,7,8
 1300 899 1300 899 1239 825.5 c 128,-1,9
 1178 752 1178 752 1040 735 c 1,10,11
 1100 688 1100 688 1161 580 c 0,12,13
 1185 538 1185 538 1232 453 c 128,-1,14
 1279 368 1279 368 1320 301 c 1,15,-1
 1171 301 l 1,16,-1
 1046 525 l 1,17,18
 963 678 963 678 914 716 c 1,0,-1
857 843 m 2,19,20
 1005 843 1005 843 1073 875.5 c 128,-1,21
 1141 908 1141 908 1141 1000.5 c 128,-1,22
 1141 1093 1141 1093 1077.5 1121 c 128,-1,23
 1014 1149 1014 1149 847 1149 c 2,24,-1
 731 1149 l 1,25,-1
 731 843 l 1,26,-1
 857 843 l 2,19,20
615 123.5 m 128,-1,28
 744 67 744 67 905.5 67 c 128,-1,29
 1067 67 1067 67 1199 123 c 128,-1,30
 1331 179 1331 179 1415 276.5 c 128,-1,31
 1499 374 1499 374 1543.5 502 c 128,-1,32
 1588 630 1588 630 1588 778 c 128,-1,33
 1588 926 1588 926 1543 1054.5 c 128,-1,34
 1498 1183 1498 1183 1413 1281.5 c 128,-1,35
 1328 1380 1328 1380 1195 1436.5 c 128,-1,36
 1062 1493 1062 1493 901 1493 c 128,-1,37
 740 1493 740 1493 612.5 1436.5 c 128,-1,38
 485 1380 485 1380 402 1282 c 0,39,40
 230 1080 230 1080 230 781 c 128,-1,41
 230 482 230 482 403 278 c 0,42,27
 486 180 486 180 615 123.5 c 128,-1,28
1657 1070 m 0,43,44
 1701 938 1701 938 1701 781 c 0,45,46
 1702 624 1702 624 1658 491 c 0,47,48
 1576 241 1576 241 1370 107.5 c 128,-1,49
 1164 -26 1164 -26 908 -26 c 128,-1,50
 652 -26 652 -26 446.5 110 c 128,-1,51
 241 246 241 246 161 490 c 0,52,53
 117 624 117 624 117 780.5 c 0,54,55
 116 937 116 937 160 1070 c 0,56,57
 241 1317 241 1317 444.5 1451.5 c 128,-1,58
 648 1586 648 1586 903 1586 c 128,-1,59
 1158 1586 1158 1586 1367 1452 c 128,-1,60
 1576 1318 1576 1318 1657 1070 c 0,43,44
EndSplineSet
EndChar

StartChar: macron
Encoding: 175 175 113
Width: 1062
GlyphClass: 2
Flags: HW
LayerCount: 2
Fore
SplineSet
886 1625 m 1,0,-1
 886 1503 l 1,1,-1
 176 1503 l 1,2,-1
 176 1625 l 1,3,-1
 886 1625 l 1,0,-1
EndSplineSet
EndChar

StartChar: degree
Encoding: 176 176 114
Width: 846
GlyphClass: 2
Flags: HW
LayerCount: 2
Fore
SplineSet
112 1205 m 128,-1,1
 112 1335 112 1335 203.5 1427 c 128,-1,2
 295 1519 295 1519 423 1519 c 128,-1,3
 551 1519 551 1519 643 1427 c 128,-1,4
 735 1335 735 1335 735 1206 c 128,-1,5
 735 1077 735 1077 644 983 c 128,-1,6
 553 889 553 889 424 889 c 128,-1,7
 295 889 295 889 203.5 982 c 128,-1,0
 112 1075 112 1075 112 1205 c 128,-1,1
235 1205 m 128,-1,9
 235 1124 235 1124 290.5 1067 c 128,-1,10
 346 1010 346 1010 424 1010 c 128,-1,11
 502 1010 502 1010 557.5 1067 c 128,-1,12
 613 1124 613 1124 613 1205 c 128,-1,13
 613 1286 613 1286 557.5 1342.5 c 128,-1,14
 502 1399 502 1399 424 1399 c 128,-1,15
 346 1399 346 1399 290.5 1342.5 c 128,-1,8
 235 1286 235 1286 235 1205 c 128,-1,9
EndSplineSet
EndChar

StartChar: plusminus
Encoding: 177 177 115
Width: 1202
GlyphClass: 2
Flags: HW
LayerCount: 2
Fore
SplineSet
668 790 m 1,0,-1
 1086 790 l 1,1,-1
 1086 647 l 1,2,-1
 670 647 l 1,3,-1
 670 233 l 1,4,-1
 533 233 l 1,5,-1
 533 647 l 1,6,-1
 118 647 l 1,7,-1
 118 790 l 1,8,-1
 532 790 l 1,9,-1
 532 1206 l 1,10,-1
 668 1206 l 1,11,-1
 668 790 l 1,0,-1
118 0 m 1,12,-1
 118 143 l 1,13,-1
 1088 143 l 1,14,-1
 1088 0 l 1,15,-1
 118 0 l 1,12,-1
EndSplineSet
EndChar

StartChar: uni00B2
Encoding: 178 178 116
Width: 763
GlyphClass: 2
Flags: HW
LayerCount: 2
Fore
SplineSet
615 650 m 1,0,-1
 134 650 l 1,1,-1
 134 769 l 1,2,3
 209 854 209 854 238 886.5 c 0,4,5
 267 920 267 920 323 986 c 0,6,7
 393 1070 393 1070 448.5 1155.5 c 128,-1,8
 504 1241 504 1241 504 1299.5 c 128,-1,9
 504 1358 504 1358 471 1391 c 128,-1,10
 438 1424 438 1424 380 1424 c 0,11,12
 273 1424 273 1424 217 1282 c 1,13,-1
 143 1367 l 1,14,15
 173 1454 173 1454 237.5 1502.5 c 128,-1,16
 302 1551 302 1551 394.5 1551 c 128,-1,17
 487 1551 487 1551 552 1483 c 128,-1,18
 617 1415 617 1415 617 1303 c 0,19,20
 617 1156 617 1156 486 990 c 0,21,22
 420 906 420 906 297 778 c 1,23,-1
 615 778 l 1,24,-1
 615 650 l 1,0,-1
EndSplineSet
EndChar

StartChar: uni00B3
Encoding: 179 179 117
Width: 756
GlyphClass: 2
Flags: HW
LayerCount: 2
Fore
SplineSet
478 1303 m 0,0,1
 478 1424 478 1424 340 1424 c 0,2,3
 270 1424 270 1424 185 1339 c 1,4,-1
 132 1442 l 1,5,6
 174 1492 174 1492 233 1522.5 c 128,-1,7
 292 1553 292 1553 354 1553 c 0,8,9
 451 1553 451 1553 522 1485 c 128,-1,10
 593 1417 593 1417 593 1295.5 c 128,-1,11
 593 1174 593 1174 498 1112 c 1,12,13
 613 1048 613 1048 613 899 c 0,14,15
 613 778 613 778 537 704.5 c 128,-1,16
 461 631 461 631 340 631 c 128,-1,17
 219 631 219 631 132 735 c 1,18,-1
 187 838 l 1,19,20
 264 753 264 753 337.5 753 c 128,-1,21
 411 753 411 753 454.5 794.5 c 128,-1,22
 498 836 498 836 498 908 c 0,23,24
 498 1046 498 1046 308 1046 c 2,25,-1
 260 1046 l 1,26,-1
 260 1174 l 1,27,-1
 304 1174 l 2,28,29
 478 1174 478 1174 478 1303 c 0,0,1
EndSplineSet
EndChar

StartChar: acute
Encoding: 180 180 118
Width: 639
GlyphClass: 2
Flags: HW
LayerCount: 2
Fore
SplineSet
567 1638 m 1,0,-1
 242 1250 l 1,1,-1
 128 1250 l 1,2,-1
 314 1638 l 1,3,-1
 567 1638 l 1,0,-1
EndSplineSet
EndChar

StartChar: paragraph
Encoding: 182 182 119
Width: 1068
GlyphClass: 2
Flags: HW
LayerCount: 2
Fore
SplineSet
393 -158 m 1,0,-1
 393 847 l 1,1,2
 286 849 286 849 197.5 903 c 128,-1,3
 109 957 109 957 61 1039.5 c 128,-1,4
 13 1122 13 1122 13 1202 c 0,5,6
 13 1353 13 1353 120.5 1457 c 128,-1,7
 228 1561 228 1561 461 1561 c 2,8,-1
 927 1561 l 1,9,-1
 927 1430 l 1,10,-1
 852 1430 l 1,11,-1
 852 -158 l 1,12,-1
 737 -158 l 1,13,-1
 737 1430 l 1,14,-1
 518 1430 l 1,15,-1
 518 -158 l 1,16,-1
 393 -158 l 1,0,-1
EndSplineSet
EndChar

StartChar: periodcentered
Encoding: 183 183 120
Width: 468
GlyphClass: 2
Flags: HW
LayerCount: 2
Fore
SplineSet
318 759 m 1,0,-1
 318 561 l 1,1,-1
 150 561 l 1,2,-1
 150 759 l 1,3,-1
 318 759 l 1,0,-1
EndSplineSet
EndChar

StartChar: cedilla
Encoding: 184 184 121
Width: 596
GlyphClass: 2
Flags: HW
LayerCount: 2
Fore
SplineSet
268 -410 m 1,0,-1
 114 -410 l 1,1,-1
 226 16 l 1,2,-1
 312 16 l 1,3,-1
 268 -410 l 1,0,-1
EndSplineSet
EndChar

StartChar: uni00B9
Encoding: 185 185 122
Width: 601
GlyphClass: 2
Flags: HW
LayerCount: 2
Fore
SplineSet
122 1334 m 1,0,-1
 122 1436 l 1,1,2
 216 1484 216 1484 271 1539 c 1,3,-1
 368 1538 l 1,4,-1
 368 746 l 1,5,-1
 492 746 l 1,6,-1
 492 650 l 1,7,-1
 135 650 l 1,8,-1
 135 746 l 1,9,-1
 253 746 l 1,10,-1
 253 1409 l 1,11,12
 205 1377 205 1377 122 1334 c 1,0,-1
EndSplineSet
EndChar

StartChar: ordmasculine
Encoding: 186 186 123
Width: 899
GlyphClass: 2
Flags: HW
LayerCount: 2
Fore
SplineSet
451 1590 m 128,-1,1
 599 1590 599 1590 684 1481 c 128,-1,2
 769 1372 769 1372 769 1206.5 c 128,-1,3
 769 1041 769 1041 684.5 933.5 c 128,-1,4
 600 826 600 826 449.5 826 c 128,-1,5
 299 826 299 826 215 933.5 c 128,-1,6
 131 1041 131 1041 131 1207.5 c 128,-1,7
 131 1374 131 1374 217 1482 c 128,-1,0
 303 1590 303 1590 451 1590 c 128,-1,1
308 1396.5 m 128,-1,9
 256 1320 256 1320 256 1205 c 128,-1,10
 256 1090 256 1090 307 1015.5 c 128,-1,11
 358 941 358 941 450.5 941 c 128,-1,12
 543 941 543 941 594 1016.5 c 128,-1,13
 645 1092 645 1092 645 1205.5 c 128,-1,14
 645 1319 645 1319 593 1396 c 128,-1,15
 541 1473 541 1473 450.5 1473 c 128,-1,8
 360 1473 360 1473 308 1396.5 c 128,-1,9
EndSplineSet
EndChar

StartChar: guillemotright
Encoding: 187 187 124
Width: 1012
GlyphClass: 2
Flags: HW
LayerCount: 2
Fore
SplineSet
915 554 m 1,0,-1
 622 149 l 1,1,-1
 483 185 l 1,2,-1
 753 562 l 1,3,-1
 488 935 l 1,4,-1
 625 970 l 1,5,-1
 915 554 l 1,0,-1
534 554 m 1,6,-1
 230 149 l 1,7,-1
 102 185 l 1,8,-1
 361 562 l 1,9,-1
 104 935 l 1,10,-1
 231 970 l 1,11,-1
 534 554 l 1,6,-1
EndSplineSet
EndChar

StartChar: onequarter
Encoding: 188 188 125
Width: 1609
GlyphClass: 2
Flags: HW
LayerCount: 2
Fore
SplineSet
1066 358 m 1,0,-1
 1312 358 l 1,1,2
 1312 688 1312 688 1313 716 c 1,3,-1
 1066 358 l 1,0,-1
1165 1547 m 1,4,-1
 1300 1547 l 1,5,-1
 379 0 l 1,6,-1
 245 0 l 1,7,-1
 1165 1547 l 1,4,-1
1420 40 m 1,8,-1
 1313 40 l 1,9,-1
 1313 240 l 1,10,-1
 923 240 l 1,11,-1
 923 339 l 1,12,-1
 1302 899 l 1,13,-1
 1422 899 l 1,14,-1
 1422 358 l 1,15,-1
 1516 358 l 1,16,-1
 1526 240 l 1,17,-1
 1420 240 l 1,18,-1
 1420 40 l 1,8,-1
122 1334 m 1,19,-1
 122 1436 l 1,20,21
 216 1484 216 1484 271 1539 c 1,22,-1
 368 1538 l 1,23,-1
 368 746 l 1,24,-1
 492 746 l 1,25,-1
 492 650 l 1,26,-1
 135 650 l 1,27,-1
 135 746 l 1,28,-1
 253 746 l 1,29,-1
 253 1409 l 1,30,31
 205 1377 205 1377 122 1334 c 1,19,-1
EndSplineSet
EndChar

StartChar: onehalf
Encoding: 189 189 126
Width: 1591
GlyphClass: 2
Flags: HW
LayerCount: 2
Fore
SplineSet
135 650 m 1,0,-1
 135 746 l 1,1,-1
 253 746 l 1,2,-1
 253 1409 l 1,3,4
 205 1377 205 1377 122 1334 c 1,5,-1
 122 1436 l 1,6,7
 216 1484 216 1484 271 1539 c 1,8,-1
 368 1538 l 1,9,-1
 368 746 l 1,10,-1
 492 746 l 1,11,-1
 492 650 l 1,12,-1
 135 650 l 1,0,-1
934 -30 m 1,13,-1
 934 63 l 1,14,15
 1157 287 1157 287 1218 355 c 1,16,17
 1366 526 1366 526 1368 604 c 0,18,19
 1368 607 1368 607 1369 610 c 1,20,21
 1369 683 1369 683 1329.5 721.5 c 128,-1,22
 1290 760 1290 760 1233 760 c 128,-1,23
 1176 760 1176 760 1119 728.5 c 128,-1,24
 1062 697 1062 697 1020 634 c 1,25,-1
 943 699 l 1,26,27
 977 778 977 778 1060 823 c 128,-1,28
 1143 868 1143 868 1245 868 c 128,-1,29
 1347 868 1347 868 1423 806.5 c 128,-1,30
 1499 745 1499 745 1499 629 c 0,31,32
 1499 551 1499 551 1472 499.5 c 128,-1,33
 1445 448 1445 448 1429.5 420.5 c 128,-1,34
 1414 393 1414 393 1376 349.5 c 128,-1,35
 1338 306 1338 306 1318.5 283.5 c 128,-1,36
 1299 261 1299 261 1247 211.5 c 128,-1,37
 1195 162 1195 162 1174.5 143.5 c 128,-1,38
 1154 125 1154 125 1093 69 c 1,39,-1
 1487 69 l 1,40,-1
 1487 -30 l 1,41,-1
 934 -30 l 1,13,-1
245 0 m 1,42,-1
 1165 1547 l 1,43,-1
 1300 1547 l 1,44,-1
 379 0 l 1,45,-1
 245 0 l 1,42,-1
EndSplineSet
EndChar

StartChar: threequarters
Encoding: 190 190 127
Width: 1630
GlyphClass: 2
Flags: HW
LayerCount: 2
Fore
SplineSet
534 705.5 m 128,-1,1
 448 631 448 631 325.5 631 c 128,-1,2
 203 631 203 631 116 735 c 1,3,-1
 168 838 l 1,4,5
 245 753 245 753 319 753 c 128,-1,6
 393 753 393 753 438.5 794.5 c 128,-1,7
 484 836 484 836 484 903 c 0,8,9
 484 1046 484 1046 293 1046 c 2,10,-1
 244 1046 l 1,11,-1
 244 1174 l 1,12,-1
 288 1174 l 2,13,14
 462 1174 462 1174 462 1303 c 0,15,16
 462 1364 462 1364 428 1394 c 128,-1,17
 394 1424 394 1424 337 1424 c 0,18,19
 251 1424 251 1424 166 1339 c 1,20,-1
 116 1442 l 1,21,22
 158 1492 158 1492 217 1522.5 c 128,-1,23
 276 1553 276 1553 338 1553 c 0,24,25
 438 1553 438 1553 519 1484.5 c 128,-1,26
 600 1416 600 1416 600 1295.5 c 128,-1,27
 600 1175 600 1175 487 1112 c 1,28,29
 620 1049 620 1049 620 899 c 0,30,0
 620 780 620 780 534 705.5 c 128,-1,1
1334 44 m 1,31,-1
 1334 245 l 1,32,-1
 942 245 l 1,33,-1
 942 343 l 1,34,-1
 1321 903 l 1,35,-1
 1442 903 l 1,36,-1
 1442 361 l 1,37,-1
 1538 361 l 1,38,-1
 1546 245 l 1,39,-1
 1441 245 l 1,40,-1
 1441 44 l 1,41,-1
 1334 44 l 1,31,-1
331 0 m 1,42,-1
 1249 1547 l 1,43,-1
 1393 1547 l 1,44,-1
 465 0 l 1,45,-1
 331 0 l 1,42,-1
1085 361 m 1,46,-1
 1331 361 l 1,47,48
 1331 664 1331 664 1334 721 c 1,49,-1
 1085 361 l 1,46,-1
EndSplineSet
EndChar

StartChar: AE
Encoding: 198 198 135
Width: 2092
GlyphClass: 2
Flags: HW
LayerCount: 2
Fore
SplineSet
582 589 m 1,0,-1
 1130 589 l 1,1,-1
 1069 1409 l 1,2,-1
 582 589 l 1,0,-1
85 0 m 1,3,-1
 1001 1568 l 1,4,-1
 1946 1568 l 1,5,-1
 1946 1409 l 1,6,-1
 1241 1409 l 1,7,-1
 1280 882 l 1,8,-1
 1911 882 l 1,9,-1
 1911 724 l 1,10,-1
 1300 724 l 1,11,-1
 1342 158 l 1,12,-1
 1966 158 l 1,13,-1
 1966 0 l 1,14,-1
 1183 0 l 1,15,-1
 1152 427 l 1,16,-1
 498 427 l 1,17,-1
 258 0 l 1,18,-1
 85 0 l 1,3,-1
EndSplineSet
EndChar

StartChar: Eth
Encoding: 208 208 145
Width: 1522
GlyphClass: 2
Flags: HW
LayerCount: 2
Fore
SplineSet
324 155 m 1,0,-1
 639 155 l 2,1,2
 918 155 918 155 1070.5 301.5 c 128,-1,3
 1223 448 1223 448 1223 734 c 0,4,5
 1223 1132 1223 1132 957 1263 c 0,6,7
 799 1341 799 1341 540 1341 c 2,8,-1
 324 1341 l 1,9,-1
 324 832 l 1,10,-1
 566 832 l 1,11,-1
 566 697 l 1,12,-1
 324 697 l 1,13,-1
 324 155 l 1,0,-1
147 0 m 1,14,-1
 147 697 l 1,15,-1
 29 697 l 1,16,-1
 29 832 l 1,17,-1
 147 832 l 1,18,-1
 147 1496 l 1,19,-1
 519 1496 l 2,20,21
 1030 1496 1030 1496 1247 1254 c 0,22,23
 1412 1071 1412 1071 1412 720.5 c 128,-1,24
 1412 370 1412 370 1196.5 185 c 128,-1,25
 981 0 981 0 621 0 c 2,26,-1
 147 0 l 1,14,-1
EndSplineSet
EndChar

StartChar: multiply
Encoding: 215 215 152
Width: 993
GlyphClass: 2
Flags: HW
LayerCount: 2
Fore
SplineSet
876 278 m 1,0,-1
 768 181 l 1,1,-1
 496 494 l 1,2,-1
 224 181 l 1,3,-1
 116 278 l 1,4,-1
 401 604 l 1,5,-1
 116 932 l 1,6,-1
 222 1027 l 1,7,-1
 496 713 l 1,8,-1
 770 1027 l 1,9,-1
 876 932 l 1,10,-1
 591 604 l 1,11,-1
 876 278 l 1,0,-1
EndSplineSet
EndChar

StartChar: Oslash
Encoding: 216 216 153
Width: 1626
GlyphClass: 2
Flags: HW
LayerCount: 2
Fore
SplineSet
1114 1270 m 1,0,-1
 657 148 l 1,1,2
 733 129 733 129 814 129 c 0,3,4
 1070 129 1070 129 1199.5 291 c 128,-1,5
 1329 453 1329 453 1329 739 c 0,6,7
 1329 1121 1329 1121 1114 1270 c 1,0,-1
989 1329 m 1,8,9
 911 1353 911 1353 815 1353 c 0,10,11
 562 1353 562 1353 429 1192 c 128,-1,12
 296 1031 296 1031 296 739 c 0,13,14
 296 344 296 344 534 199 c 1,15,-1
 989 1329 l 1,8,9
502 -232 m 1,16,-1
 377 -189 l 1,17,-1
 473 50 l 1,18,19
 297 136 297 136 204.5 314.5 c 128,-1,20
 112 493 112 493 112 740 c 0,21,22
 112 1095 112 1095 297 1300 c 128,-1,23
 482 1505 482 1505 815 1505 c 0,24,25
 940 1505 940 1505 1047 1473 c 1,26,-1
 1136 1693 l 1,27,-1
 1267 1647 l 1,28,-1
 1175 1420 l 1,29,30
 1339 1330 1339 1330 1426.5 1154.5 c 128,-1,31
 1514 979 1514 979 1514 739 c 0,32,33
 1514 398 1514 398 1334 190 c 1,34,35
 1246 90 1246 90 1113 34 c 128,-1,36
 980 -22 980 -22 839.5 -22 c 128,-1,37
 699 -22 699 -22 598 4 c 1,38,-1
 502 -232 l 1,16,-1
EndSplineSet
EndChar

StartChar: Thorn
Encoding: 222 222 159
Width: 1291
GlyphClass: 2
Flags: HW
LayerCount: 2
Fore
SplineSet
147 0 m 1,0,-1
 147 1496 l 1,1,-1
 324 1496 l 1,2,-1
 324 1217 l 1,3,-1
 648 1217 l 2,4,5
 929 1217 929 1217 1069 1118.5 c 128,-1,6
 1209 1020 1209 1020 1209 800 c 128,-1,7
 1209 580 1209 580 1089 461 c 128,-1,8
 969 342 969 342 719 342 c 1,9,-1
 324 349 l 1,10,-1
 324 0 l 1,11,-1
 147 0 l 1,0,-1
324 493 m 1,12,-1
 708 493 l 2,13,14
 1040 493 1040 493 1040 782 c 0,15,16
 1040 932 1040 932 954.5 1000 c 128,-1,17
 869 1068 869 1068 666 1068 c 2,18,-1
 324 1068 l 1,19,-1
 324 493 l 1,12,-1
EndSplineSet
EndChar

StartChar: germandbls
Encoding: 223 223 160
Width: 1222
GlyphClass: 2
Flags: HW
LayerCount: 2
Fore
SplineSet
771 148 m 2,0,1
 868 148 868 148 922.5 200.5 c 128,-1,2
 977 253 977 253 977 348 c 128,-1,3
 977 443 977 443 887 514 c 128,-1,4
 797 585 797 585 708 635.5 c 128,-1,5
 619 686 619 686 591 705 c 0,6,7
 509 761 509 761 509 820.5 c 128,-1,8
 509 880 509 880 574 934 c 0,9,10
 600 955 600 955 649 986.5 c 128,-1,11
 698 1018 698 1018 725.5 1038 c 128,-1,12
 753 1058 753 1058 776 1096 c 128,-1,13
 799 1134 799 1134 799 1182 c 0,14,15
 799 1269 799 1269 732 1321 c 128,-1,16
 665 1373 665 1373 568 1373 c 0,17,18
 286 1373 286 1373 286 1056 c 2,19,-1
 286 0 l 1,20,-1
 118 0 l 1,21,-1
 118 1046 l 2,22,23
 118 1275 118 1275 230 1400 c 128,-1,24
 342 1525 342 1525 550 1525 c 128,-1,25
 758 1525 758 1525 873 1433.5 c 128,-1,26
 988 1342 988 1342 988 1182 c 0,27,28
 988 1099 988 1099 961 1058.5 c 128,-1,29
 934 1018 934 1018 916 998 c 0,30,31
 887 964 887 964 834 930 c 128,-1,32
 781 896 781 896 683 838 c 1,33,34
 736 800 736 800 838 740 c 0,35,36
 1016 635 1016 635 1091 551.5 c 128,-1,37
 1166 468 1166 468 1166 361 c 128,-1,38
 1166 254 1166 254 1137 186 c 0,39,40
 1058 0 1058 0 786 0 c 2,41,-1
 443 0 l 1,42,-1
 459 148 l 1,43,-1
 771 148 l 2,0,1
EndSplineSet
EndChar

StartChar: ae
Encoding: 230 230 167
Width: 1671
GlyphClass: 2
Flags: HW
LayerCount: 2
Fore
SplineSet
652 13.5 m 128,-1,1
 529 -26 529 -26 402 -26 c 128,-1,2
 275 -26 275 -26 184.5 52.5 c 128,-1,3
 94 131 94 131 94 295.5 c 128,-1,4
 94 460 94 460 224 528 c 0,5,6
 307 572 307 572 412.5 588.5 c 128,-1,7
 518 605 518 605 665 613 c 2,8,-1
 728 616 l 1,9,-1
 728 781 l 2,10,11
 728 883 728 883 685 929.5 c 128,-1,12
 642 976 642 976 541 976 c 0,13,14
 337 976 337 976 182 894 c 1,15,-1
 146 1032 l 1,16,17
 211 1069 211 1069 319.5 1096.5 c 128,-1,18
 428 1124 428 1124 543 1124 c 128,-1,19
 658 1124 658 1124 743.5 1075 c 128,-1,20
 829 1026 829 1026 851 932 c 1,21,22
 904 1027 904 1027 998.5 1075.5 c 128,-1,23
 1093 1124 1093 1124 1199 1124 c 0,24,25
 1403 1124 1403 1124 1491.5 994.5 c 128,-1,26
 1580 865 1580 865 1580 684 c 0,27,28
 1580 606 1580 606 1543.5 573 c 128,-1,29
 1507 540 1507 540 1393 534 c 2,30,-1
 896 509 l 1,31,32
 909 322 909 322 982.5 220.5 c 128,-1,33
 1056 119 1056 119 1208 119 c 0,34,35
 1296 119 1296 119 1382 152 c 128,-1,36
 1468 185 1468 185 1531 229 c 1,37,-1
 1583 108 l 1,38,39
 1429 -25 1429 -25 1212 -25 c 128,-1,40
 995 -25 995 -25 870 112 c 1,41,0
 775 53 775 53 652 13.5 c 128,-1,1
430 113 m 0,42,43
 431 113 431 113 433 113 c 0,44,45
 527 113 527 113 732 184 c 0,46,47
 788 204 788 204 801 208 c 1,48,49
 734 330 734 330 725 499 c 1,50,51
 370 482 370 482 294 392 c 0,52,53
 262 354 262 354 262 291 c 0,54,55
 262 113 262 113 430 113 c 0,42,43
902 615 m 1,56,-1
 1418 644 l 1,57,-1
 1418 654 l 1,58,59
 1416 825 1416 825 1364.5 904.5 c 128,-1,60
 1313 984 1313 984 1203 984 c 0,61,62
 1060 984 1060 984 985.5 882.5 c 128,-1,63
 911 781 911 781 902 615 c 1,56,-1
EndSplineSet
EndChar

StartChar: eth
Encoding: 240 240 177
Width: 1204
GlyphClass: 2
Flags: HW
LayerCount: 2
Fore
SplineSet
569 972 m 0,0,1
 715 972 715 972 844 877 c 1,2,3
 761 1035 761 1035 541 1257 c 1,4,-1
 269 1145 l 1,5,-1
 226 1277 l 1,6,-1
 446 1364 l 1,7,-1
 210 1588 l 1,8,-1
 433 1588 l 1,9,-1
 579 1429 l 1,10,-1
 868 1542 l 1,11,-1
 914 1413 l 1,12,-1
 672 1320 l 1,13,14
 920 1050 920 1050 1015 884 c 1,15,16
 1117 692 1117 692 1117 479.5 c 128,-1,17
 1117 267 1117 267 985.5 121 c 128,-1,18
 854 -25 854 -25 603 -25 c 0,19,20
 482 -25 482 -25 383 16.5 c 128,-1,21
 284 58 284 58 220 128 c 0,22,23
 87 275 87 275 87 490 c 128,-1,24
 87 705 87 705 219.5 838.5 c 128,-1,25
 352 972 352 972 569 972 c 0,0,1
603 833 m 0,26,27
 449 833 449 833 359 733 c 128,-1,28
 269 633 269 633 269 485 c 0,29,30
 269 272 269 272 421 168 c 0,31,32
 500 114 500 114 609 114 c 0,33,34
 766 114 766 114 855.5 215 c 128,-1,35
 945 316 945 316 945 465 c 128,-1,36
 945 614 945 614 858 720 c 0,37,38
 816 771 816 771 749.5 802 c 128,-1,39
 683 833 683 833 603 833 c 0,26,27
EndSplineSet
EndChar

StartChar: divide
Encoding: 247 247 184
Width: 1211
GlyphClass: 2
Flags: HW
LayerCount: 2
Fore
SplineSet
682 249 m 1,0,-1
 682 22 l 1,1,-1
 491 22 l 1,2,-1
 491 249 l 1,3,-1
 682 249 l 1,0,-1
716 1166 m 1,4,-1
 716 939 l 1,5,-1
 491 939 l 1,6,-1
 491 1166 l 1,7,-1
 716 1166 l 1,4,-1
1098 523 m 1,8,-1
 97 523 l 1,9,-1
 97 672 l 1,10,-1
 1098 672 l 1,11,-1
 1098 523 l 1,8,-1
EndSplineSet
EndChar

StartChar: oslash
Encoding: 248 248 185
Width: 1200
GlyphClass: 2
Flags: HW
LayerCount: 2
Fore
SplineSet
807 913 m 1,0,-1
 463 144 l 1,1,2
 525 116 525 116 604 116 c 0,3,4
 768 116 768 116 851.5 233 c 128,-1,5
 935 350 935 350 935 548 c 0,6,7
 935 805 935 805 807 913 c 1,0,-1
736 955 m 1,8,9
 675 980 675 980 601 980 c 0,10,11
 437 980 437 980 351 862 c 128,-1,12
 265 744 265 744 265 546 c 0,13,14
 265 299 265 299 394 188 c 1,15,-1
 736 955 l 1,8,9
294 -235 m 1,16,-1
 223 -197 l 1,17,-1
 332 48 l 1,18,19
 217 119 217 119 154.5 250 c 128,-1,20
 92 381 92 381 92 548 c 0,21,22
 92 804 92 804 229 962 c 128,-1,23
 366 1120 366 1120 605 1120 c 0,24,25
 707 1120 707 1120 795 1087 c 1,26,-1
 902 1327 l 1,27,-1
 979 1296 l 1,28,-1
 869 1051 l 1,29,30
 984 981 984 981 1046 849.5 c 128,-1,31
 1108 718 1108 718 1108 549 c 0,32,33
 1108 294 1108 294 972 135.5 c 128,-1,34
 836 -23 836 -23 596 -23 c 0,35,36
 491 -23 491 -23 404 12 c 1,37,-1
 294 -235 l 1,16,-1
EndSplineSet
EndChar

StartChar: thorn
Encoding: 254 254 191
Width: 1205
GlyphClass: 2
Flags: HW
LayerCount: 2
Fore
SplineSet
471.5 148.5 m 128,-1,1
 537 113 537 113 614 113 c 0,2,3
 691 112 691 112 745 140 c 0,4,5
 840 188 840 188 883 304 c 128,-1,6
 926 420 926 420 926 524.5 c 128,-1,7
 926 629 926 629 911.5 701 c 128,-1,8
 897 773 897 773 865 839.5 c 128,-1,9
 833 906 833 906 773 946 c 128,-1,10
 713 986 713 986 617.5 986 c 128,-1,11
 522 986 522 986 443 924 c 0,12,13
 290 805 290 805 290 551 c 0,14,15
 290 368 290 368 367 246 c 0,16,0
 406 184 406 184 471.5 148.5 c 128,-1,1
292 162 m 1,17,-1
 292 -459 l 1,18,-1
 124 -459 l 1,19,-1
 124 1510 l 1,20,-1
 292 1510 l 1,21,-1
 292 933 l 1,22,23
 421 1124 421 1124 643 1124 c 1,24,25
 778 1123 778 1123 882.5 1048.5 c 128,-1,26
 987 974 987 974 1043 846.5 c 128,-1,27
 1099 719 1099 719 1099 560 c 0,28,29
 1099 268 1099 268 937 97 c 0,30,31
 822 -25 822 -25 643 -25 c 0,32,33
 402 -25 402 -25 292 162 c 1,17,-1
EndSplineSet
EndChar

StartChar: dcroat
Encoding: 273 273 208
Width: 1168
GlyphClass: 2
Flags: HW
LayerCount: 2
Fore
SplineSet
797.5 244 m 128,-1,1
 882 364 882 364 882 549 c 128,-1,2
 882 734 882 734 801.5 855.5 c 128,-1,3
 721 977 721 977 550 977 c 0,4,5
 470 977 470 977 408 939.5 c 128,-1,6
 346 902 346 902 312 840 c 0,7,8
 243 717 243 717 243 549.5 c 128,-1,9
 243 382 243 382 315 253 c 128,-1,10
 387 124 387 124 550 124 c 128,-1,0
 713 124 713 124 797.5 244 c 128,-1,1
541 -24 m 0,11,12
 323 -24 323 -24 196.5 137.5 c 128,-1,13
 70 299 70 299 70 561 c 0,14,15
 70 716 70 716 127.5 844.5 c 128,-1,16
 185 973 185 973 292 1049 c 128,-1,17
 399 1125 399 1125 522.5 1125 c 128,-1,18
 646 1125 646 1125 742.5 1074 c 128,-1,19
 839 1023 839 1023 881 937 c 1,20,-1
 881 1199 l 1,21,-1
 658 1199 l 1,22,-1
 658 1341 l 1,23,-1
 881 1341 l 1,24,-1
 881 1490 l 1,25,-1
 1049 1510 l 1,26,-1
 1049 1341 l 1,27,-1
 1166 1341 l 1,28,-1
 1166 1199 l 1,29,-1
 1049 1199 l 1,30,-1
 1049 0 l 1,31,-1
 900 0 l 1,32,-1
 879 172 l 1,33,34
 830 84 830 84 740.5 30 c 128,-1,35
 651 -24 651 -24 541 -24 c 0,11,12
EndSplineSet
EndChar

StartChar: gcommaaccent
Encoding: 291 291 222
Width: 1187
GlyphClass: 2
Flags: HW
LayerCount: 2
Fore
SplineSet
793 1749 m 1,0,-1
 683 1250 l 1,1,-1
 488 1250 l 1,2,-1
 653 1749 l 1,3,-1
 793 1749 l 1,0,-1
884 180 m 1,4,5
 759 1 759 1 558 1 c 0,6,7
 275 1 275 1 144 245 c 1,8,9
 70 381 70 381 70 523 c 128,-1,10
 70 665 70 665 99.5 767 c 128,-1,11
 129 869 129 869 187 949 c 128,-1,12
 245 1029 245 1029 339.5 1074.5 c 128,-1,13
 434 1120 434 1120 556 1120 c 0,14,15
 763 1120 763 1120 889 951 c 1,16,-1
 889 1097 l 1,17,-1
 1052 1097 l 1,18,-1
 1052 79 l 2,19,20
 1052 -156 1052 -156 995 -271 c 128,-1,21
 938 -386 938 -386 820 -444 c 128,-1,22
 702 -502 702 -502 497 -502 c 2,23,-1
 312 -502 l 1,24,-1
 297 -351 l 1,25,-1
 501 -351 l 2,26,27
 504 -351 504 -351 507 -351 c 0,28,29
 676 -351 676 -351 756 -299 c 0,30,31
 838 -246 838 -246 861 -154.5 c 128,-1,32
 884 -63 884 -63 884 83 c 2,33,-1
 884 180 l 1,4,5
578 143 m 0,34,35
 654 143 654 143 718 173 c 128,-1,36
 782 203 782 203 818 256 c 0,37,38
 889 361 889 361 889 516 c 2,39,-1
 889 597 l 1,40,41
 890 762 890 762 813 871 c 0,42,43
 737 979 737 979 573 979 c 0,44,45
 571 979 571 979 570 979 c 0,46,47
 569 979 569 979 568 979 c 0,48,49
 378 979 378 979 290 786 c 0,50,51
 242 681 242 681 242 554 c 0,52,53
 242 358 242 358 355 234 c 0,54,55
 437 144 437 144 578 143 c 0,34,35
EndSplineSet
EndChar

StartChar: Hbar
Encoding: 294 294 225
Width: 1463
GlyphClass: 2
Flags: HW
LayerCount: 2
Fore
SplineSet
1141 696 m 1,0,-1
 324 696 l 1,1,-1
 324 0 l 1,2,-1
 147 0 l 1,3,-1
 147 1146 l 1,4,-1
 57 1146 l 1,5,-1
 57 1251 l 1,6,-1
 147 1251 l 1,7,-1
 147 1496 l 1,8,-1
 324 1496 l 1,9,-1
 324 1251 l 1,10,-1
 1141 1251 l 1,11,-1
 1141 1496 l 1,12,-1
 1318 1496 l 1,13,-1
 1318 1251 l 1,14,-1
 1408 1251 l 1,15,-1
 1408 1146 l 1,16,-1
 1318 1146 l 1,17,-1
 1318 0 l 1,18,-1
 1141 0 l 1,19,-1
 1141 696 l 1,0,-1
324 1146 m 1,20,-1
 324 848 l 1,21,-1
 1141 848 l 1,22,-1
 1141 1146 l 1,23,-1
 324 1146 l 1,20,-1
EndSplineSet
EndChar

StartChar: hbar
Encoding: 295 295 226
Width: 1112
GlyphClass: 2
Flags: HW
LayerCount: 2
Fore
SplineSet
282 0 m 1,0,-1
 114 0 l 1,1,-1
 114 1270 l 1,2,-1
 21 1270 l 1,3,-1
 21 1386 l 1,4,-1
 114 1386 l 1,5,-1
 114 1490 l 1,6,-1
 282 1510 l 1,7,-1
 282 1386 l 1,8,-1
 558 1386 l 1,9,-1
 558 1270 l 1,10,-1
 282 1270 l 1,11,-1
 282 949 l 1,12,13
 427 1124 427 1124 674 1124 c 0,14,15
 842 1124 842 1124 924.5 1004.5 c 128,-1,16
 1007 885 1007 885 1007 664 c 2,17,-1
 1007 0 l 1,18,-1
 839 0 l 1,19,-1
 839 617 l 2,20,21
 839 621 839 621 839 625 c 0,22,23
 840 859 840 859 784 919 c 0,24,25
 728 980 728 980 613 980 c 128,-1,26
 498 980 498 980 401 906.5 c 128,-1,27
 304 833 304 833 282 748 c 1,28,-1
 282 0 l 1,0,-1
EndSplineSet
EndChar

StartChar: dotlessi
Encoding: 305 305 236
Width: 430
GlyphClass: 2
Flags: HW
LayerCount: 2
Fore
SplineSet
304 1098 m 1,0,-1
 304 0 l 1,1,-1
 135 0 l 1,2,-1
 135 1098 l 1,3,-1
 304 1098 l 1,0,-1
EndSplineSet
EndChar

StartChar: IJ
Encoding: 306 306 237
Width: 1090
GlyphClass: 2
Flags: HW
LayerCount: 2
Fore
SplineSet
355 0 m 1,0,-1
 182 0 l 1,1,-1
 182 1479 l 1,2,-1
 355 1479 l 1,3,-1
 355 0 l 1,0,-1
766 181 m 2,4,-1
 766 1496 l 1,5,-1
 943 1496 l 1,6,-1
 943 241 l 2,7,8
 943 236 943 236 943 231 c 0,9,10
 943 9 943 9 901 -70 c 0,11,12
 858 -150 858 -150 777.5 -182 c 128,-1,13
 697 -214 697 -214 556 -214 c 2,14,-1
 521 -214 l 1,15,-1
 500 -72 l 1,16,-1
 574 -72 l 2,17,18
 720 -72 720 -72 750 29 c 0,19,20
 766 82 766 82 766 181 c 2,4,-1
EndSplineSet
EndChar

StartChar: ij
Encoding: 307 307 238
Width: 911
GlyphClass: 2
Flags: HW
LayerCount: 2
Fore
SplineSet
327 1496 m 1,0,-1
 327 1298 l 1,1,-1
 159 1298 l 1,2,-1
 159 1496 l 1,3,-1
 327 1496 l 1,0,-1
327 1097 m 1,4,-1
 327 0 l 1,5,-1
 159 0 l 1,6,-1
 159 1097 l 1,7,-1
 327 1097 l 1,4,-1
796 1496 m 1,8,-1
 796 1298 l 1,9,-1
 628 1298 l 1,10,-1
 628 1496 l 1,11,-1
 796 1496 l 1,8,-1
796 1097 m 1,12,-1
 796 -139 l 2,13,14
 796 -245 796 -245 782.5 -310 c 128,-1,15
 769 -375 769 -375 731.5 -420.5 c 128,-1,16
 694 -466 694 -466 630 -484 c 128,-1,17
 566 -502 566 -502 463 -502 c 2,18,-1
 411 -502 l 1,19,-1
 389 -351 l 1,20,-1
 441 -351 l 2,21,22
 559 -351 559 -351 588.5 -315 c 128,-1,23
 618 -279 618 -279 623 -235.5 c 128,-1,24
 628 -192 628 -192 628 -121 c 2,25,-1
 628 1097 l 1,26,-1
 796 1097 l 1,12,-1
EndSplineSet
EndChar

StartChar: kgreenlandic
Encoding: 312 312 243
Width: 1104
GlyphClass: 2
Flags: HW
LayerCount: 2
Fore
SplineSet
823 0 m 1,0,-1
 293 506 l 1,1,-1
 293 0 l 1,2,-1
 147 0 l 1,3,-1
 147 1105 l 1,4,-1
 293 1105 l 1,5,-1
 293 600 l 1,6,-1
 776 1105 l 1,7,-1
 981 1105 l 1,8,-1
 458 551 l 1,9,10
 807 227 807 227 1014 0 c 1,11,-1
 823 0 l 1,0,-1
EndSplineSet
EndChar

StartChar: Lslash
Encoding: 321 321 249
Width: 960
GlyphClass: 2
Flags: HW
LayerCount: 2
Fore
SplineSet
0 527 m 1,0,-1
 0 675 l 1,1,-1
 148 756 l 1,2,-1
 148 1496 l 1,3,-1
 325 1496 l 1,4,-1
 325 853 l 1,5,-1
 675 1045 l 1,6,-1
 675 889 l 1,7,-1
 325 701 l 1,8,-1
 325 155 l 1,9,-1
 982 155 l 1,10,-1
 970 0 l 1,11,-1
 148 0 l 1,12,-1
 148 606 l 1,13,-1
 0 527 l 1,0,-1
EndSplineSet
EndChar

StartChar: lslash
Encoding: 322 322 250
Width: 589
GlyphClass: 2
Flags: HW
LayerCount: 2
Fore
SplineSet
487 985 m 1,0,-1
 487 839 l 1,1,-1
 311 703 l 1,2,-1
 311 431 l 2,3,4
 312 268 312 268 318 238 c 0,5,6
 333 170 333 170 345.5 157 c 128,-1,7
 358 144 358 144 378.5 131 c 128,-1,8
 399 118 399 118 436.5 118 c 128,-1,9
 474 118 474 118 596 128 c 1,10,-1
 611 -8 l 1,11,12
 481 -21 481 -21 431.5 -21 c 128,-1,13
 382 -21 382 -21 343.5 -15.5 c 128,-1,14
 305 -10 305 -10 275 5 c 0,15,16
 212 36 212 36 188 88 c 0,17,18
 160 146 160 146 151.5 235 c 128,-1,19
 143 324 143 324 143 468 c 2,20,-1
 143 573 l 1,21,-1
 31 486 l 1,22,-1
 31 631 l 1,23,-1
 143 718 l 1,24,-1
 143 1490 l 1,25,-1
 311 1510 l 1,26,-1
 311 848 l 1,27,-1
 487 985 l 1,0,-1
EndSplineSet
EndChar

StartChar: OE
Encoding: 338 338 263
Width: 1980
GlyphClass: 2
Flags: HW
LayerCount: 2
Fore
SplineSet
1148 1259 m 1,0,1
 1009 1373 1009 1373 815 1373 c 0,2,3
 577 1373 577 1373 437 1206.5 c 128,-1,4
 297 1040 297 1040 291 773 c 1,5,6
 291 284 291 284 619 164 c 0,7,8
 716 129 716 129 815 129 c 0,9,10
 908 129 908 129 1004 160 c 0,11,12
 1098 192 1098 192 1148 222 c 1,13,-1
 1148 1259 l 1,0,1
444 1427 m 128,-1,15
 602 1524 602 1524 812 1524 c 128,-1,16
 1022 1524 1022 1524 1148 1413 c 1,17,-1
 1148 1495 l 1,18,-1
 1874 1495 l 1,19,-1
 1857 1341 l 1,20,-1
 1325 1341 l 1,21,-1
 1325 845 l 1,22,-1
 1821 845 l 1,23,-1
 1821 692 l 1,24,-1
 1325 692 l 1,25,-1
 1325 156 l 1,26,-1
 1898 156 l 1,27,-1
 1883 0 l 1,28,-1
 1148 0 l 1,29,-1
 1148 82 l 1,30,31
 1114 46 1114 46 1011 11.5 c 128,-1,32
 908 -23 908 -23 823 -23 c 0,33,34
 590 -23 590 -23 426 78 c 0,35,36
 101 278 101 278 101 771 c 1,37,38
 106 987 106 987 196 1158.5 c 128,-1,14
 286 1330 286 1330 444 1427 c 128,-1,15
EndSplineSet
EndChar

StartChar: oe
Encoding: 339 339 264
Width: 1916
GlyphClass: 2
Flags: HW
LayerCount: 2
Fore
SplineSet
1000 211 m 1,0,1
 865 -25 865 -25 577 -25 c 0,2,3
 426 -25 426 -25 310 53 c 0,4,5
 82 206 82 206 82 547 c 0,6,7
 82 789 82 789 211 953 c 0,8,9
 273 1032 273 1032 371 1078 c 128,-1,10
 469 1124 469 1124 590 1124 c 0,11,12
 878 1124 878 1124 1005 889 c 1,13,14
 1066 995 1066 995 1175 1057.5 c 128,-1,15
 1284 1120 1284 1120 1414 1124 c 1,16,17
 1616 1124 1616 1124 1725 982.5 c 128,-1,18
 1834 841 1834 841 1834 594 c 1,19,-1
 1832 519 l 1,20,-1
 1093 519 l 1,21,22
 1093 337 1093 337 1188 228 c 128,-1,23
 1283 119 1283 119 1430 119 c 0,24,25
 1535 119 1535 119 1613.5 149 c 128,-1,26
 1692 179 1692 179 1766 229 c 1,27,-1
 1818 107 l 1,28,29
 1664 -25 1664 -25 1425 -25 c 0,30,31
 1281 -25 1281 -25 1172 36 c 128,-1,32
 1063 97 1063 97 1000 211 c 1,0,1
255 574 m 0,33,34
 255 246 255 246 437 148 c 0,35,36
 503 112 503 112 589.5 112.5 c 128,-1,37
 676 113 676 113 742 148.5 c 128,-1,38
 808 184 808 184 845 246 c 1,39,40
 921 369 921 369 921 550.5 c 128,-1,41
 921 732 921 732 843.5 859 c 128,-1,42
 766 986 766 986 578.5 986 c 128,-1,43
 391 986 391 986 304 796 c 0,44,45
 255 690 255 690 255 574 c 0,33,34
1099 634 m 1,46,-1
 1672 634 l 1,47,-1
 1672 647 l 1,48,49
 1669 813 1669 813 1597.5 900.5 c 128,-1,50
 1526 988 1526 988 1402.5 988 c 128,-1,51
 1279 988 1279 988 1196 892 c 128,-1,52
 1113 796 1113 796 1099 634 c 1,46,-1
EndSplineSet
EndChar

StartChar: uni01C4
Encoding: 452 452 301
Width: 2686
GlyphClass: 2
Flags: HW
LayerCount: 2
Fore
SplineSet
1185 190 m 128,-1,1
 980 0 980 0 613 0 c 2,2,-1
 174 0 l 1,3,-1
 174 1479 l 1,4,-1
 584 1479 l 2,5,6
 586 1479 586 1479 588 1479 c 0,7,8
 955 1479 955 1479 1172 1301 c 0,9,10
 1390 1122 1390 1122 1390 751 c 128,-1,0
 1390 380 1390 380 1185 190 c 128,-1,1
1052.5 298.5 m 128,-1,12
 1205 446 1205 446 1205 746 c 128,-1,13
 1205 1046 1205 1046 1045 1187 c 128,-1,14
 885 1328 885 1328 579 1328 c 2,15,-1
 347 1328 l 1,16,-1
 347 151 l 1,17,-1
 608 151 l 2,18,11
 900 151 900 151 1052.5 298.5 c 128,-1,12
1832 2035 m 1,19,-1
 1963 2035 l 1,20,-1
 2124 1723 l 1,21,-1
 2285 2035 l 1,22,-1
 2419 2035 l 1,23,-1
 2232 1647 l 1,24,-1
 2019 1647 l 1,25,-1
 1832 2035 l 1,19,-1
1588 0 m 1,26,-1
 1588 136 l 1,27,-1
 2392 1325 l 1,28,-1
 1617 1325 l 1,29,-1
 1617 1479 l 1,30,-1
 2613 1479 l 1,31,-1
 2613 1350 l 1,32,-1
 1804 154 l 1,33,-1
 2620 154 l 1,34,-1
 2614 0 l 1,35,-1
 1588 0 l 1,26,-1
EndSplineSet
EndChar

StartChar: uni01C5
Encoding: 453 453 302
Width: 2414
GlyphClass: 2
Flags: HW
LayerCount: 2
Fore
SplineSet
1185 190 m 128,-1,1
 980 0 980 0 613 0 c 2,2,-1
 174 0 l 1,3,-1
 174 1479 l 1,4,-1
 584 1479 l 2,5,6
 586 1479 586 1479 588 1479 c 0,7,8
 955 1479 955 1479 1172 1301 c 0,9,10
 1390 1122 1390 1122 1390 751 c 128,-1,0
 1390 380 1390 380 1185 190 c 128,-1,1
1052.5 298.5 m 128,-1,12
 1205 446 1205 446 1205 746 c 128,-1,13
 1205 1046 1205 1046 1045 1187 c 128,-1,14
 885 1328 885 1328 579 1328 c 2,15,-1
 347 1328 l 1,16,-1
 347 151 l 1,17,-1
 608 151 l 2,18,11
 900 151 900 151 1052.5 298.5 c 128,-1,12
1658 1634 m 1,19,-1
 1789 1634 l 1,20,-1
 1950 1322 l 1,21,-1
 2111 1634 l 1,22,-1
 2245 1634 l 1,23,-1
 2058 1246 l 1,24,-1
 1845 1246 l 1,25,-1
 1658 1634 l 1,19,-1
2351 0 m 1,26,-1
 1585 0 l 1,27,-1
 1585 126 l 1,28,-1
 2146 965 l 1,29,-1
 1600 965 l 1,30,-1
 1600 1097 l 1,31,-1
 2333 1097 l 1,32,-1
 2333 965 l 1,33,-1
 1773 132 l 1,34,-1
 2351 132 l 1,35,-1
 2351 0 l 1,26,-1
EndSplineSet
EndChar

StartChar: uni01C6
Encoding: 454 454 303
Width: 2123
GlyphClass: 2
Flags: HW
LayerCount: 2
Fore
SplineSet
900 159 m 1,0,1
 846 76 846 76 756 27 c 128,-1,2
 666 -22 666 -22 555 -22 c 0,3,4
 338 -22 338 -22 215 132.5 c 128,-1,5
 92 287 92 287 92 547 c 128,-1,6
 92 807 92 807 217 963.5 c 128,-1,7
 342 1120 342 1120 552 1120 c 0,8,9
 661 1120 661 1120 757.5 1072.5 c 128,-1,10
 854 1025 854 1025 902 945 c 1,11,-1
 899 1040 l 1,12,-1
 899 1523 l 1,13,-1
 1064 1533 l 1,14,-1
 1064 0 l 1,15,-1
 922 0 l 1,16,-1
 900 159 l 1,0,1
571 121 m 0,17,18
 897 121 897 121 897 530 c 0,19,20
 897 752 897 752 819.5 864.5 c 128,-1,21
 742 977 742 977 569 977 c 0,22,23
 346 976 346 976 284 716 c 0,24,25
 265 638 265 638 265 527 c 0,26,27
 264 419 264 419 296 327 c 0,28,29
 328 233 328 233 398 177 c 128,-1,30
 468 121 468 121 571 121 c 0,17,18
1367 1634 m 1,31,-1
 1498 1634 l 1,32,-1
 1659 1322 l 1,33,-1
 1820 1634 l 1,34,-1
 1954 1634 l 1,35,-1
 1767 1246 l 1,36,-1
 1554 1246 l 1,37,-1
 1367 1634 l 1,31,-1
2060 0 m 1,38,-1
 1294 0 l 1,39,-1
 1294 126 l 1,40,-1
 1855 965 l 1,41,-1
 1309 965 l 1,42,-1
 1309 1097 l 1,43,-1
 2042 1097 l 1,44,-1
 2042 965 l 1,45,-1
 1482 132 l 1,46,-1
 2060 132 l 1,47,-1
 2060 0 l 1,38,-1
EndSplineSet
EndChar

StartChar: uni01C7
Encoding: 455 455 304
Width: 1571
GlyphClass: 2
Flags: HW
LayerCount: 2
Fore
SplineSet
174 0 m 1,0,-1
 174 1479 l 1,1,-1
 348 1479 l 1,2,-1
 348 154 l 1,3,-1
 999 154 l 1,4,-1
 993 0 l 1,5,-1
 174 0 l 1,0,-1
1247 181 m 2,6,-1
 1247 1496 l 1,7,-1
 1424 1496 l 1,8,-1
 1424 241 l 2,9,10
 1424 10 1424 10 1381 -70 c 128,-1,11
 1338 -150 1338 -150 1258.5 -181.5 c 128,-1,12
 1179 -213 1179 -213 1037 -214 c 1,13,-1
 1002 -214 l 1,14,-1
 981 -72 l 1,15,-1
 1055 -72 l 2,16,17
 1202 -72 1202 -72 1232 29 c 0,18,19
 1247 79 1247 79 1247 170 c 0,20,21
 1247 175 1247 175 1247 181 c 2,6,-1
EndSplineSet
EndChar

StartChar: uni01C8
Encoding: 456 456 305
Width: 1466
GlyphClass: 2
Flags: HW
LayerCount: 2
Fore
SplineSet
174 0 m 1,0,-1
 174 1479 l 1,1,-1
 348 1479 l 1,2,-1
 348 154 l 1,3,-1
 999 154 l 1,4,-1
 993 0 l 1,5,-1
 174 0 l 1,0,-1
1351 1496 m 1,6,-1
 1351 1298 l 1,7,-1
 1183 1298 l 1,8,-1
 1183 1496 l 1,9,-1
 1351 1496 l 1,6,-1
1351 1097 m 1,10,-1
 1351 -139 l 2,11,12
 1351 -245 1351 -245 1337.5 -310 c 128,-1,13
 1324 -375 1324 -375 1286.5 -420.5 c 128,-1,14
 1249 -466 1249 -466 1185 -484 c 128,-1,15
 1121 -502 1121 -502 1018 -502 c 2,16,-1
 966 -502 l 1,17,-1
 944 -351 l 1,18,-1
 996 -351 l 2,19,20
 1114 -351 1114 -351 1143.5 -315 c 128,-1,21
 1173 -279 1173 -279 1178 -235.5 c 128,-1,22
 1183 -192 1183 -192 1183 -121 c 2,23,-1
 1183 1097 l 1,24,-1
 1351 1097 l 1,10,-1
EndSplineSet
EndChar

StartChar: uni01C9
Encoding: 457 457 306
Width: 1014
GlyphClass: 2
Flags: HW
LayerCount: 2
Fore
SplineSet
438 -20 m 0,0,1
 278 -20 278 -20 211.5 66 c 128,-1,2
 145 152 145 152 145 365 c 2,3,-1
 145 1523 l 1,4,-1
 311 1533 l 1,5,-1
 311 431 l 2,6,7
 311 232 311 232 335.5 183 c 128,-1,8
 360 134 360 134 410 124 c 0,9,10
 436 118 436 118 472 118 c 128,-1,11
 508 118 508 118 602 130 c 1,12,-1
 611 -3 l 1,13,14
 508 -20 508 -20 438 -20 c 0,0,1
899 1496 m 1,15,-1
 899 1298 l 1,16,-1
 731 1298 l 1,17,-1
 731 1496 l 1,18,-1
 899 1496 l 1,15,-1
899 1097 m 1,19,-1
 899 -139 l 2,20,21
 899 -245 899 -245 885.5 -310 c 128,-1,22
 872 -375 872 -375 834.5 -420.5 c 128,-1,23
 797 -466 797 -466 733 -484 c 128,-1,24
 669 -502 669 -502 566 -502 c 2,25,-1
 514 -502 l 1,26,-1
 492 -351 l 1,27,-1
 544 -351 l 2,28,29
 662 -351 662 -351 691.5 -315 c 128,-1,30
 721 -279 721 -279 726 -235.5 c 128,-1,31
 731 -192 731 -192 731 -121 c 2,32,-1
 731 1097 l 1,33,-1
 899 1097 l 1,19,-1
EndSplineSet
EndChar

StartChar: uni01CA
Encoding: 458 458 307
Width: 2066
GlyphClass: 2
Flags: HW
LayerCount: 2
Fore
SplineSet
1342 0 m 1,0,-1
 1146 0 l 1,1,-1
 378 1164 l 1,2,-1
 328 1233 l 1,3,4
 336 1023 336 1023 336 858 c 2,5,-1
 336 0 l 1,6,-1
 174 0 l 1,7,-1
 174 1479 l 1,8,-1
 367 1479 l 1,9,-1
 1137 315 l 1,10,-1
 1188 246 l 1,11,12
 1181 565 1181 565 1181 615 c 2,13,-1
 1181 1479 l 1,14,-1
 1342 1479 l 1,15,-1
 1342 0 l 1,0,-1
1742 181 m 2,16,-1
 1742 1496 l 1,17,-1
 1919 1496 l 1,18,-1
 1919 241 l 2,19,20
 1919 236 1919 236 1919 231 c 0,21,22
 1919 9 1919 9 1877 -70 c 0,23,24
 1834 -150 1834 -150 1753.5 -181.5 c 128,-1,25
 1673 -213 1673 -213 1532 -214 c 1,26,-1
 1497 -214 l 1,27,-1
 1476 -72 l 1,28,-1
 1550 -72 l 2,29,30
 1696 -72 1696 -72 1726 29 c 0,31,32
 1742 82 1742 82 1742 181 c 2,16,-1
EndSplineSet
EndChar

StartChar: uni01CB
Encoding: 459 459 308
Width: 1961
GlyphClass: 2
Flags: HW
LayerCount: 2
Fore
SplineSet
1342 0 m 1,0,-1
 1146 0 l 1,1,-1
 378 1164 l 1,2,-1
 328 1233 l 1,3,4
 336 1023 336 1023 336 858 c 2,5,-1
 336 0 l 1,6,-1
 174 0 l 1,7,-1
 174 1479 l 1,8,-1
 367 1479 l 1,9,-1
 1137 315 l 1,10,-1
 1188 246 l 1,11,12
 1181 565 1181 565 1181 615 c 2,13,-1
 1181 1479 l 1,14,-1
 1342 1479 l 1,15,-1
 1342 0 l 1,0,-1
1846 1496 m 1,16,-1
 1846 1298 l 1,17,-1
 1678 1298 l 1,18,-1
 1678 1496 l 1,19,-1
 1846 1496 l 1,16,-1
1846 1097 m 1,20,-1
 1846 -139 l 2,21,22
 1846 -245 1846 -245 1832.5 -310 c 128,-1,23
 1819 -375 1819 -375 1781.5 -420.5 c 128,-1,24
 1744 -466 1744 -466 1680 -484 c 128,-1,25
 1616 -502 1616 -502 1513 -502 c 2,26,-1
 1461 -502 l 1,27,-1
 1439 -351 l 1,28,-1
 1491 -351 l 2,29,30
 1609 -351 1609 -351 1638.5 -315 c 128,-1,31
 1668 -279 1668 -279 1673 -235.5 c 128,-1,32
 1678 -192 1678 -192 1678 -121 c 2,33,-1
 1678 1097 l 1,34,-1
 1846 1097 l 1,20,-1
EndSplineSet
EndChar

StartChar: uni01CC
Encoding: 460 460 309
Width: 1629
GlyphClass: 2
Flags: HW
LayerCount: 2
Fore
SplineSet
143 0 m 1,0,-1
 143 1097 l 1,1,-1
 283 1097 l 1,2,-1
 304 940 l 1,3,4
 369 1021 369 1021 466.5 1070.5 c 128,-1,5
 564 1120 564 1120 677 1120 c 0,6,7
 867 1120 867 1120 958 1013.5 c 128,-1,8
 1049 907 1049 907 1049 686 c 2,9,-1
 1049 0 l 1,10,-1
 882 0 l 1,11,12
 882 660 882 660 881 707 c 0,13,14
 877 847 877 847 824.5 912 c 128,-1,15
 772 977 772 977 646 977 c 128,-1,16
 520 977 520 977 434 915 c 128,-1,17
 348 853 348 853 322 754 c 1,18,19
 312 687 312 687 312 600 c 2,20,-1
 312 0 l 1,21,-1
 143 0 l 1,0,-1
1514 1496 m 1,22,-1
 1514 1298 l 1,23,-1
 1346 1298 l 1,24,-1
 1346 1496 l 1,25,-1
 1514 1496 l 1,22,-1
1514 1097 m 1,26,-1
 1514 -139 l 2,27,28
 1514 -245 1514 -245 1500.5 -310 c 128,-1,29
 1487 -375 1487 -375 1449.5 -420.5 c 128,-1,30
 1412 -466 1412 -466 1348 -484 c 128,-1,31
 1284 -502 1284 -502 1181 -502 c 2,32,-1
 1129 -502 l 1,33,-1
 1107 -351 l 1,34,-1
 1159 -351 l 2,35,36
 1277 -351 1277 -351 1306.5 -315 c 128,-1,37
 1336 -279 1336 -279 1341 -235.5 c 128,-1,38
 1346 -192 1346 -192 1346 -121 c 2,39,-1
 1346 1097 l 1,40,-1
 1514 1097 l 1,26,-1
EndSplineSet
EndChar

StartChar: uni01F2
Encoding: 498 498 310
Width: 2414
GlyphClass: 2
Flags: HW
LayerCount: 2
Fore
SplineSet
1185 190 m 128,-1,1
 980 0 980 0 613 0 c 2,2,-1
 174 0 l 1,3,-1
 174 1479 l 1,4,-1
 584 1479 l 2,5,6
 586 1479 586 1479 588 1479 c 0,7,8
 955 1479 955 1479 1172 1301 c 0,9,10
 1390 1122 1390 1122 1390 751 c 128,-1,0
 1390 380 1390 380 1185 190 c 128,-1,1
1052.5 298.5 m 128,-1,12
 1205 446 1205 446 1205 746 c 128,-1,13
 1205 1046 1205 1046 1045 1187 c 128,-1,14
 885 1328 885 1328 579 1328 c 2,15,-1
 347 1328 l 1,16,-1
 347 151 l 1,17,-1
 608 151 l 2,18,11
 900 151 900 151 1052.5 298.5 c 128,-1,12
2351 0 m 1,19,-1
 1585 0 l 1,20,-1
 1585 126 l 1,21,-1
 2146 965 l 1,22,-1
 1600 965 l 1,23,-1
 1600 1097 l 1,24,-1
 2333 1097 l 1,25,-1
 2333 965 l 1,26,-1
 1773 132 l 1,27,-1
 2351 132 l 1,28,-1
 2351 0 l 1,19,-1
EndSplineSet
EndChar

StartChar: uni01F3
Encoding: 499 499 311
Width: 2123
GlyphClass: 2
Flags: HW
LayerCount: 2
Fore
SplineSet
900 159 m 1,0,1
 846 76 846 76 756 27 c 128,-1,2
 666 -22 666 -22 555 -22 c 0,3,4
 338 -22 338 -22 215 132.5 c 128,-1,5
 92 287 92 287 92 547 c 128,-1,6
 92 807 92 807 217 963.5 c 128,-1,7
 342 1120 342 1120 552 1120 c 0,8,9
 661 1120 661 1120 757.5 1072.5 c 128,-1,10
 854 1025 854 1025 902 945 c 1,11,-1
 899 1040 l 1,12,-1
 899 1523 l 1,13,-1
 1064 1533 l 1,14,-1
 1064 0 l 1,15,-1
 922 0 l 1,16,-1
 900 159 l 1,0,1
571 121 m 0,17,18
 897 121 897 121 897 530 c 0,19,20
 897 752 897 752 819.5 864.5 c 128,-1,21
 742 977 742 977 569 977 c 0,22,23
 346 976 346 976 284 716 c 0,24,25
 265 638 265 638 265 527 c 0,26,27
 264 419 264 419 296 327 c 0,28,29
 328 233 328 233 398 177 c 128,-1,30
 468 121 468 121 571 121 c 0,17,18
2060 0 m 1,31,-1
 1294 0 l 1,32,-1
 1294 126 l 1,33,-1
 1855 965 l 1,34,-1
 1309 965 l 1,35,-1
 1309 1097 l 1,36,-1
 2042 1097 l 1,37,-1
 2042 965 l 1,38,-1
 1482 132 l 1,39,-1
 2060 132 l 1,40,-1
 2060 0 l 1,31,-1
EndSplineSet
EndChar

StartChar: uni0237
Encoding: 567 567 342
Width: 444
GlyphClass: 2
Flags: HW
LayerCount: 2
Fore
SplineSet
330 1098 m 1,0,-1
 330 -139 l 2,1,2
 330 -245 330 -245 316.5 -310 c 128,-1,3
 303 -375 303 -375 265.5 -420.5 c 128,-1,4
 228 -466 228 -466 164 -484 c 128,-1,5
 100 -502 100 -502 -3 -502 c 2,6,-1
 -55 -502 l 1,7,-1
 -77 -351 l 1,8,-1
 -25 -351 l 2,9,10
 93 -351 93 -351 122.5 -315 c 128,-1,11
 152 -279 152 -279 157 -235.5 c 128,-1,12
 162 -192 162 -192 162 -121 c 2,13,-1
 162 1098 l 1,14,-1
 330 1098 l 1,0,-1
EndSplineSet
EndChar

StartChar: circumflex
Encoding: 710 710 343
Width: 800
GlyphClass: 2
Flags: HW
LayerCount: 2
Fore
SplineSet
108 1251 m 1,0,-1
 295 1639 l 1,1,-1
 508 1639 l 1,2,-1
 695 1251 l 1,3,-1
 561 1251 l 1,4,-1
 400 1523 l 1,5,-1
 239 1251 l 1,6,-1
 108 1251 l 1,0,-1
EndSplineSet
EndChar

StartChar: caron
Encoding: 711 711 344
Width: 800
GlyphClass: 2
Flags: HW
LayerCount: 2
Fore
SplineSet
108 1639 m 1,0,-1
 239 1639 l 1,1,-1
 400 1327 l 1,2,-1
 561 1639 l 1,3,-1
 695 1639 l 1,4,-1
 508 1251 l 1,5,-1
 295 1251 l 1,6,-1
 108 1639 l 1,0,-1
EndSplineSet
EndChar

StartChar: breve
Encoding: 728 728 345
Width: 754
GlyphClass: 2
Flags: HW
LayerCount: 2
Fore
SplineSet
554 1367.5 m 128,-1,1
 478 1299 478 1299 377.5 1299 c 128,-1,2
 277 1299 277 1299 202.5 1367 c 128,-1,3
 128 1435 128 1435 128 1557 c 1,4,-1
 244 1557 l 1,5,6
 244 1488 244 1488 281.5 1452 c 128,-1,7
 319 1416 319 1416 377 1416 c 128,-1,8
 435 1416 435 1416 474 1452 c 128,-1,9
 513 1488 513 1488 513 1557 c 1,10,-1
 630 1557 l 1,11,0
 630 1436 630 1436 554 1367.5 c 128,-1,1
EndSplineSet
EndChar

StartChar: ring
Encoding: 730 730 347
Width: 433
GlyphClass: 2
Flags: HW
LayerCount: 2
Fore
SplineSet
51.5 171.5 m 128,-1,1
 -17 231 -17 231 -17 338.5 c 128,-1,2
 -17 446 -17 446 52.5 506 c 128,-1,3
 122 566 122 566 217 566 c 128,-1,4
 312 566 312 566 381 506 c 128,-1,5
 450 446 450 446 450 339.5 c 128,-1,6
 450 233 450 233 380 172.5 c 128,-1,7
 310 112 310 112 215 112 c 128,-1,0
 120 112 120 112 51.5 171.5 c 128,-1,1
217 197 m 128,-1,9
 282 197 282 197 318 239 c 128,-1,10
 354 281 354 281 354 339 c 128,-1,11
 354 397 354 397 318 439 c 128,-1,12
 282 481 282 481 217.5 481 c 128,-1,13
 153 481 153 481 116.5 438.5 c 128,-1,14
 80 396 80 396 80 338.5 c 128,-1,15
 80 281 80 281 116 239 c 128,-1,8
 152 197 152 197 217 197 c 128,-1,9
EndSplineSet
EndChar

StartChar: ogonek
Encoding: 731 731 348
Width: 590
GlyphClass: 2
Flags: HW
LayerCount: 2
Fore
SplineSet
270.5 -277.5 m 128,-1,1
 298 -303 298 -303 343 -303 c 128,-1,2
 388 -303 388 -303 468 -270 c 1,3,-1
 468 -387 l 1,4,5
 392 -419 392 -419 309.5 -419 c 128,-1,6
 227 -419 227 -419 172.5 -372.5 c 128,-1,7
 118 -326 118 -326 118 -243 c 0,8,9
 118 -106 118 -106 309 5 c 1,10,-1
 423 5 l 1,11,12
 243 -128 243 -128 243 -214 c 0,13,0
 243 -252 243 -252 270.5 -277.5 c 128,-1,1
EndSplineSet
EndChar

StartChar: tilde
Encoding: 732 732 349
Width: 433
GlyphClass: 2
Flags: HW
LayerCount: 2
Fore
SplineSet
368 125 m 128,-1,1
 312 125 312 125 250.5 154.5 c 128,-1,2
 189 184 189 184 138 213 c 128,-1,3
 87 242 87 242 52 242 c 128,-1,4
 17 242 17 242 -16 208 c 128,-1,5
 -49 174 -49 174 -71 122 c 1,6,-1
 -123 227 l 1,7,8
 -95 299 -95 299 -44 342 c 0,9,10
 8 386 8 386 64 386 c 0,11,-1
 64 386 l 0,12,13
 120 386 120 386 224 322 c 128,-1,14
 328 258 328 258 362 258 c 128,-1,15
 396 258 396 258 430.5 293.5 c 128,-1,16
 465 329 465 329 488 384 c 1,17,-1
 556 273 l 1,18,19
 529 209 529 209 476.5 167 c 128,-1,0
 424 125 424 125 368 125 c 128,-1,1
EndSplineSet
EndChar

StartChar: hungarumlaut
Encoding: 733 733 350
Width: 817
GlyphClass: 2
Flags: HW
LayerCount: 2
Fore
SplineSet
713 1594 m 1,0,-1
 463 1259 l 1,1,-1
 361 1259 l 1,2,-1
 563 1594 l 1,3,-1
 713 1594 l 1,0,-1
479 1594 m 1,4,-1
 227 1259 l 1,5,-1
 128 1259 l 1,6,-1
 326 1594 l 1,7,-1
 479 1594 l 1,4,-1
EndSplineSet
EndChar

StartChar: uni030F
Encoding: 783 783 351
Width: 855
GlyphClass: 2
Flags: HW
LayerCount: 2
Fore
SplineSet
627 1259 m 1,0,-1
 380 1594 l 1,1,-1
 531 1594 l 1,2,-1
 729 1259 l 1,3,-1
 627 1259 l 1,0,-1
359 1259 m 1,4,-1
 109 1594 l 1,5,-1
 259 1594 l 1,6,-1
 461 1259 l 1,7,-1
 359 1259 l 1,4,-1
EndSplineSet
EndChar

StartChar: uni0311
Encoding: 785 785 352
Width: 767
GlyphClass: 2
Flags: HW
LayerCount: 2
Fore
SplineSet
208.5 1489 m 128,-1,1
 283 1557 283 1557 383.5 1557 c 128,-1,2
 484 1557 484 1557 560 1488.5 c 128,-1,3
 636 1420 636 1420 636 1299 c 1,4,-1
 519 1299 l 1,5,6
 519 1368 519 1368 480 1404 c 128,-1,7
 441 1440 441 1440 383 1440 c 128,-1,8
 325 1440 325 1440 287.5 1404 c 128,-1,9
 250 1368 250 1368 250 1299 c 1,10,-1
 134 1299 l 1,11,0
 134 1421 134 1421 208.5 1489 c 128,-1,1
EndSplineSet
EndChar

StartChar: uni0326
Encoding: 806 806 353
Width: 555
GlyphClass: 2
Flags: HW
LayerCount: 2
Fore
SplineSet
144 -672 m 1,0,-1
 238 -174 l 1,1,-1
 404 -174 l 1,2,-1
 261 -672 l 1,3,-1
 144 -672 l 1,0,-1
EndSplineSet
EndChar

StartChar: endash
Encoding: 8211 8211 362
Width: 1317
GlyphClass: 2
Flags: HW
LayerCount: 2
Fore
SplineSet
1186 675 m 1,0,-1
 1186 527 l 1,1,-1
 139 527 l 1,2,-1
 139 675 l 1,3,-1
 1186 675 l 1,0,-1
EndSplineSet
EndChar

StartChar: emdash
Encoding: 8212 8212 363
Width: 2427
GlyphClass: 2
Flags: HW
LayerCount: 2
Fore
SplineSet
2296 675 m 1,0,-1
 2296 527 l 1,1,-1
 139 527 l 1,2,-1
 139 675 l 1,3,-1
 2296 675 l 1,0,-1
EndSplineSet
EndChar

StartChar: quoteleft
Encoding: 8216 8216 364
Width: 510
GlyphClass: 2
Flags: HW
LayerCount: 2
Fore
SplineSet
129 1102 m 1,0,-1
 265 1574 l 1,1,-1
 382 1574 l 1,2,-1
 291 1102 l 1,3,-1
 129 1102 l 1,0,-1
EndSplineSet
EndChar

StartChar: quoteright
Encoding: 8217 8217 365
Width: 504
GlyphClass: 2
Flags: HW
LayerCount: 2
Fore
SplineSet
249 1102 m 1,0,-1
 133 1102 l 1,1,-1
 226 1574 l 1,2,-1
 383 1574 l 1,3,-1
 249 1102 l 1,0,-1
EndSplineSet
EndChar

StartChar: quotesinglbase
Encoding: 8218 8218 366
Width: 504
GlyphClass: 2
Flags: HW
LayerCount: 2
Fore
SplineSet
126 -256 m 1,0,-1
 218 216 l 1,1,-1
 379 216 l 1,2,-1
 245 -256 l 1,3,-1
 126 -256 l 1,0,-1
EndSplineSet
EndChar

StartChar: quotedblleft
Encoding: 8220 8220 367
Width: 818
GlyphClass: 2
Flags: HW
LayerCount: 2
Fore
SplineSet
129 1102 m 1,0,-1
 263 1574 l 1,1,-1
 383 1574 l 1,2,-1
 289 1102 l 1,3,-1
 129 1102 l 1,0,-1
438 1102 m 1,4,-1
 573 1574 l 1,5,-1
 690 1574 l 1,6,-1
 600 1102 l 1,7,-1
 438 1102 l 1,4,-1
EndSplineSet
EndChar

StartChar: quotedblright
Encoding: 8221 8221 368
Width: 795
GlyphClass: 2
Flags: HW
LayerCount: 2
Fore
SplineSet
420 1102 m 1,0,-1
 511 1574 l 1,1,-1
 674 1574 l 1,2,-1
 537 1102 l 1,3,-1
 420 1102 l 1,0,-1
133 1102 m 1,4,-1
 226 1574 l 1,5,-1
 385 1574 l 1,6,-1
 250 1102 l 1,7,-1
 133 1102 l 1,4,-1
EndSplineSet
EndChar

StartChar: quotedblbase
Encoding: 8222 8222 369
Width: 819
GlyphClass: 2
Flags: HW
LayerCount: 2
Fore
SplineSet
441 -256 m 1,0,-1
 532 216 l 1,1,-1
 694 216 l 1,2,-1
 559 -256 l 1,3,-1
 441 -256 l 1,0,-1
126 -256 m 1,4,-1
 216 216 l 1,5,-1
 377 216 l 1,6,-1
 244 -256 l 1,7,-1
 126 -256 l 1,4,-1
EndSplineSet
EndChar

StartChar: daggerdbl
Encoding: 8225 8225 370
Width: 950
GlyphClass: 2
Flags: HW
LayerCount: 2
Fore
SplineSet
413 110 m 1,0,-1
 413 467 l 1,1,-1
 107 467 l 1,2,-1
 107 604 l 1,3,-1
 413 604 l 1,4,-1
 413 1059 l 1,5,-1
 112 1059 l 1,6,-1
 112 1199 l 1,7,-1
 413 1199 l 1,8,-1
 413 1550 l 1,9,-1
 543 1550 l 1,10,-1
 543 1199 l 1,11,-1
 850 1199 l 1,12,-1
 850 1059 l 1,13,-1
 543 1059 l 1,14,-1
 543 604 l 1,15,-1
 843 604 l 1,16,-1
 843 467 l 1,17,-1
 543 467 l 1,18,-1
 543 110 l 1,19,-1
 413 110 l 1,0,-1
EndSplineSet
EndChar

StartChar: bullet
Encoding: 8226 8226 371
Width: 867
GlyphClass: 2
Flags: HW
LayerCount: 2
Fore
SplineSet
644 987.5 m 128,-1,1
 731 889 731 889 731 752 c 128,-1,2
 731 615 731 615 642 515 c 128,-1,3
 553 415 553 415 431 415 c 128,-1,4
 309 415 309 415 223 513 c 128,-1,5
 137 611 137 611 137 747.5 c 128,-1,6
 137 884 137 884 227 985 c 128,-1,7
 317 1086 317 1086 437 1086 c 128,-1,0
 557 1086 557 1086 644 987.5 c 128,-1,1
EndSplineSet
EndChar

StartChar: guilsinglleft
Encoding: 8249 8249 372
Width: 620
GlyphClass: 2
Flags: HW
LayerCount: 2
Fore
SplineSet
361 982 m 1,0,-1
 501 982 l 1,1,-1
 269 583 l 1,2,-1
 495 182 l 1,3,-1
 356 182 l 1,4,-1
 120 583 l 1,5,-1
 361 982 l 1,0,-1
EndSplineSet
EndChar

StartChar: guilsinglright
Encoding: 8250 8250 373
Width: 617
GlyphClass: 2
Flags: HW
LayerCount: 2
Fore
SplineSet
505 585 m 1,0,-1
 264 182 l 1,1,-1
 124 182 l 1,2,-1
 355 585 l 1,3,-1
 130 982 l 1,4,-1
 269 982 l 1,5,-1
 505 585 l 1,0,-1
EndSplineSet
EndChar

StartChar: fraction
Encoding: 8260 8260 374
Width: 1135
GlyphClass: 2
Flags: HW
LayerCount: 2
Fore
SplineSet
936 1547 m 1,0,-1
 1066 1547 l 1,1,-1
 191 0 l 1,2,-1
 60 0 l 1,3,-1
 936 1547 l 1,0,-1
EndSplineSet
EndChar

StartChar: uni2074
Encoding: 8308 8308 375
Width: 756
GlyphClass: 2
Flags: HW
LayerCount: 2
Fore
SplineSet
530 661 m 1,0,-1
 423 661 l 1,1,-1
 423 865 l 1,2,-1
 92 865 l 1,3,-1
 92 964 l 1,4,-1
 413 1519 l 1,5,-1
 532 1519 l 1,6,-1
 532 978 l 1,7,-1
 626 978 l 1,8,-1
 636 865 l 1,9,-1
 530 865 l 1,10,-1
 530 661 l 1,0,-1
213 978 m 1,11,-1
 422 978 l 1,12,13
 422 1311 422 1311 423 1339 c 1,14,-1
 213 978 l 1,11,-1
EndSplineSet
EndChar

StartChar: Euro
Encoding: 8364 8364 376
Width: 1210
GlyphClass: 2
Flags: HW
LayerCount: 2
Fore
SplineSet
407 845 m 1,0,1
 403 803 403 803 403 743 c 128,-1,2
 403 683 403 683 402 683 c 2,3,-1
 951 683 l 1,4,-1
 941 580 l 1,5,-1
 419 580 l 1,6,7
 441 396 441 396 531 270 c 1,8,9
 675 152 675 152 788 135 c 1,10,11
 948 135 948 135 1088 244 c 1,12,-1
 1087 69 l 1,13,14
 962 -22 962 -22 781 -22 c 0,15,16
 496 -22 496 -22 340 242 c 0,17,18
 253 389 253 389 227 580 c 1,19,-1
 106 580 l 1,20,-1
 123 683 l 1,21,-1
 215 683 l 1,22,23
 213 715 213 715 213 733.5 c 128,-1,24
 213 752 213 752 218 845 c 1,25,-1
 105 845 l 1,26,-1
 124 957 l 1,27,-1
 234 957 l 1,28,29
 272 1210 272 1210 412.5 1367 c 128,-1,30
 553 1524 553 1524 796 1524 c 0,31,32
 977 1524 977 1524 1088 1429 c 1,33,-1
 1087 1249 l 1,34,35
 977 1369 977 1369 815 1369 c 128,-1,36
 653 1369 653 1369 555 1259.5 c 128,-1,37
 457 1150 457 1150 425 957 c 1,38,-1
 983 957 l 1,39,-1
 966 845 l 1,40,-1
 407 845 l 1,0,1
EndSplineSet
EndChar

StartChar: trademark
Encoding: 8482 8482 377
Width: 1812
GlyphClass: 2
Flags: HW
LayerCount: 2
Fore
SplineSet
90 1496 m 1,0,-1
 727 1496 l 1,1,-1
 727 1394 l 1,2,-1
 463 1394 l 1,3,-1
 463 609 l 1,4,-1
 349 609 l 1,5,-1
 349 1394 l 1,6,-1
 90 1394 l 1,7,-1
 90 1496 l 1,0,-1
849 1496 m 1,8,-1
 1006 1496 l 1,9,-1
 1274 824 l 1,10,-1
 1555 1496 l 1,11,-1
 1704 1496 l 1,12,-1
 1704 609 l 1,13,-1
 1590 609 l 1,14,-1
 1590 1349 l 1,15,-1
 1310 680 l 1,16,-1
 1224 680 l 1,17,-1
 960 1349 l 1,18,-1
 960 609 l 1,19,-1
 849 609 l 1,20,-1
 849 1496 l 1,8,-1
EndSplineSet
EndChar

StartChar: product
Encoding: 8719 8719 378
Width: 1463
GlyphClass: 2
Flags: HW
LayerCount: 2
Fore
SplineSet
1139 1342 m 1,0,-1
 324 1342 l 1,1,-1
 324 0 l 1,2,-1
 147 0 l 1,3,-1
 147 1496 l 1,4,-1
 1316 1496 l 1,5,-1
 1316 0 l 1,6,-1
 1139 0 l 1,7,-1
 1139 1342 l 1,0,-1
EndSplineSet
EndChar

StartChar: integral
Encoding: 8747 8747 379
Width: 698
GlyphClass: 2
Flags: HW
LayerCount: 2
Fore
SplineSet
277 -50 m 2,0,-1
 277 1351 l 2,1,2
 277 1756 277 1756 540 1756 c 0,3,4
 582 1756 582 1756 661 1733 c 1,5,-1
 662 1594 l 1,6,7
 629 1610 629 1610 555 1610 c 128,-1,8
 481 1610 481 1610 451 1555.5 c 128,-1,9
 421 1501 421 1501 421 1379 c 2,10,-1
 421 -25 l 1,11,12
 420 -321 420 -321 286 -399 c 0,13,14
 234 -429 234 -429 171.5 -429 c 128,-1,15
 109 -429 109 -429 41 -409 c 1,16,-1
 40 -270 l 1,17,18
 69 -284 69 -284 143.5 -284 c 128,-1,19
 218 -284 218 -284 247.5 -228.5 c 128,-1,20
 277 -173 277 -173 277 -50 c 2,0,-1
EndSplineSet
EndChar

StartChar: uniFB01
Encoding: 64257 64257 380
Width: 1088
GlyphClass: 3
Flags: HW
LayerCount: 2
Fore
SplineSet
788 1496 m 1,0,-1
 956 1496 l 1,1,-1
 956 1298 l 1,2,-1
 788 1298 l 1,3,-1
 788 1496 l 1,0,-1
181 0 m 1,4,-1
 181 980 l 1,5,-1
 20 980 l 1,6,-1
 20 1098 l 1,7,-1
 181 1098 l 1,8,-1
 181 1138 l 1,9,10
 184 1259 184 1259 202.5 1334.5 c 128,-1,11
 221 1410 221 1410 265 1456 c 128,-1,12
 309 1502 309 1502 373 1519 c 128,-1,13
 437 1536 437 1536 539 1536 c 2,14,-1
 612 1536 l 1,15,-1
 632 1408 l 1,16,-1
 538 1408 l 2,17,18
 426 1408 426 1408 395 1369 c 128,-1,19
 364 1330 364 1330 356.5 1277.5 c 128,-1,20
 349 1225 349 1225 349 1136 c 2,21,-1
 349 1098 l 1,22,-1
 956 1098 l 1,23,-1
 956 0 l 1,24,-1
 788 0 l 1,25,-1
 788 980 l 1,26,-1
 349 980 l 1,27,-1
 349 0 l 1,28,-1
 181 0 l 1,4,-1
EndSplineSet
Ligature2: "'liga' Standard Ligatures lookup 0 subtable" f i
EndChar

StartChar: uniFB02
Encoding: 64258 64258 381
Width: 1237
GlyphClass: 3
Flags: HW
LayerCount: 2
Fore
SplineSet
350 1135 m 2,0,-1
 349 1098 l 1,1,-1
 598 1098 l 1,2,-1
 598 980 l 1,3,-1
 349 980 l 1,4,-1
 349 0 l 1,5,-1
 181 0 l 1,6,-1
 181 980 l 1,7,-1
 20 980 l 1,8,-1
 20 1098 l 1,9,-1
 181 1098 l 1,10,-1
 181 1128 l 1,11,12
 187 1348 187 1348 280.5 1430 c 128,-1,13
 374 1512 374 1512 550 1512 c 0,14,15
 590 1512 590 1512 976 1490 c 1,16,-1
 976 450 l 2,17,18
 976 251 976 251 1000 189.5 c 128,-1,19
 1024 128 1024 128 1134 128 c 0,20,21
 1155 128 1155 128 1207 132 c 1,22,-1
 1218 1 l 1,23,24
 1103 -12 1103 -12 1078 -12 c 128,-1,25
 1053 -12 1053 -12 1020 -8.5 c 128,-1,26
 987 -5 987 -5 960 5 c 128,-1,27
 933 15 933 15 912.5 26.5 c 128,-1,28
 892 38 892 38 876 59.5 c 128,-1,29
 860 81 860 81 849 101 c 0,30,31
 838 120 838 120 830 154 c 0,32,33
 815 223 815 223 811.5 292.5 c 128,-1,34
 808 362 808 362 808 487 c 2,35,-1
 808 1376 l 1,36,37
 705 1383 705 1383 575 1383 c 128,-1,38
 445 1383 445 1383 399.5 1329 c 128,-1,39
 354 1275 354 1275 350 1135 c 2,0,-1
EndSplineSet
Ligature2: "'liga' Standard Ligatures lookup 0 subtable" f l
EndChar

StartChar: uniFB00
Encoding: 64256 64256 382
Width: 1321
GlyphClass: 3
Flags: HW
LayerCount: 2
Fore
SplineSet
1212 1416 m 0,0,1
 1108 1416 1108 1416 1069.5 1356 c 128,-1,2
 1031 1296 1031 1296 1031 1148 c 2,3,-1
 1031 1097 l 1,4,-1
 1295 1097 l 1,5,-1
 1295 973 l 1,6,-1
 1031 973 l 1,7,-1
 1031 0 l 1,8,-1
 864 0 l 1,9,-1
 864 973 l 1,10,-1
 379 973 l 1,11,-1
 379 0 l 1,12,-1
 212 0 l 1,13,-1
 212 973 l 1,14,-1
 34 973 l 1,15,-1
 48 1083 l 1,16,-1
 212 1097 l 1,17,-1
 212 1146 l 1,18,19
 214 1358 214 1358 291.5 1453.5 c 128,-1,20
 369 1549 369 1549 542 1549 c 0,21,22
 609 1549 609 1549 706 1534 c 1,23,-1
 695 1403 l 1,24,25
 606 1416 606 1416 560 1416 c 0,26,27
 456 1416 456 1416 417.5 1356 c 128,-1,28
 379 1296 379 1296 379 1148 c 2,29,-1
 379 1097 l 1,30,-1
 864 1097 l 1,31,-1
 864 1146 l 1,32,33
 866 1358 866 1358 943.5 1453.5 c 128,-1,34
 1021 1549 1021 1549 1194 1549 c 0,35,36
 1261 1549 1261 1549 1358 1534 c 1,37,-1
 1347 1403 l 1,38,39
 1258 1416 1258 1416 1212 1416 c 0,0,1
EndSplineSet
Ligature2: "'liga' Standard Ligatures lookup 0 subtable" f f
EndChar

StartChar: Dcroat
Encoding: 272 272 383
Width: 1522
GlyphClass: 2
Flags: HW
LayerCount: 2
Fore
SplineSet
29 697 m 1,0,-1
 29 832 l 1,1,-1
 147 832 l 1,2,-1
 147 1496 l 1,3,-1
 519 1496 l 2,4,5
 1030 1496 1030 1496 1247 1254 c 0,6,7
 1412 1071 1412 1071 1412 720.5 c 128,-1,8
 1412 370 1412 370 1196.5 185 c 128,-1,9
 981 0 981 0 621 0 c 2,10,-1
 147 0 l 1,11,-1
 147 697 l 1,12,-1
 29 697 l 1,0,-1
324 697 m 1,13,-1
 324 155 l 1,14,-1
 639 155 l 2,15,16
 918 155 918 155 1070.5 301.5 c 128,-1,17
 1223 448 1223 448 1223 734 c 0,18,19
 1223 1132 1223 1132 957 1263 c 0,20,21
 799 1341 799 1341 540 1341 c 2,22,-1
 324 1341 l 1,23,-1
 324 832 l 1,24,-1
 566 832 l 1,25,-1
 566 697 l 1,26,-1
 324 697 l 1,13,-1
EndSplineSet
EndChar

StartChar: Lcaron
Encoding: 317 317 384
Width: 1021
GlyphClass: 2
Flags: HW
LayerCount: 2
Fore
SplineSet
174 0 m 1,0,-1
 174 1479 l 1,1,-1
 348 1479 l 1,2,-1
 348 154 l 1,3,-1
 999 154 l 1,4,-1
 993 0 l 1,5,-1
 174 0 l 1,0,-1
709 1053 m 1,6,-1
 802 1525 l 1,7,-1
 959 1525 l 1,8,-1
 825 1053 l 1,9,-1
 709 1053 l 1,6,-1
EndSplineSet
EndChar

StartChar: dcaron
Encoding: 271 271 386
Width: 1211
GlyphClass: 2
Flags: HW
LayerCount: 2
Fore
SplineSet
1217 1061 m 1,0,-1
 1310 1533 l 1,1,-1
 1467 1533 l 1,2,-1
 1333 1061 l 1,3,-1
 1217 1061 l 1,0,-1
900 159 m 1,4,5
 846 76 846 76 756 27 c 128,-1,6
 666 -22 666 -22 555 -22 c 0,7,8
 338 -22 338 -22 215 132.5 c 128,-1,9
 92 287 92 287 92 547 c 128,-1,10
 92 807 92 807 217 963.5 c 128,-1,11
 342 1120 342 1120 552 1120 c 0,12,13
 661 1120 661 1120 757.5 1072.5 c 128,-1,14
 854 1025 854 1025 902 945 c 1,15,-1
 899 1040 l 1,16,-1
 899 1523 l 1,17,-1
 1064 1533 l 1,18,-1
 1064 0 l 1,19,-1
 922 0 l 1,20,-1
 900 159 l 1,4,5
571 121 m 0,21,22
 897 121 897 121 897 530 c 0,23,24
 897 752 897 752 819.5 864.5 c 128,-1,25
 742 977 742 977 569 977 c 0,26,27
 346 976 346 976 284 716 c 0,28,29
 265 638 265 638 265 527 c 0,30,31
 264 419 264 419 296 327 c 0,32,33
 328 233 328 233 398 177 c 128,-1,34
 468 121 468 121 571 121 c 0,21,22
EndSplineSet
EndChar

StartChar: foundryicon
Encoding: 65539 -1 389
Width: 2048
GlyphClass: 2
Flags: HW
LayerCount: 2
Fore
SplineSet
911 1638 m 1,0,-1
 1082 1113 l 1,1,-1
 1634 1113 l 1,2,-1
 1187 788 l 1,3,-1
 1358 263 l 1,4,-1
 911 588 l 1,5,-1
 464 263 l 1,6,-1
 635 788 l 1,7,-1
 188 1113 l 1,8,-1
 741 1113 l 1,9,-1
 911 1638 l 1,0,-1
EndSplineSet
EndChar

StartChar: uni01F1
Encoding: 497 497 392
Width: 2686
GlyphClass: 2
Flags: HW
LayerCount: 2
Fore
SplineSet
1185 190 m 128,-1,1
 980 0 980 0 613 0 c 2,2,-1
 174 0 l 1,3,-1
 174 1479 l 1,4,-1
 584 1479 l 2,5,6
 586 1479 586 1479 588 1479 c 0,7,8
 955 1479 955 1479 1172 1301 c 0,9,10
 1390 1122 1390 1122 1390 751 c 128,-1,0
 1390 380 1390 380 1185 190 c 128,-1,1
1052.5 298.5 m 128,-1,12
 1205 446 1205 446 1205 746 c 128,-1,13
 1205 1046 1205 1046 1045 1187 c 128,-1,14
 885 1328 885 1328 579 1328 c 2,15,-1
 347 1328 l 1,16,-1
 347 151 l 1,17,-1
 608 151 l 2,18,11
 900 151 900 151 1052.5 298.5 c 128,-1,12
1588 0 m 1,19,-1
 1588 136 l 1,20,-1
 2392 1325 l 1,21,-1
 1617 1325 l 1,22,-1
 1617 1479 l 1,23,-1
 2613 1479 l 1,24,-1
 2613 1350 l 1,25,-1
 1804 154 l 1,26,-1
 2620 154 l 1,27,-1
 2614 0 l 1,28,-1
 1588 0 l 1,19,-1
EndSplineSet
EndChar

StartChar: approxequal
Encoding: 8776 8776 395
Width: 1314
GlyphClass: 2
Flags: HW
LayerCount: 2
Fore
SplineSet
896 810 m 0,0,1
 1017 810 1017 810 1077 988 c 1,2,-1
 1176 959 l 1,3,4
 1123 684 1123 684 892 684 c 0,5,6
 779 684 779 684 638.5 772 c 128,-1,7
 498 860 498 860 424 860 c 0,8,9
 286 860 286 860 239 684 c 1,10,-1
 136 712 l 1,11,12
 160 842 160 842 235 915 c 128,-1,13
 310 988 310 988 420.5 988 c 128,-1,14
 531 988 531 988 679 899 c 128,-1,15
 827 810 827 810 896 810 c 0,0,1
1178 558 m 1,16,17
 1124 282 1124 282 902 282 c 0,18,19
 786 282 786 282 642 370.5 c 128,-1,20
 498 459 498 459 427 459 c 0,21,22
 292 459 292 459 239 280 c 1,23,-1
 138 312 l 1,24,25
 163 444 163 444 237 516.5 c 0,26,27
 312 590 312 590 422 590 c 0,28,-1
 423 590 l 0,29,30
 533 590 533 590 720 482 c 0,31,32
 793 439 793 439 810 433.5 c 128,-1,33
 827 428 827 428 850.5 420 c 128,-1,34
 874 412 874 412 898 411 c 1,35,36
 1017 411 1017 411 1080 589 c 1,37,-1
 1178 558 l 1,16,17
EndSplineSet
EndChar

StartChar: dagger
Encoding: 8224 8224 396
Width: 876
GlyphClass: 2
Flags: HW
LayerCount: 2
Fore
SplineSet
369 121 m 1,0,-1
 369 1047 l 1,1,-1
 71 1047 l 1,2,-1
 71 1149 l 1,3,-1
 369 1149 l 1,4,-1
 369 1561 l 1,5,-1
 499 1561 l 1,6,-1
 499 1149 l 1,7,-1
 806 1149 l 1,8,-1
 806 1047 l 1,9,-1
 499 1047 l 1,10,-1
 499 121 l 1,11,-1
 369 121 l 1,0,-1
EndSplineSet
EndChar

StartChar: ellipsis
Encoding: 8230 8230 397
Width: 1482
GlyphClass: 2
Flags: HW
LayerCount: 2
Fore
SplineSet
1347 27 m 128,-1,1
 1312 -12 1312 -12 1249.5 -12 c 128,-1,2
 1187 -12 1187 -12 1151.5 27.5 c 128,-1,3
 1116 67 1116 67 1116 120.5 c 128,-1,4
 1116 174 1116 174 1151 213 c 128,-1,5
 1186 252 1186 252 1249 252 c 128,-1,6
 1312 252 1312 252 1347 213 c 128,-1,7
 1382 174 1382 174 1382 120 c 128,-1,0
 1382 66 1382 66 1347 27 c 128,-1,1
853 27 m 128,-1,9
 818 -12 818 -12 755.5 -12 c 128,-1,10
 693 -12 693 -12 657.5 27.5 c 128,-1,11
 622 67 622 67 622 120.5 c 128,-1,12
 622 174 622 174 657 213 c 128,-1,13
 692 252 692 252 755 252 c 128,-1,14
 818 252 818 252 853 213 c 128,-1,15
 888 174 888 174 888 120 c 128,-1,8
 888 66 888 66 853 27 c 128,-1,9
359 27 m 128,-1,17
 324 -12 324 -12 261.5 -12 c 128,-1,18
 199 -12 199 -12 163.5 27.5 c 128,-1,19
 128 67 128 67 128 120.5 c 128,-1,20
 128 174 128 174 163 213 c 128,-1,21
 198 252 198 252 261 252 c 128,-1,22
 324 252 324 252 359 213 c 128,-1,23
 394 174 394 174 394 120 c 128,-1,16
 394 66 394 66 359 27 c 128,-1,17
EndSplineSet
EndChar

StartChar: florin
Encoding: 402 402 398
Width: 978
GlyphClass: 2
Flags: HW
LayerCount: 2
Fore
SplineSet
257 895 m 1,0,-1
 265 1015 l 1,1,-1
 438 1015 l 1,2,-1
 460 1178 l 1,3,4
 512 1547 512 1547 783 1547 c 0,5,6
 832 1547 832 1547 911 1525 c 1,7,-1
 903 1369 l 1,8,9
 849 1393 849 1393 791 1393 c 128,-1,10
 733 1393 733 1393 700 1353 c 128,-1,11
 667 1313 667 1313 654 1227 c 1,12,-1
 615 1015 l 1,13,-1
 801 1015 l 1,14,-1
 793 895 l 1,15,-1
 596 895 l 1,16,-1
 460 130 l 1,17,18
 412 -122 412 -122 354 -216 c 0,19,20
 267 -358 267 -358 132 -358 c 0,21,22
 90 -358 90 -358 28 -339 c 1,23,-1
 39 -192 l 1,24,25
 83 -210 83 -210 115.5 -210 c 128,-1,26
 148 -210 148 -210 178 -178 c 0,27,28
 228 -126 228 -126 260 20 c 128,-1,29
 292 166 292 166 347 495 c 128,-1,30
 402 824 402 824 415 895 c 1,31,-1
 257 895 l 1,0,-1
EndSplineSet
EndChar

StartChar: greaterequal
Encoding: 8805 8805 399
Width: 1183
GlyphClass: 2
Flags: HW
LayerCount: 2
Fore
SplineSet
150 1164 m 1,0,-1
 150 1314 l 1,1,-1
 1063 806 l 1,2,-1
 1063 719 l 1,3,-1
 146 234 l 1,4,-1
 146 385 l 1,5,-1
 908 762 l 1,6,-1
 150 1164 l 1,0,-1
1080 141 m 1,7,-1
 1080 8 l 1,8,-1
 120 8 l 1,9,-1
 120 141 l 1,10,-1
 1080 141 l 1,7,-1
EndSplineSet
EndChar

StartChar: infinity
Encoding: 8734 8734 400
Width: 1811
GlyphClass: 2
Flags: HW
LayerCount: 2
Fore
SplineSet
1496.5 460.5 m 128,-1,1
 1555 540 1555 540 1555 650 c 128,-1,2
 1555 760 1555 760 1488.5 826.5 c 128,-1,3
 1422 893 1422 893 1324 893 c 128,-1,4
 1226 893 1226 893 1143 823.5 c 128,-1,5
 1060 754 1060 754 982 638 c 1,6,7
 1081 503 1081 503 1158 442 c 128,-1,8
 1235 381 1235 381 1336.5 381 c 128,-1,0
 1438 381 1438 381 1496.5 460.5 c 128,-1,1
313.5 819 m 128,-1,10
 248 745 248 745 248 640.5 c 128,-1,11
 248 536 248 536 318 458.5 c 128,-1,12
 388 381 388 381 495 381 c 0,13,14
 666 381 666 381 838 636 c 1,15,16
 675 893 675 893 487 893 c 0,17,9
 379 893 379 893 313.5 819 c 128,-1,10
1585.5 913.5 m 128,-1,19
 1678 810 1678 810 1678 641 c 128,-1,20
 1678 472 1678 472 1576 363 c 128,-1,21
 1474 254 1474 254 1323 254 c 0,22,23
 1211 254 1211 254 1112 320 c 128,-1,24
 1013 386 1013 386 909 525 c 1,25,26
 810 395 810 395 710 324.5 c 128,-1,27
 610 254 610 254 496 254 c 128,-1,28
 382 254 382 254 300 310 c 0,29,30
 135 421 135 421 135 656 c 0,31,32
 135 808 135 808 237.5 912.5 c 128,-1,33
 340 1017 340 1017 474.5 1017 c 128,-1,34
 609 1017 609 1017 709 947.5 c 128,-1,35
 809 878 809 878 909 745 c 1,36,37
 1004 876 1004 876 1103.5 946.5 c 128,-1,38
 1203 1017 1203 1017 1326 1017 c 0,39,18
 1493 1017 1493 1017 1585.5 913.5 c 128,-1,19
EndSplineSet
EndChar

StartChar: lessequal
Encoding: 8804 8804 401
Width: 1183
GlyphClass: 2
Flags: HW
LayerCount: 2
Fore
SplineSet
1066 141 m 1,0,-1
 1066 8 l 1,1,-1
 101 8 l 1,2,-1
 101 141 l 1,3,-1
 1066 141 l 1,0,-1
1041 383 m 1,4,-1
 1041 232 l 1,5,-1
 131 716 l 1,6,-1
 131 806 l 1,7,-1
 1041 1312 l 1,8,-1
 1041 1162 l 1,9,-1
 285 766 l 1,10,-1
 1041 383 l 1,4,-1
EndSplineSet
EndChar

StartChar: lozenge
Encoding: 9674 9674 402
Width: 1142
GlyphClass: 2
Flags: HW
LayerCount: 2
Fore
SplineSet
630 1583 m 1,0,-1
 1055 768 l 1,1,-1
 621 -48 l 1,2,-1
 512 -48 l 1,3,-1
 87 766 l 1,4,-1
 519 1583 l 1,5,-1
 630 1583 l 1,0,-1
565 106 m 1,6,7
 805 546 805 546 923 766 c 1,8,9
 734 1116 734 1116 577 1424 c 1,10,11
 457 1206 457 1206 219 768 c 1,12,13
 252 705 252 705 374 468.5 c 128,-1,14
 496 232 496 232 565 106 c 1,6,7
EndSplineSet
EndChar

StartChar: notequal
Encoding: 8800 8800 403
Width: 1191
GlyphClass: 2
Flags: HW
LayerCount: 2
Fore
SplineSet
798 1207 m 1,0,-1
 913 1191 l 1,1,-1
 796 915 l 1,2,-1
 1074 915 l 1,3,-1
 1083 783 l 1,4,-1
 737 783 l 1,5,-1
 581 479 l 1,6,-1
 1076 479 l 1,7,-1
 1083 352 l 1,8,-1
 521 352 l 1,9,-1
 376 48 l 1,10,-1
 263 68 l 1,11,-1
 382 352 l 1,12,-1
 121 352 l 1,13,-1
 114 479 l 1,14,-1
 446 479 l 1,15,-1
 598 783 l 1,16,-1
 121 783 l 1,17,-1
 112 915 l 1,18,-1
 657 915 l 1,19,-1
 798 1207 l 1,0,-1
EndSplineSet
EndChar

StartChar: perthousand
Encoding: 8240 8240 404
Width: 2303
GlyphClass: 2
Flags: HW
LayerCount: 2
Fore
SplineSet
2028 538 m 128,-1,1
 1975 610 1975 610 1878.5 610 c 128,-1,2
 1782 610 1782 610 1729.5 537.5 c 128,-1,3
 1677 465 1677 465 1677 351.5 c 128,-1,4
 1677 238 1677 238 1729.5 165.5 c 128,-1,5
 1782 93 1782 93 1879 93 c 128,-1,6
 1976 93 1976 93 2028.5 168 c 128,-1,7
 2081 243 2081 243 2081 354.5 c 128,-1,0
 2081 466 2081 466 2028 538 c 128,-1,1
2121.5 76.5 m 128,-1,9
 2036 -30 2036 -30 1876.5 -30 c 128,-1,10
 1717 -30 1717 -30 1633.5 73 c 128,-1,11
 1550 176 1550 176 1550 350.5 c 128,-1,12
 1550 525 1550 525 1635 630 c 128,-1,13
 1720 735 1720 735 1881.5 735 c 128,-1,14
 2043 735 2043 735 2125 634 c 128,-1,15
 2207 533 2207 533 2207 358 c 128,-1,8
 2207 183 2207 183 2121.5 76.5 c 128,-1,9
622 902.5 m 128,-1,17
 542 796 542 796 403 796 c 128,-1,18
 264 796 264 796 186 900 c 128,-1,19
 108 1004 108 1004 108 1176.5 c 128,-1,20
 108 1349 108 1349 186.5 1454 c 128,-1,21
 265 1559 265 1559 407 1559 c 128,-1,22
 549 1559 549 1559 625.5 1457 c 128,-1,23
 702 1355 702 1355 702 1182 c 128,-1,16
 702 1009 702 1009 622 902.5 c 128,-1,17
1349 76.5 m 128,-1,25
 1264 -30 1264 -30 1103.5 -30 c 128,-1,26
 943 -30 943 -30 860 73 c 128,-1,27
 777 176 777 176 777 350.5 c 128,-1,28
 777 525 777 525 861 630 c 128,-1,29
 945 735 945 735 1107.5 735 c 128,-1,30
 1270 735 1270 735 1352 633.5 c 128,-1,31
 1434 532 1434 532 1434 357.5 c 128,-1,24
 1434 183 1434 183 1349 76.5 c 128,-1,25
1254.5 539.5 m 128,-1,33
 1204 610 1204 610 1107 610 c 128,-1,34
 1010 610 1010 610 959 537.5 c 128,-1,35
 908 465 908 465 908 352 c 128,-1,36
 908 239 908 239 959.5 166 c 128,-1,37
 1011 93 1011 93 1106.5 93 c 128,-1,38
 1202 93 1202 93 1253.5 168.5 c 128,-1,39
 1305 244 1305 244 1305 356.5 c 128,-1,32
 1305 469 1305 469 1254.5 539.5 c 128,-1,33
530.5 1366 m 128,-1,41
 487 1438 487 1438 405 1438 c 128,-1,42
 323 1438 323 1438 280 1364.5 c 128,-1,43
 237 1291 237 1291 237 1177.5 c 128,-1,44
 237 1064 237 1064 280.5 991.5 c 128,-1,45
 324 919 324 919 406 919 c 128,-1,46
 488 919 488 919 531 993 c 128,-1,47
 574 1067 574 1067 574 1180.5 c 128,-1,40
 574 1294 574 1294 530.5 1366 c 128,-1,41
395 -22 m 1,48,-1
 259 -22 l 1,49,-1
 1115 1547 l 1,50,-1
 1272 1547 l 1,51,-1
 395 -22 l 1,48,-1
EndSplineSet
EndChar

StartChar: uni0307
Encoding: 775 775 405
Width: 411
GlyphClass: 2
Flags: HW
LayerCount: 2
Fore
SplineSet
290 1496 m 1,0,-1
 290 1298 l 1,1,-1
 122 1298 l 1,2,-1
 122 1496 l 1,3,-1
 290 1496 l 1,0,-1
EndSplineSet
EndChar

StartChar: fj
Encoding: 65540 -1 406
Width: 1196
GlyphClass: 3
Flags: HW
LayerCount: 2
Fore
SplineSet
1081 1097 m 1,0,-1
 1081 -139 l 2,1,2
 1081 -245 1081 -245 1067.5 -310 c 128,-1,3
 1054 -375 1054 -375 1016.5 -420.5 c 128,-1,4
 979 -466 979 -466 915 -484 c 128,-1,5
 851 -502 851 -502 748 -502 c 2,6,-1
 696 -502 l 1,7,-1
 674 -351 l 1,8,-1
 726 -351 l 2,9,10
 844 -351 844 -351 873.5 -315 c 128,-1,11
 903 -279 903 -279 908 -235.5 c 128,-1,12
 913 -192 913 -192 913 -121 c 2,13,-1
 913 973 l 1,14,-1
 380 973 l 1,15,-1
 380 0 l 1,16,-1
 212 0 l 1,17,-1
 212 973 l 1,18,-1
 34 973 l 1,19,-1
 48 1083 l 1,20,-1
 212 1097 l 1,21,-1
 212 1146 l 1,22,23
 214 1358 214 1358 292 1454 c 128,-1,24
 370 1550 370 1550 543 1550 c 0,25,26
 603 1550 603 1550 706 1534 c 1,27,-1
 696 1403 l 1,28,29
 607 1416 607 1416 561 1416 c 0,30,31
 457 1416 457 1416 418.5 1356 c 128,-1,32
 380 1296 380 1296 380 1148 c 2,33,-1
 380 1097 l 1,34,-1
 1081 1097 l 1,0,-1
1081 1496 m 1,35,-1
 1081 1298 l 1,36,-1
 913 1298 l 1,37,-1
 913 1496 l 1,38,-1
 1081 1496 l 1,35,-1
EndSplineSet
Ligature2: "'liga' Standard Ligatures lookup 0 subtable" f j
EndChar
